<svg version="1.1" xmlns="http://www.w3.org/2000/svg" viewBox="0 0 1000.7000122070312 1628" width="3002.1000366210938" height="4884" filter="invert(93%) hue-rotate(180deg)">
  <!-- svg-source:excalidraw -->
  
  <defs>
    <style class="style-fonts">
      @font-face {
        font-family: "Virgil";
        src: url("https://excalidraw.com/Virgil.woff2");
      }
      @font-face {
        font-family: "Cascadia";
        src: url("https://excalidraw.com/Cascadia.woff2");
      }
      @font-face {
        font-family: "Assistant";
        src: url("https://excalidraw.com/Assistant-Regular.woff2");
      }
    </style>
    
  </defs>
  <g transform="translate(232 10) rotate(0 -2 44.5)" stroke="none"><path fill="#1e1e1e" d="M 3.65,0.33 Q 3.65,0.33 3.44,3.50 3.24,6.67 2.36,11.00 1.49,15.33 0.80,21.31 0.11,27.28 -0.21,32.10 -0.54,36.92 -0.70,43.25 -0.87,49.59 -0.96,56.89 -1.05,64.20 -1.11,70.75 -1.16,77.31 -0.95,82.10 -0.74,86.89 -0.83,87.41 -0.91,87.93 -1.16,88.39 -1.41,88.85 -1.79,89.22 -2.17,89.58 -2.65,89.80 -3.13,90.02 -3.65,90.07 -4.17,90.13 -4.69,90.01 -5.20,89.90 -5.65,89.63 -6.10,89.35 -6.44,88.95 -6.78,88.55 -6.97,88.06 -7.17,87.57 -7.19,87.05 -7.22,86.52 -7.08,86.02 -6.94,85.51 -6.64,85.08 -6.34,84.64 -5.92,84.32 -5.50,84.01 -5.01,83.84 -4.51,83.67 -3.98,83.68 -3.46,83.68 -2.96,83.85 -2.46,84.02 -2.04,84.33 -1.63,84.65 -1.33,85.09 -1.04,85.53 -0.90,86.03 -0.76,86.54 -0.79,87.06 -0.82,87.59 -1.01,88.08 -1.21,88.56 -1.55,88.96 -1.89,89.36 -2.34,89.63 -2.80,89.90 -3.31,90.02 -3.82,90.13 -4.35,90.07 -4.87,90.01 -5.34,89.79 -5.82,89.57 -6.20,89.20 -6.58,88.84 -6.83,88.38 -7.07,87.91 -7.16,87.39 -7.24,86.87 -7.24,86.87 -7.24,86.87 -7.01,82.08 -6.77,77.29 -6.79,70.73 -6.80,64.16 -6.80,56.83 -6.81,49.50 -6.76,43.05 -6.72,36.60 -6.55,31.63 -6.39,26.66 -5.91,20.42 -5.43,14.19 -4.91,10.08 -4.39,5.97 -4.02,2.82 -3.65,-0.33 -3.55,-0.76 -3.46,-1.19 -3.27,-1.59 -3.07,-1.99 -2.79,-2.33 -2.51,-2.67 -2.15,-2.93 -1.80,-3.19 -1.39,-3.36 -0.98,-3.53 -0.54,-3.59 -0.11,-3.66 0.32,-3.62 0.76,-3.58 1.18,-3.44 1.60,-3.29 1.97,-3.05 2.34,-2.81 2.65,-2.49 2.95,-2.17 3.17,-1.78 3.38,-1.40 3.50,-0.97 3.62,-0.55 3.63,-0.10 3.65,0.33 3.65,0.33 L 3.65,0.33 Z"></path></g><g transform="translate(227 15) rotate(0 156 -1.5)" stroke="none"><path fill="#1e1e1e" d="M -0.16,-3.12 Q -0.16,-3.12 11.05,-3.62 22.27,-4.13 38.01,-4.33 53.76,-4.52 73.95,-4.59 94.15,-4.66 117.10,-4.68 140.06,-4.69 163.62,-4.69 187.17,-4.69 209.83,-4.69 232.50,-4.68 250.46,-4.68 268.43,-4.67 280.06,-4.95 291.69,-5.23 297.22,-5.35 302.76,-5.47 306.52,-5.74 310.28,-6.02 310.77,-5.95 311.26,-5.88 311.70,-5.65 312.14,-5.43 312.49,-5.08 312.83,-4.73 313.05,-4.28 313.26,-3.84 313.33,-3.35 313.39,-2.86 313.29,-2.37 313.20,-1.89 312.95,-1.46 312.70,-1.03 312.33,-0.70 311.96,-0.38 311.51,-0.18 311.05,0.00 310.56,0.03 310.07,0.07 309.59,-0.04 309.11,-0.16 308.69,-0.43 308.28,-0.70 307.97,-1.09 307.67,-1.48 307.50,-1.94 307.33,-2.41 307.32,-2.90 307.31,-3.40 307.46,-3.87 307.61,-4.34 307.90,-4.74 308.19,-5.14 308.60,-5.42 309.00,-5.71 309.47,-5.85 309.95,-5.99 310.44,-5.98 310.94,-5.96 311.40,-5.78 311.86,-5.61 312.24,-5.30 312.63,-4.99 312.89,-4.57 313.15,-4.15 313.27,-3.67 313.38,-3.19 313.34,-2.69 313.30,-2.20 313.10,-1.75 312.90,-1.30 312.57,-0.93 312.23,-0.57 311.80,-0.33 311.37,-0.09 310.88,-0.00 310.40,0.08 310.40,0.08 310.40,0.08 306.64,-0.03 302.88,-0.16 297.35,-0.03 291.82,0.09 280.13,0.38 268.43,0.68 250.47,0.69 232.50,0.71 209.84,0.73 187.18,0.75 163.62,0.79 140.07,0.83 117.12,0.90 94.18,0.97 74.01,1.11 53.85,1.25 38.21,1.54 22.57,1.83 11.36,2.47 0.16,3.12 -0.21,3.09 -0.59,3.06 -0.94,2.95 -1.30,2.83 -1.62,2.63 -1.94,2.44 -2.21,2.17 -2.47,1.90 -2.66,1.58 -2.86,1.25 -2.96,0.89 -3.07,0.53 -3.09,0.15 -3.11,-0.21 -3.04,-0.58 -2.97,-0.95 -2.81,-1.29 -2.65,-1.64 -2.42,-1.93 -2.18,-2.22 -1.89,-2.45 -1.59,-2.68 -1.24,-2.83 -0.90,-2.99 -0.53,-3.05 -0.15,-3.12 -0.15,-3.12 L -0.16,-3.12 Z"></path></g><g transform="translate(539 12) rotate(0 -161 46.5)" stroke="none"><path fill="#1e1e1e" d="M 3.88,0.21 Q 3.88,0.21 3.42,5.38 2.97,10.54 2.72,16.70 2.48,22.86 2.62,30.31 2.76,37.76 2.80,44.44 2.83,51.12 2.82,57.12 2.82,63.12 3.09,67.89 3.35,72.65 3.69,75.59 4.02,78.53 2.81,82.55 1.61,86.56 -2.24,87.53 -6.09,88.49 -11.87,88.48 -17.66,88.47 -31.57,88.39 -45.48,88.32 -55.69,88.24 -65.90,88.16 -98.99,88.09 -132.08,88.03 -153.04,87.98 -174.01,87.92 -186.62,88.17 -199.23,88.42 -210.27,89.37 -221.30,90.32 -229.69,91.57 -238.07,92.81 -243.46,93.35 -248.85,93.89 -252.89,94.17 -256.94,94.46 -260.69,94.65 -264.43,94.84 -267.00,95.36 -269.56,95.88 -272.56,96.18 -275.55,96.48 -278.26,96.68 -280.97,96.88 -283.56,97.03 -286.16,97.18 -289.27,97.23 -292.39,97.27 -296.88,97.06 -301.37,96.84 -306.72,96.68 -312.08,96.52 -314.93,96.66 -317.78,96.80 -319.92,96.90 -322.05,97.00 -322.69,96.90 -323.33,96.79 -323.90,96.49 -324.48,96.18 -324.92,95.71 -325.37,95.24 -325.64,94.66 -325.91,94.07 -325.98,93.42 -326.05,92.78 -325.91,92.15 -325.77,91.51 -325.44,90.96 -325.11,90.40 -324.61,89.98 -324.12,89.56 -323.52,89.32 -322.91,89.08 -322.27,89.05 -321.62,89.01 -321.00,89.19 -320.37,89.36 -319.84,89.72 -319.30,90.09 -318.91,90.60 -318.51,91.12 -318.31,91.73 -318.10,92.35 -318.10,92.99 -318.10,93.64 -318.31,94.26 -318.51,94.87 -318.91,95.39 -319.30,95.90 -319.83,96.27 -320.37,96.63 -321.00,96.80 -321.62,96.98 -322.27,96.94 -322.91,96.91 -323.52,96.67 -324.12,96.43 -324.61,96.01 -325.11,95.59 -325.44,95.03 -325.77,94.48 -325.91,93.84 -326.05,93.21 -325.98,92.57 -325.91,91.92 -325.64,91.33 -325.37,90.75 -324.92,90.28 -324.48,89.81 -323.90,89.50 -323.33,89.20 -322.69,89.09 -322.05,88.99 -322.05,88.99 -322.05,88.99 -319.92,89.09 -317.78,89.19 -314.93,89.33 -312.08,89.47 -306.73,89.30 -301.37,89.14 -296.90,88.91 -292.42,88.68 -289.33,88.71 -286.24,88.73 -283.69,88.83 -281.15,88.93 -278.53,89.01 -275.91,89.10 -273.14,89.12 -270.37,89.13 -267.48,89.00 -264.60,88.86 -260.93,88.85 -257.26,88.85 -253.33,88.67 -249.40,88.49 -244.15,87.94 -238.89,87.39 -230.34,86.07 -221.80,84.76 -210.58,83.74 -199.37,82.72 -186.69,82.38 -174.01,82.05 -153.05,81.99 -132.08,81.92 -99.00,81.83 -65.92,81.74 -55.72,81.60 -45.52,81.46 -31.70,81.24 -17.88,81.02 -12.54,80.67 -7.19,80.32 -4.80,79.57 -2.41,78.82 -2.33,75.91 -2.26,73.01 -2.60,68.09 -2.94,63.16 -3.04,57.18 -3.13,51.21 -3.29,44.58 -3.46,37.96 -3.79,30.34 -4.11,22.73 -4.11,16.44 -4.12,10.15 -4.00,4.96 -3.88,-0.21 -3.80,-0.67 -3.71,-1.13 -3.52,-1.56 -3.33,-1.99 -3.05,-2.36 -2.76,-2.73 -2.39,-3.02 -2.02,-3.31 -1.60,-3.51 -1.17,-3.70 -0.71,-3.79 -0.25,-3.88 0.21,-3.85 0.68,-3.82 1.13,-3.69 1.57,-3.55 1.98,-3.31 2.38,-3.07 2.71,-2.74 3.04,-2.41 3.29,-2.01 3.53,-1.61 3.68,-1.16 3.82,-0.71 3.85,-0.25 3.88,0.21 3.88,0.21 L 3.88,0.21 Z"></path></g><g transform="translate(173 178) rotate(0 10.5 71.5)" stroke="none"><path fill="#1e1e1e" d="M 3.23,1.38 Q 3.23,1.38 1.39,5.36 -0.43,9.34 -3.22,17.23 -6.00,25.12 -11.01,36.67 -16.01,48.22 -21.59,61.12 -27.17,74.02 -32.42,86.40 -37.68,98.77 -41.95,108.36 -46.21,117.95 -49.49,124.65 -52.76,131.34 -54.35,134.79 -55.93,138.23 -53.82,137.99 -51.71,137.74 -46.02,137.76 -40.33,137.78 -32.47,137.84 -24.60,137.89 -12.93,137.95 -1.25,138.00 5.14,138.05 11.53,138.09 15.12,137.99 18.70,137.88 22.55,137.47 26.40,137.06 31.40,136.86 36.40,136.67 38.87,136.57 41.34,136.47 43.95,136.24 46.55,136.02 49.97,135.90 53.40,135.77 57.02,135.94 60.64,136.11 64.92,136.66 69.20,137.21 72.32,137.32 75.44,137.44 72.89,133.21 70.34,128.99 67.36,123.57 64.37,118.16 62.48,114.59 60.59,111.01 59.09,108.79 57.60,106.56 55.85,103.91 54.11,101.25 52.05,97.70 49.99,94.14 47.97,90.94 45.95,87.74 44.34,85.22 42.74,82.69 41.40,80.48 40.05,78.27 37.58,74.88 35.10,71.49 32.94,69.33 30.79,67.16 28.82,65.78 26.84,64.40 24.73,62.78 22.62,61.16 19.68,57.90 16.74,54.65 14.51,52.26 12.28,49.87 10.10,46.93 7.91,43.99 6.44,42.01 4.98,40.02 3.96,37.74 2.94,35.46 2.17,33.40 1.39,31.35 0.35,28.75 -0.69,26.15 -1.50,23.52 -2.31,20.88 -3.95,17.57 -5.60,14.25 -6.59,10.85 -7.58,7.46 -7.35,4.68 -7.12,1.91 -6.81,0.85 -6.50,-0.21 -5.87,-1.12 -5.24,-2.03 -4.35,-2.69 -3.46,-3.35 -2.41,-3.69 -1.36,-4.03 -0.25,-4.02 0.85,-4.01 1.89,-3.65 2.94,-3.28 3.81,-2.60 4.69,-1.92 5.30,-1.00 5.91,-0.08 6.20,0.98 6.48,2.05 6.41,3.16 6.34,4.26 5.92,5.29 5.50,6.31 4.77,7.15 4.04,7.99 3.09,8.55 2.13,9.11 1.05,9.33 -0.02,9.56 -1.12,9.43 -2.22,9.30 -3.22,8.82 -4.22,8.34 -5.02,7.57 -5.81,6.80 -6.32,5.82 -6.83,4.84 -7.00,3.74 -7.16,2.65 -6.97,1.56 -6.78,0.47 -6.25,-0.50 -5.72,-1.47 -4.91,-2.22 -4.10,-2.97 -3.09,-3.43 -2.08,-3.88 -0.98,-3.99 0.11,-4.10 1.19,-3.85 2.27,-3.60 3.21,-3.02 4.16,-2.44 4.86,-1.58 5.57,-0.73 5.97,0.29 6.37,1.32 6.42,2.43 6.46,3.54 6.46,3.53 6.46,3.53 6.19,4.64 5.91,5.74 6.58,7.95 7.25,10.15 8.21,12.82 9.16,15.48 10.33,19.00 11.49,22.52 12.25,24.66 13.01,26.79 14.75,30.70 16.48,34.62 17.92,37.00 19.36,39.38 21.39,41.91 23.43,44.44 24.94,46.26 26.45,48.08 28.06,50.15 29.67,52.22 31.90,54.25 34.14,56.28 36.23,58.28 38.33,60.27 40.57,63.22 42.80,66.17 44.12,68.26 45.44,70.36 46.45,72.31 47.47,74.27 48.52,76.49 49.56,78.72 50.87,81.20 52.19,83.69 54.32,86.87 56.45,90.06 58.76,93.42 61.06,96.77 62.82,99.55 64.57,102.33 65.91,104.78 67.24,107.22 69.30,110.57 71.36,113.93 74.97,119.41 78.57,124.88 80.38,128.16 82.20,131.43 83.49,135.20 84.78,138.97 83.55,141.58 82.32,144.19 78.72,145.19 75.11,146.19 71.85,146.06 68.59,145.93 64.62,145.91 60.64,145.88 57.02,146.05 53.40,146.22 49.97,146.09 46.55,145.97 43.95,145.75 41.34,145.52 38.87,145.42 36.40,145.32 31.40,145.13 26.40,144.94 22.55,144.53 18.70,144.12 15.12,144.02 11.54,143.92 5.15,143.99 -1.24,144.05 -12.90,144.14 -24.56,144.24 -32.38,144.39 -40.20,144.53 -45.69,144.78 -51.19,145.02 -55.75,144.90 -60.31,144.78 -61.58,142.79 -62.86,140.79 -62.00,138.24 -61.14,135.69 -59.40,132.33 -57.66,128.96 -54.46,122.34 -51.26,115.72 -47.06,106.15 -42.86,96.58 -37.66,84.17 -32.46,71.76 -26.97,58.82 -21.48,45.88 -16.67,34.50 -11.87,23.11 -9.16,14.93 -6.46,6.75 -4.84,2.68 -3.23,-1.38 -3.02,-1.75 -2.80,-2.11 -2.51,-2.42 -2.21,-2.73 -1.86,-2.95 -1.50,-3.18 -1.09,-3.31 -0.69,-3.44 -0.27,-3.48 0.14,-3.51 0.56,-3.44 0.98,-3.37 1.37,-3.21 1.76,-3.04 2.10,-2.78 2.44,-2.53 2.71,-2.20 2.97,-1.87 3.15,-1.49 3.34,-1.10 3.42,-0.69 3.50,-0.27 3.49,0.14 3.47,0.57 3.35,0.97 3.23,1.38 3.23,1.38 L 3.23,1.38 Z"></path></g><g transform="translate(379 180) rotate(0 0 68.5)" stroke="none"><path fill="#1e1e1e" d="M 3.40,0 Q 3.40,0 3.51,3.16 3.63,6.32 3.49,11.11 3.36,15.91 3.26,23.12 3.16,30.33 3.08,39.44 3.01,48.54 2.96,57.29 2.90,66.05 2.87,73.51 2.83,80.97 2.80,87.01 2.77,93.06 2.75,97.35 2.73,101.65 2.90,104.91 3.08,108.17 3.28,110.71 3.49,113.25 3.84,117.04 4.19,120.83 4.46,123.93 4.73,127.03 4.93,129.23 5.13,131.43 5.24,133.95 5.35,136.47 5.21,137.33 5.07,138.18 4.67,138.95 4.26,139.72 3.63,140.31 3.00,140.91 2.21,141.27 1.43,141.64 0.57,141.73 -0.29,141.82 -1.13,141.64 -1.98,141.45 -2.72,141.00 -3.46,140.56 -4.02,139.90 -4.59,139.23 -4.91,138.43 -5.23,137.62 -5.27,136.76 -5.32,135.89 -5.09,135.06 -4.86,134.22 -4.37,133.51 -3.88,132.79 -3.19,132.26 -2.50,131.74 -1.68,131.46 -0.86,131.19 0.00,131.19 0.86,131.19 1.68,131.46 2.51,131.74 3.19,132.27 3.88,132.79 4.37,133.51 4.86,134.22 5.09,135.06 5.32,135.90 5.27,136.76 5.23,137.63 4.91,138.43 4.58,139.24 4.02,139.90 3.46,140.56 2.72,141.00 1.98,141.45 1.13,141.64 0.28,141.82 -0.57,141.73 -1.43,141.63 -2.22,141.27 -3.00,140.91 -3.63,140.31 -4.26,139.71 -4.67,138.95 -5.07,138.18 -5.21,137.33 -5.35,136.47 -5.35,136.47 -5.35,136.47 -5.24,133.95 -5.13,131.43 -4.93,129.23 -4.73,127.03 -4.46,123.93 -4.19,120.83 -3.84,117.04 -3.49,113.25 -3.28,110.71 -3.08,108.17 -2.90,104.91 -2.73,101.65 -2.75,97.35 -2.77,93.06 -2.80,87.01 -2.83,80.97 -2.87,73.51 -2.90,66.05 -2.96,57.29 -3.01,48.54 -3.08,39.44 -3.16,30.33 -3.26,23.12 -3.36,15.91 -3.49,11.11 -3.63,6.32 -3.51,3.16 -3.40,0 -3.35,-0.40 -3.30,-0.81 -3.16,-1.19 -3.01,-1.58 -2.78,-1.92 -2.54,-2.25 -2.24,-2.53 -1.93,-2.80 -1.57,-2.99 -1.20,-3.18 -0.80,-3.28 -0.41,-3.38 0.00,-3.38 0.41,-3.38 0.80,-3.28 1.20,-3.18 1.57,-2.99 1.93,-2.80 2.24,-2.53 2.54,-2.25 2.78,-1.92 3.01,-1.58 3.16,-1.19 3.30,-0.81 3.35,-0.40 3.40,0.00 3.40,0.00 L 3.40,0 Z"></path></g><g transform="translate(549 240) rotate(0 0.00004999999998744897 0.00004999999998744897)" stroke="none"><path fill="#1e1e1e" d="M 3.14,-3.14 Q 3.14,-3.14 3.55,-2.55 3.97,-1.97 4.18,-1.28 4.40,-0.59 4.38,0.11 4.36,0.83 4.11,1.51 3.86,2.18 3.41,2.74 2.96,3.30 2.36,3.69 1.75,4.07 1.05,4.25 0.36,4.42 -0.35,4.36 -1.07,4.30 -1.73,4.02 -2.39,3.74 -2.92,3.26 -3.46,2.78 -3.81,2.15 -4.16,1.53 -4.30,0.82 -4.43,0.11 -4.34,-0.59 -4.24,-1.30 -3.92,-1.94 -3.60,-2.59 -3.09,-3.09 -2.59,-3.60 -1.94,-3.92 -1.30,-4.24 -0.59,-4.34 0.12,-4.43 0.82,-4.30 1.53,-4.16 2.15,-3.81 2.78,-3.46 3.26,-2.92 3.74,-2.39 4.02,-1.73 4.31,-1.07 4.36,-0.35 4.42,0.36 4.25,1.05 4.07,1.75 3.69,2.36 3.30,2.96 2.74,3.41 2.18,3.86 1.51,4.11 0.83,4.36 0.11,4.38 -0.60,4.40 -1.28,4.18 -1.97,3.97 -2.55,3.55 -3.14,3.13 -3.14,3.14 -3.14,3.14 -3.47,2.71 -3.80,2.29 -4.02,1.80 -4.24,1.32 -4.33,0.79 -4.43,0.26 -4.40,-0.26 -4.36,-0.80 -4.20,-1.31 -4.04,-1.82 -3.77,-2.28 -3.49,-2.73 -3.11,-3.11 -2.73,-3.49 -2.28,-3.77 -1.82,-4.05 -1.31,-4.20 -0.80,-4.36 -0.26,-4.40 0.26,-4.43 0.79,-4.33 1.32,-4.24 1.80,-4.02 2.29,-3.80 2.71,-3.47 3.14,-3.14 3.14,-3.14 L 3.14,-3.14 Z"></path></g><g transform="translate(141 349) rotate(0 36.58333206176758 12.5)"><text x="0" y="17.52" font-family="Virgil, Segoe UI Emoji" font-size="20px" fill="#1e1e1e" text-anchor="start" style="white-space: pre;" direction="ltr" dominant-baseline="alphabetic">triangle</text></g><g transform="translate(365 348) rotate(0 14.958333015441895 12.5)"><text x="0" y="17.52" font-family="Virgil, Segoe UI Emoji" font-size="20px" fill="#1e1e1e" text-anchor="start" style="white-space: pre;" direction="ltr" dominant-baseline="alphabetic">line</text></g><g transform="translate(526 352) rotate(0 22.983333587646484 12.5)"><text x="0" y="17.52" font-family="Virgil, Segoe UI Emoji" font-size="20px" fill="#1e1e1e" text-anchor="start" style="white-space: pre;" direction="ltr" dominant-baseline="alphabetic">point</text></g><g transform="translate(93 147) rotate(0 -32 100.5)" stroke="none"><path fill="#1e1e1e" d="M 2.37,2.03 Q 2.37,2.03 -1.12,6.01 -4.63,9.99 -10.97,18.22 -17.31,26.44 -21.74,32.52 -26.17,38.59 -30.85,47.07 -35.54,55.56 -42.14,69.49 -48.74,83.43 -52.35,96.07 -55.96,108.71 -56.62,121.36 -57.28,134.00 -56.16,143.01 -55.04,152.01 -53.43,159.56 -51.82,167.11 -50.01,172.53 -48.21,177.95 -46.31,182.52 -44.41,187.09 -42.66,190.04 -40.91,192.98 -39.01,195.47 -37.10,197.97 -36.88,198.45 -36.66,198.92 -36.60,199.45 -36.54,199.98 -36.66,200.49 -36.77,201.01 -37.04,201.46 -37.32,201.91 -37.72,202.26 -38.12,202.60 -38.61,202.79 -39.11,202.99 -39.63,203.02 -40.16,203.05 -40.67,202.90 -41.18,202.76 -41.62,202.47 -42.05,202.17 -42.37,201.75 -42.69,201.33 -42.86,200.83 -43.03,200.32 -43.03,199.80 -43.03,199.27 -42.86,198.77 -42.69,198.27 -42.37,197.84 -42.05,197.42 -41.61,197.13 -41.18,196.83 -40.67,196.69 -40.16,196.55 -39.63,196.58 -39.10,196.61 -38.61,196.80 -38.12,197.00 -37.72,197.34 -37.31,197.68 -37.04,198.14 -36.77,198.59 -36.66,199.11 -36.54,199.62 -36.60,200.15 -36.66,200.67 -36.88,201.15 -37.10,201.63 -37.47,202.02 -37.83,202.40 -38.30,202.65 -38.76,202.89 -39.29,202.98 -39.81,203.07 -40.33,202.98 -40.85,202.89 -41.32,202.65 -41.79,202.40 -42.15,202.01 -42.51,201.63 -42.51,201.63 -42.51,201.63 -44.28,198.69 -46.06,195.75 -47.68,192.43 -49.29,189.12 -51.26,184.37 -53.23,179.61 -55.12,173.92 -57.01,168.22 -58.67,160.44 -60.33,152.67 -61.48,143.20 -62.64,133.73 -61.90,120.49 -61.16,107.26 -57.42,94.18 -53.68,81.11 -47.03,67.00 -40.39,52.89 -35.56,44.09 -30.74,35.29 -26.32,29.12 -21.90,22.94 -15.53,14.52 -9.16,6.10 -5.77,2.03 -2.37,-2.03 -2.09,-2.28 -1.81,-2.54 -1.48,-2.72 -1.15,-2.90 -0.79,-2.99 -0.42,-3.09 -0.05,-3.10 0.32,-3.10 0.69,-3.02 1.06,-2.93 1.39,-2.76 1.73,-2.59 2.01,-2.35 2.30,-2.10 2.52,-1.80 2.74,-1.49 2.88,-1.14 3.02,-0.79 3.07,-0.42 3.12,-0.05 3.08,0.32 3.04,0.69 2.91,1.05 2.78,1.40 2.58,1.72 2.37,2.03 2.37,2.03 L 2.37,2.03 Z"></path></g><g transform="translate(571 148) rotate(0 61 117.5)" stroke="none"><path fill="#1e1e1e" d="M 1.52,-2.78 Q 1.52,-2.78 4.71,-1.12 7.91,0.54 16.03,6.95 24.15,13.37 30.12,18.38 36.08,23.40 43.85,31.08 51.62,38.76 61.26,49.54 70.90,60.31 79.66,72.76 88.42,85.21 95.60,97.15 102.78,109.08 108.16,120.27 113.54,131.46 116.74,141.82 119.93,152.18 121.30,160.71 122.66,169.24 123.23,176.63 123.81,184.02 124.04,189.76 124.28,195.49 123.21,201.93 122.14,208.36 120.17,213.00 118.20,217.63 116.25,221.11 114.30,224.59 112.32,227.19 110.34,229.78 109.15,231.65 107.95,233.53 106.72,235.16 105.49,236.79 105.02,237.19 104.55,237.59 103.98,237.83 103.40,238.06 102.78,238.10 102.17,238.14 101.57,237.98 100.97,237.81 100.46,237.47 99.94,237.13 99.56,236.63 99.18,236.14 98.98,235.56 98.78,234.97 98.78,234.35 98.77,233.73 98.97,233.15 99.16,232.56 99.53,232.06 99.90,231.57 100.41,231.22 100.92,230.86 101.52,230.69 102.11,230.52 102.73,230.55 103.35,230.58 103.93,230.81 104.51,231.03 104.98,231.43 105.45,231.83 105.78,232.36 106.10,232.89 106.24,233.49 106.38,234.09 106.31,234.71 106.25,235.33 105.99,235.89 105.74,236.45 105.31,236.91 104.89,237.36 104.35,237.65 103.80,237.95 103.19,238.05 102.58,238.16 101.97,238.06 101.36,237.96 100.81,237.68 100.26,237.39 99.83,236.94 99.40,236.50 99.14,235.94 98.87,235.38 98.80,234.76 98.73,234.15 98.86,233.54 98.99,232.93 99.30,232.40 99.62,231.87 99.62,231.87 99.62,231.87 100.92,230.47 102.22,229.07 103.86,227.31 105.50,225.54 107.48,223.62 109.45,221.69 111.41,218.61 113.36,215.53 115.15,211.48 116.95,207.44 117.97,201.57 119.00,195.69 118.75,190.06 118.51,184.43 117.95,177.25 117.40,170.08 116.10,161.91 114.81,153.75 111.74,143.77 108.68,133.80 103.39,122.85 98.10,111.90 91.00,100.15 83.90,88.40 75.30,76.24 66.70,64.08 57.14,53.48 47.57,42.89 39.92,35.45 32.27,28.01 26.29,23.16 20.31,18.30 12.52,12.33 4.73,6.35 1.60,4.57 -1.52,2.78 -1.83,2.56 -2.14,2.34 -2.39,2.05 -2.64,1.76 -2.81,1.42 -2.98,1.07 -3.07,0.70 -3.15,0.33 -3.15,-0.05 -3.14,-0.43 -3.04,-0.80 -2.95,-1.17 -2.76,-1.51 -2.58,-1.84 -2.32,-2.12 -2.06,-2.41 -1.74,-2.62 -1.43,-2.83 -1.07,-2.96 -0.71,-3.09 -0.32,-3.13 0.05,-3.17 0.43,-3.12 0.80,-3.07 1.16,-2.93 1.52,-2.78 1.52,-2.78 L 1.52,-2.78 Z"></path></g><g transform="translate(266 31) rotate(0 118.66666412353516 25)"><text x="0" y="17.52" font-family="Virgil, Segoe UI Emoji" font-size="20px" fill="#1e1e1e" text-anchor="start" style="white-space: pre;" direction="ltr" dominant-baseline="alphabetic">shapes are composed of</text><text x="0" y="42.519999999999996" font-family="Virgil, Segoe UI Emoji" font-size="20px" fill="#1e1e1e" text-anchor="start" style="white-space: pre;" direction="ltr" dominant-baseline="alphabetic">these three primitives</text></g><g transform="translate(60 419) rotate(0 301.8166809082031 50)"><text x="0" y="17.52" font-family="Virgil, Segoe UI Emoji" font-size="20px" fill="#1e1e1e" text-anchor="start" style="white-space: pre;" direction="ltr" dominant-baseline="alphabetic">Instead of creating batches for each shape, we can create</text><text x="0" y="42.519999999999996" font-family="Virgil, Segoe UI Emoji" font-size="20px" fill="#1e1e1e" text-anchor="start" style="white-space: pre;" direction="ltr" dominant-baseline="alphabetic">batches for these primitives. This would mean no matter how</text><text x="0" y="67.52" font-family="Virgil, Segoe UI Emoji" font-size="20px" fill="#1e1e1e" text-anchor="start" style="white-space: pre;" direction="ltr" dominant-baseline="alphabetic">many shapes are added, we're only going to have three draw</text><text x="0" y="92.52" font-family="Virgil, Segoe UI Emoji" font-size="20px" fill="#1e1e1e" text-anchor="start" style="white-space: pre;" direction="ltr" dominant-baseline="alphabetic">calls at max</text></g><g transform="translate(154 544) rotate(0 55.5 81)" stroke="none"><path fill="#1e1e1e" d="M 3.12,0 Q 3.12,0 3.05,6.89 2.98,13.79 2.93,19.60 2.88,25.41 2.85,34.20 2.81,43.00 3.64,53.52 4.48,64.05 5.67,71.62 6.87,79.19 11.31,89.62 15.76,100.06 22.17,110.18 28.59,120.30 36.63,128.19 44.67,136.08 53.67,141.35 62.66,146.63 71.88,150.30 81.09,153.98 87.76,155.52 94.43,157.06 98.42,157.16 102.42,157.26 104.12,155.83 105.82,154.40 106.83,152.95 107.84,151.51 108.26,151.17 108.68,150.82 109.18,150.63 109.69,150.44 110.23,150.42 110.77,150.41 111.29,150.56 111.81,150.72 112.26,151.03 112.70,151.34 113.02,151.78 113.34,152.22 113.50,152.73 113.66,153.25 113.65,153.79 113.64,154.33 113.46,154.84 113.28,155.35 112.94,155.78 112.60,156.20 112.15,156.50 111.69,156.80 111.17,156.93 110.64,157.06 110.10,157.02 109.56,156.98 109.06,156.77 108.56,156.56 108.16,156.21 107.75,155.85 107.48,155.38 107.21,154.91 107.11,154.38 107.00,153.84 107.07,153.31 107.14,152.77 107.37,152.28 107.61,151.79 107.99,151.41 108.37,151.02 108.86,150.78 109.34,150.53 109.88,150.46 110.41,150.38 110.95,150.48 111.48,150.58 111.95,150.84 112.43,151.10 112.79,151.50 113.16,151.90 113.37,152.40 113.59,152.90 113.64,153.44 113.69,153.98 113.56,154.50 113.43,155.03 113.15,155.49 112.86,155.95 112.86,155.95 112.86,155.95 110.93,157.83 108.99,159.71 105.84,161.07 102.69,162.43 97.97,162.32 93.26,162.21 86.19,160.55 79.13,158.90 69.55,155.05 59.97,151.21 50.47,145.55 40.96,139.90 32.52,131.55 24.08,123.19 17.44,112.68 10.79,102.18 6.14,91.13 1.49,80.09 0.23,72.29 -1.03,64.49 -1.92,53.75 -2.81,43.00 -2.85,34.20 -2.88,25.41 -2.93,19.60 -2.98,13.79 -3.05,6.89 -3.12,0 -3.07,-0.37 -3.03,-0.74 -2.90,-1.09 -2.76,-1.45 -2.55,-1.76 -2.33,-2.07 -2.05,-2.32 -1.77,-2.57 -1.44,-2.74 -1.10,-2.92 -0.74,-3.01 -0.37,-3.10 0.00,-3.10 0.37,-3.10 0.74,-3.01 1.10,-2.92 1.44,-2.74 1.77,-2.57 2.05,-2.32 2.33,-2.07 2.55,-1.76 2.76,-1.45 2.90,-1.09 3.03,-0.74 3.07,-0.37 3.12,0.00 3.12,0.00 L 3.12,0 Z"></path></g><g transform="translate(146 551) rotate(0 13.5 0.5)" stroke="none"><path fill="#1e1e1e" d="M 4.69,2.08 Q 4.69,2.08 3.53,4.66 2.36,7.25 1.26,9.42 0.16,11.59 -0.49,12.75 -1.16,13.91 -1.54,14.44 -1.91,14.97 -2.40,15.39 -2.90,15.82 -3.48,16.11 -4.06,16.41 -4.69,16.55 -5.32,16.70 -5.97,16.69 -6.62,16.68 -7.25,16.52 -7.88,16.36 -8.45,16.05 -9.03,15.74 -9.51,15.30 -9.99,14.86 -10.35,14.32 -10.71,13.78 -10.93,13.17 -11.16,12.56 -11.23,11.91 -11.30,11.26 -11.21,10.62 -11.12,9.98 -10.88,9.37 -10.64,8.77 -9.49,4.85 -8.34,0.94 -7.04,-1.95 -5.74,-4.85 -4.52,-7.02 -3.31,-9.19 -0.31,-12.45 2.68,-15.71 6.57,-15.54 10.47,-15.37 13.49,-14.05 16.51,-12.73 19.83,-10.47 23.15,-8.21 25.85,-6.48 28.54,-4.75 32.17,-1.99 35.80,0.77 36.36,1.39 36.92,2.02 37.26,2.79 37.59,3.57 37.66,4.41 37.73,5.25 37.52,6.06 37.32,6.88 36.87,7.59 36.42,8.30 35.76,8.83 35.10,9.36 34.31,9.65 33.52,9.94 32.68,9.96 31.84,9.98 31.03,9.74 30.23,9.49 29.54,9.00 28.86,8.51 28.37,7.83 27.88,7.14 27.63,6.34 27.38,5.53 27.40,4.69 27.43,3.85 27.72,3.06 28.01,2.27 28.53,1.61 29.06,0.95 29.77,0.50 30.48,0.04 31.30,-0.15 32.11,-0.35 32.95,-0.28 33.79,-0.22 34.57,0.11 35.34,0.44 35.97,1.00 36.59,1.56 37.01,2.30 37.42,3.03 37.58,3.86 37.74,4.68 37.63,5.52 37.52,6.35 37.14,7.11 36.77,7.86 36.17,8.46 35.58,9.05 34.82,9.43 34.07,9.80 33.23,9.92 32.40,10.03 31.57,9.87 30.75,9.71 30.01,9.30 29.28,8.88 29.28,8.88 29.28,8.89 26.30,6.34 23.32,3.80 20.52,2.19 17.72,0.57 14.87,-0.97 12.02,-2.52 9.99,-4.86 7.97,-7.19 6.11,-3.95 4.25,-0.70 2.47,3.91 0.69,8.53 -0.23,11.22 -1.16,13.91 -1.53,14.44 -1.91,14.97 -2.40,15.39 -2.90,15.82 -3.48,16.11 -4.06,16.41 -4.69,16.55 -5.32,16.70 -5.97,16.69 -6.62,16.68 -7.25,16.52 -7.88,16.36 -8.45,16.05 -9.03,15.74 -9.51,15.30 -9.99,14.86 -10.35,14.32 -10.71,13.78 -10.93,13.17 -11.16,12.56 -11.23,11.91 -11.30,11.26 -11.21,10.62 -11.12,9.98 -10.88,9.37 -10.64,8.77 -8.80,5.93 -6.96,3.09 -5.83,0.50 -4.69,-2.08 -4.37,-2.61 -4.05,-3.14 -3.62,-3.58 -3.18,-4.02 -2.65,-4.35 -2.12,-4.67 -1.53,-4.85 -0.94,-5.04 -0.33,-5.08 0.28,-5.12 0.89,-5.01 1.50,-4.90 2.07,-4.65 2.63,-4.40 3.12,-4.02 3.61,-3.64 3.99,-3.16 4.38,-2.67 4.63,-2.11 4.89,-1.55 5.01,-0.94 5.12,-0.33 5.08,0.28 5.05,0.90 4.87,1.49 4.69,2.08 4.69,2.08 L 4.69,2.08 Z"></path></g><g transform="translate(299 668) rotate(0 253.35833740234375 50)"><text x="0" y="17.52" font-family="Virgil, Segoe UI Emoji" font-size="20px" fill="#1e1e1e" text-anchor="start" style="white-space: pre;" direction="ltr" dominant-baseline="alphabetic">triangle primitive can create problems here</text><text x="0" y="42.519999999999996" font-family="Virgil, Segoe UI Emoji" font-size="20px" fill="#1e1e1e" text-anchor="start" style="white-space: pre;" direction="ltr" dominant-baseline="alphabetic">because this is applicable only when all triangles</text><text x="0" y="67.52" font-family="Virgil, Segoe UI Emoji" font-size="20px" fill="#1e1e1e" text-anchor="start" style="white-space: pre;" direction="ltr" dominant-baseline="alphabetic">in all the shapes are similar to some same triangle</text><text x="0" y="92.52" font-family="Virgil, Segoe UI Emoji" font-size="20px" fill="#1e1e1e" text-anchor="start" style="white-space: pre;" direction="ltr" dominant-baseline="alphabetic">which is almost not possible at all!</text></g><g transform="translate(146 782) rotate(0 322.4583435058594 87.5)"><text x="0" y="17.52" font-family="Virgil, Segoe UI Emoji" font-size="20px" fill="#1e1e1e" text-anchor="start" style="white-space: pre;" direction="ltr" dominant-baseline="alphabetic">we do need a way to change the mesh topology from triangle list</text><text x="0" y="42.519999999999996" font-family="Virgil, Segoe UI Emoji" font-size="20px" fill="#1e1e1e" text-anchor="start" style="white-space: pre;" direction="ltr" dominant-baseline="alphabetic">to line list or to point list.</text><text x="0" y="67.52" font-family="Virgil, Segoe UI Emoji" font-size="20px" fill="#1e1e1e" text-anchor="start" style="white-space: pre;" direction="ltr" dominant-baseline="alphabetic">this would mean we need batches for each shape where we first</text><text x="0" y="92.52" font-family="Virgil, Segoe UI Emoji" font-size="20px" fill="#1e1e1e" text-anchor="start" style="white-space: pre;" direction="ltr" dominant-baseline="alphabetic">set the topology to triangle and draw all the triangles,</text><text x="0" y="117.52" font-family="Virgil, Segoe UI Emoji" font-size="20px" fill="#1e1e1e" text-anchor="start" style="white-space: pre;" direction="ltr" dominant-baseline="alphabetic">then another batch for each shape where we...</text><text x="0" y="142.52" font-family="Virgil, Segoe UI Emoji" font-size="20px" fill="#1e1e1e" text-anchor="start" style="white-space: pre;" direction="ltr" dominant-baseline="alphabetic"></text><text x="0" y="167.52" font-family="Virgil, Segoe UI Emoji" font-size="20px" fill="#1e1e1e" text-anchor="start" style="white-space: pre;" direction="ltr" dominant-baseline="alphabetic">this list is increasing...</text></g><g transform="translate(10 1026) rotate(0 326.9083251953125 35)"><text x="0" y="24.528" font-family="Virgil, Segoe UI Emoji" font-size="28px" fill="#e03131" text-anchor="start" style="white-space: pre;" direction="ltr" dominant-baseline="alphabetic">List Of Things That Need Separate Draw Call</text><text x="0" y="59.528" font-family="Virgil, Segoe UI Emoji" font-size="28px" fill="#e03131" text-anchor="start" style="white-space: pre;" direction="ltr" dominant-baseline="alphabetic"></text></g><g transform="translate(12 1126) rotate(0 194.3333282470703 50)"><text x="0" y="17.52" font-family="Virgil, Segoe UI Emoji" font-size="20px" fill="#1e1e1e" text-anchor="start" style="white-space: pre;" direction="ltr" dominant-baseline="alphabetic">- line width</text><text x="0" y="42.519999999999996" font-family="Virgil, Segoe UI Emoji" font-size="20px" fill="#1e1e1e" text-anchor="start" style="white-space: pre;" direction="ltr" dominant-baseline="alphabetic">- fill method (fill, outline, point)</text><text x="0" y="67.52" font-family="Virgil, Segoe UI Emoji" font-size="20px" fill="#1e1e1e" text-anchor="start" style="white-space: pre;" direction="ltr" dominant-baseline="alphabetic">- primitive topology (triangle, line, point)</text><text x="0" y="92.52" font-family="Virgil, Segoe UI Emoji" font-size="20px" fill="#1e1e1e" text-anchor="start" style="white-space: pre;" direction="ltr" dominant-baseline="alphabetic">- shapes</text></g><g transform="translate(425 1121) rotate(0 26 70)" stroke="none"><path fill="#1e1e1e" d="M 0.51,-1.54 Q 0.51,-1.54 2.33,-0.93 4.14,-0.31 6.61,3.08 9.08,6.48 11.15,9.87 13.21,13.27 15.23,16.72 17.24,20.18 19.52,23.94 21.80,27.70 23.91,31.02 26.02,34.34 28.04,37.16 30.07,39.98 31.77,42.02 33.47,44.06 34.78,45.47 36.08,46.88 37.62,47.61 39.15,48.35 40.84,48.64 42.53,48.93 44.11,49.02 45.69,49.11 46.74,48.81 47.79,48.51 48.91,47.57 50.03,46.64 50.28,46.59 50.53,46.53 50.79,46.54 51.05,46.55 51.30,46.62 51.54,46.69 51.77,46.82 51.99,46.95 52.17,47.13 52.36,47.30 52.50,47.52 52.64,47.74 52.72,47.98 52.80,48.22 52.83,48.48 52.85,48.73 52.81,48.99 52.77,49.24 52.67,49.48 52.57,49.72 52.42,49.92 52.26,50.13 52.06,50.29 51.87,50.45 51.63,50.57 51.40,50.68 50.30,50.48 49.21,50.29 47.80,51.36 46.39,52.44 45.01,53.75 43.63,55.06 40.73,59.27 37.83,63.49 36.59,66.06 35.36,68.64 34.84,71.05 34.32,73.47 34.07,76.20 33.82,78.93 33.70,81.82 33.58,84.71 33.53,88.24 33.47,91.77 33.44,95.86 33.40,99.95 33.67,103.94 33.94,107.93 34.06,112.84 34.17,117.75 34.21,120.69 34.26,123.63 34.28,126.04 34.30,128.44 34.06,130.43 33.82,132.43 33.48,133.71 33.15,134.98 32.37,136.27 31.59,137.55 30.27,138.77 28.95,139.99 27.28,140.65 25.62,141.30 24.01,141.56 22.39,141.82 20.84,141.94 19.29,142.05 17.77,142.11 16.25,142.16 13.89,141.73 11.54,141.29 11.23,141.10 10.91,140.90 10.67,140.62 10.44,140.33 10.30,139.98 10.17,139.63 10.16,139.26 10.14,138.89 10.25,138.53 10.35,138.18 10.56,137.87 10.78,137.57 11.07,137.35 11.37,137.13 11.73,137.01 12.08,136.90 12.45,136.90 12.83,136.91 13.18,137.03 13.53,137.16 13.82,137.39 14.11,137.62 14.32,137.93 14.52,138.24 14.61,138.60 14.71,138.96 14.68,139.33 14.66,139.70 14.52,140.04 14.37,140.38 14.13,140.66 13.88,140.94 13.56,141.13 13.24,141.32 12.88,141.39 12.51,141.47 12.14,141.42 11.78,141.38 11.44,141.22 11.10,141.06 10.84,140.80 10.57,140.54 10.40,140.21 10.23,139.87 10.18,139.51 10.12,139.14 10.19,138.77 10.25,138.41 10.43,138.08 10.61,137.76 10.89,137.50 11.16,137.25 11.50,137.10 11.84,136.95 12.21,136.91 12.58,136.88 12.94,136.96 13.30,137.05 13.30,137.05 13.30,137.05 14.72,137.39 16.15,137.73 17.60,137.72 19.06,137.71 20.46,137.67 21.86,137.62 23.13,137.52 24.40,137.41 25.47,137.20 26.53,136.99 27.57,136.18 28.61,135.37 29.80,133.69 31.00,132.00 31.31,130.23 31.63,128.46 31.61,126.07 31.58,123.68 31.52,120.75 31.47,117.81 31.34,112.97 31.22,108.12 30.93,104.03 30.64,99.94 30.64,95.84 30.64,91.74 30.67,88.18 30.69,84.62 30.76,81.66 30.83,78.69 31.04,75.77 31.24,72.84 31.78,70.06 32.32,67.28 33.58,64.39 34.84,61.50 37.81,56.92 40.78,52.34 42.38,50.54 43.99,48.74 45.77,47.62 47.55,46.50 48.79,46.57 50.03,46.64 50.28,46.59 50.53,46.53 50.79,46.54 51.05,46.55 51.29,46.62 51.54,46.69 51.77,46.82 51.99,46.95 52.17,47.12 52.36,47.30 52.50,47.52 52.64,47.73 52.72,47.98 52.80,48.22 52.83,48.48 52.85,48.73 52.81,48.99 52.77,49.24 52.67,49.48 52.57,49.71 52.42,49.92 52.26,50.13 52.06,50.29 51.87,50.45 51.63,50.57 51.40,50.68 51.40,50.88 51.39,51.07 49.90,51.60 48.41,52.13 46.90,52.26 45.39,52.40 43.66,52.16 41.92,51.92 39.85,51.44 37.79,50.96 35.91,49.89 34.03,48.81 32.71,47.30 31.39,45.80 29.62,43.69 27.85,41.58 25.77,38.71 23.68,35.83 21.53,32.51 19.39,29.18 17.06,25.42 14.74,21.66 12.70,18.26 10.65,14.86 8.57,11.57 6.49,8.29 4.62,5.45 2.75,2.61 1.11,2.08 -0.51,1.54 -0.69,1.45 -0.86,1.37 -1.02,1.25 -1.17,1.12 -1.29,0.97 -1.40,0.81 -1.48,0.63 -1.56,0.45 -1.59,0.25 -1.62,0.06 -1.60,-0.12 -1.59,-0.32 -1.53,-0.51 -1.47,-0.69 -1.36,-0.86 -1.26,-1.02 -1.11,-1.16 -0.97,-1.30 -0.80,-1.39 -0.63,-1.49 -0.44,-1.55 -0.26,-1.60 -0.06,-1.61 0.13,-1.62 0.32,-1.58 0.51,-1.54 0.51,-1.54 L 0.51,-1.54 Z"></path></g><g transform="translate(497 1133) rotate(0 209.8000030517578 37.5)"><text x="0" y="17.52" font-family="Virgil, Segoe UI Emoji" font-size="20px" fill="#1e1e1e" text-anchor="start" style="white-space: pre;" direction="ltr" dominant-baseline="alphabetic">need to sort all render commands such</text><text x="0" y="42.519999999999996" font-family="Virgil, Segoe UI Emoji" font-size="20px" fill="#1e1e1e" text-anchor="start" style="white-space: pre;" direction="ltr" dominant-baseline="alphabetic">that proper state switches are performed</text><text x="0" y="67.52" font-family="Virgil, Segoe UI Emoji" font-size="20px" fill="#1e1e1e" text-anchor="start" style="white-space: pre;" direction="ltr" dominant-baseline="alphabetic">according to each of these</text></g><g transform="translate(57 1288) rotate(0 206.34165954589844 75)"><text x="0" y="17.52" font-family="Virgil, Segoe UI Emoji" font-size="20px" fill="#1e1e1e" text-anchor="start" style="white-space: pre;" direction="ltr" dominant-baseline="alphabetic"></text><text x="0" y="42.519999999999996" font-family="Virgil, Segoe UI Emoji" font-size="20px" fill="#1e1e1e" text-anchor="start" style="white-space: pre;" direction="ltr" dominant-baseline="alphabetic">    vkCmdSetPolgyonModeEXT(...) {</text><text x="0" y="67.52" font-family="Virgil, Segoe UI Emoji" font-size="20px" fill="#1e1e1e" text-anchor="start" style="white-space: pre;" direction="ltr" dominant-baseline="alphabetic">        vkCmdSetPrimitiveTopology(...); {</text><text x="0" y="92.52" font-family="Virgil, Segoe UI Emoji" font-size="20px" fill="#1e1e1e" text-anchor="start" style="white-space: pre;" direction="ltr" dominant-baseline="alphabetic">            vkCmdDraw(... &lt;instanced&gt; ...);</text><text x="0" y="117.52" font-family="Virgil, Segoe UI Emoji" font-size="20px" fill="#1e1e1e" text-anchor="start" style="white-space: pre;" direction="ltr" dominant-baseline="alphabetic">        }</text><text x="0" y="142.52" font-family="Virgil, Segoe UI Emoji" font-size="20px" fill="#1e1e1e" text-anchor="start" style="white-space: pre;" direction="ltr" dominant-baseline="alphabetic">    }</text></g><g transform="translate(415 1318) rotate(0 92.5 1.5)" stroke="none"><path fill="#1e1e1e" d="M 0.18,-1.59 Q 0.18,-1.59 7.64,-0.68 15.10,0.21 27.30,0.60 39.51,0.99 55.91,1.16 72.30,1.34 90.94,1.42 109.57,1.50 126.13,1.54 142.68,1.58 153.91,1.60 165.14,1.62 170.85,1.63 176.56,1.64 178.98,1.65 181.41,1.66 181.62,1.69 181.84,1.73 182.03,1.83 182.22,1.93 182.37,2.09 182.52,2.24 182.61,2.44 182.70,2.64 182.72,2.85 182.74,3.07 182.70,3.28 182.65,3.49 182.54,3.67 182.43,3.86 182.26,4.00 182.10,4.14 181.90,4.22 181.69,4.30 181.48,4.31 181.26,4.32 181.06,4.26 180.85,4.20 180.67,4.08 180.49,3.96 180.36,3.79 180.23,3.62 180.16,3.41 180.09,3.21 180.09,2.99 180.09,2.77 180.16,2.57 180.23,2.36 180.36,2.19 180.49,2.02 180.67,1.90 180.85,1.78 181.06,1.72 181.27,1.66 181.48,1.68 181.70,1.69 181.90,1.77 182.10,1.85 182.26,1.99 182.43,2.13 182.54,2.31 182.65,2.50 182.70,2.71 182.74,2.92 182.72,3.14 182.70,3.35 182.60,3.55 182.51,3.74 182.36,3.90 182.22,4.06 182.03,4.16 181.83,4.26 181.62,4.29 181.41,4.33 181.41,4.33 181.41,4.33 178.98,4.33 176.56,4.33 170.85,4.33 165.14,4.33 153.91,4.33 142.67,4.33 126.12,4.31 109.56,4.29 90.92,4.24 72.28,4.19 55.85,4.05 39.42,3.92 27.09,3.58 14.75,3.23 7.28,2.41 -0.18,1.59 -0.37,1.54 -0.55,1.50 -0.73,1.41 -0.90,1.32 -1.04,1.19 -1.19,1.06 -1.30,0.91 -1.41,0.75 -1.48,0.57 -1.55,0.39 -1.57,0.20 -1.60,0.00 -1.57,-0.18 -1.55,-0.37 -1.48,-0.55 -1.42,-0.73 -1.31,-0.89 -1.20,-1.05 -1.06,-1.18 -0.91,-1.31 -0.74,-1.40 -0.57,-1.49 -0.38,-1.54 -0.20,-1.58 -0.00,-1.58 0.18,-1.59 0.18,-1.59 L 0.18,-1.59 Z"></path></g><g transform="translate(589 1314) rotate(0 5.5 5.5)" stroke="none"><path fill="#1e1e1e" d="M 0.81,-1.89 Q 0.81,-1.89 2.78,-0.94 4.75,0.01 6.54,1.02 8.32,2.03 9.63,2.65 10.95,3.28 12.68,3.47 14.42,3.66 14.67,3.76 14.91,3.86 15.13,4.01 15.35,4.17 15.53,4.37 15.70,4.57 15.82,4.81 15.95,5.05 16.01,5.31 16.07,5.57 16.06,5.84 16.06,6.10 15.99,6.36 15.93,6.62 15.80,6.86 15.67,7.09 15.49,7.29 15.31,7.49 15.09,7.64 14.87,7.79 14.62,7.88 14.37,7.97 14.10,8.00 13.83,8.03 13.57,8.00 13.30,7.96 12.21,8.50 11.11,9.04 8.88,9.26 6.65,9.48 4.36,10.08 2.07,10.68 0.72,11.07 -0.61,11.46 -1.62,11.75 -2.62,12.04 -2.86,12.06 -3.10,12.09 -3.34,12.06 -3.58,12.03 -3.81,11.94 -4.03,11.85 -4.23,11.71 -4.43,11.57 -4.58,11.39 -4.74,11.21 -4.85,10.99 -4.96,10.78 -5.02,10.54 -5.07,10.30 -5.07,10.06 -5.07,9.82 -5.01,9.59 -4.95,9.35 -4.83,9.14 -4.72,8.93 -4.56,8.75 -4.39,8.57 -4.19,8.43 -3.99,8.30 -3.77,8.21 -3.54,8.13 -3.78,8.22 -4.01,8.31 -3.70,8.21 -3.40,8.10 -3.07,8.10 -2.75,8.11 -2.44,8.21 -2.13,8.32 -1.88,8.51 -1.62,8.71 -1.44,8.98 -1.26,9.25 -1.17,9.56 -1.09,9.88 -1.10,10.20 -1.12,10.52 -1.24,10.82 -1.37,11.12 -1.58,11.37 -1.79,11.62 -2.07,11.78 -2.34,11.95 -2.66,12.02 -2.98,12.09 -3.30,12.05 -3.62,12.01 -3.92,11.88 -4.21,11.74 -4.45,11.52 -4.68,11.29 -4.83,11.00 -4.98,10.72 -5.03,10.40 -5.09,10.08 -5.03,9.76 -4.98,9.44 -4.83,9.15 -4.67,8.86 -4.44,8.64 -4.20,8.42 -3.90,8.28 -3.61,8.15 -3.29,8.12 -2.96,8.08 -2.65,8.15 -2.33,8.22 -2.05,8.39 -1.78,8.56 -1.57,8.81 -1.36,9.06 -1.24,9.36 -1.12,9.66 -1.10,9.99 -1.09,10.31 -1.17,10.62 -1.26,10.93 -1.45,11.20 -1.63,11.47 -2.12,11.75 -2.62,12.04 -2.86,12.06 -3.10,12.09 -3.34,12.06 -3.58,12.03 -3.81,11.94 -4.03,11.85 -4.23,11.71 -4.43,11.57 -4.58,11.39 -4.74,11.21 -4.85,10.99 -4.96,10.78 -5.02,10.54 -5.07,10.30 -5.07,10.06 -5.07,9.82 -5.01,9.59 -4.95,9.35 -4.83,9.14 -4.72,8.93 -4.56,8.75 -4.39,8.57 -4.19,8.43 -3.99,8.30 -3.77,8.21 -3.54,8.13 -2.53,7.87 -1.52,7.62 -0.25,7.39 1.01,7.17 3.52,6.32 6.02,5.48 9.05,5.20 12.09,4.92 13.25,4.29 14.42,3.66 14.67,3.76 14.91,3.86 15.13,4.01 15.35,4.17 15.53,4.37 15.70,4.57 15.82,4.81 15.95,5.05 16.01,5.31 16.07,5.57 16.06,5.84 16.06,6.10 15.99,6.36 15.93,6.62 15.80,6.86 15.67,7.09 15.49,7.29 15.31,7.49 15.09,7.64 14.87,7.79 14.62,7.88 14.37,7.97 14.10,8.00 13.83,8.03 13.57,8.00 13.30,7.96 12.56,7.77 11.81,7.57 10.49,7.12 9.18,6.68 7.89,5.93 6.59,5.18 4.94,4.31 3.29,3.43 1.23,2.66 -0.81,1.89 -1.02,1.76 -1.24,1.64 -1.42,1.47 -1.59,1.30 -1.73,1.08 -1.86,0.87 -1.94,0.64 -2.02,0.40 -2.03,0.16 -2.05,-0.08 -2.01,-0.33 -1.97,-0.57 -1.88,-0.80 -1.78,-1.03 -1.63,-1.23 -1.48,-1.43 -1.29,-1.58 -1.09,-1.74 -0.87,-1.85 -0.64,-1.95 -0.40,-2.00 -0.16,-2.05 0.08,-2.04 0.33,-2.03 0.57,-1.96 0.81,-1.89 0.81,-1.89 L 0.81,-1.89 Z"></path></g><g transform="translate(630 1309) rotate(0 21.5 9.5)" stroke="none"><path fill="#1e1e1e" d="M -0.44,-2.00 Q -0.44,-2.00 2.16,-2.48 4.77,-2.95 8.02,-3.15 11.26,-3.34 14.93,-3.39 18.59,-3.44 23.08,-3.16 27.56,-2.87 30.43,-2.15 33.30,-1.42 34.89,-0.89 36.48,-0.35 37.55,0.78 38.61,1.92 38.43,3.54 38.24,5.15 36.97,6.38 35.70,7.62 32.03,8.57 28.37,9.53 25.10,9.85 21.83,10.18 19.30,10.28 16.77,10.39 15.71,9.20 14.66,8.01 18.23,8.62 21.79,9.22 25.98,10.16 30.16,11.10 33.42,12.10 36.68,13.11 38.91,13.83 41.14,14.56 42.82,15.60 44.50,16.64 44.29,18.32 44.07,20.01 42.68,20.72 41.29,21.44 36.81,21.53 32.32,21.62 28.20,21.61 24.08,21.60 20.03,21.58 15.98,21.55 13.19,21.81 10.39,22.06 8.58,22.24 6.76,22.41 5.39,22.56 4.03,22.70 2.64,22.50 1.24,22.30 -0.89,20.22 -3.03,18.14 -2.96,17.82 -2.89,17.50 -2.72,17.22 -2.55,16.94 -2.30,16.73 -2.05,16.52 -1.74,16.40 -1.44,16.28 -1.11,16.27 -0.78,16.25 -0.47,16.34 -0.15,16.43 0.11,16.62 0.38,16.80 0.58,17.06 0.78,17.33 0.88,17.64 0.98,17.95 0.98,18.28 0.98,18.60 0.87,18.91 0.77,19.22 0.57,19.48 0.37,19.74 0.09,19.93 -0.17,20.11 -0.49,20.20 -0.80,20.28 -1.13,20.26 -1.46,20.24 -1.76,20.12 -2.07,20.00 -2.31,19.78 -2.56,19.57 -2.73,19.29 -2.90,19.01 -2.97,18.68 -3.04,18.36 -3.00,18.04 -2.96,17.71 -2.82,17.42 -2.68,17.12 -2.46,16.88 -2.23,16.64 -1.94,16.49 -1.65,16.34 -1.32,16.29 -1.00,16.24 -0.68,16.29 -0.35,16.35 -0.06,16.50 0.21,16.66 0.44,16.90 0.66,17.14 0.80,17.44 0.94,17.73 0.97,18.06 1.00,18.39 1.00,18.39 1.00,18.39 2.46,18.76 3.92,19.13 5.23,19.17 6.53,19.21 8.31,19.12 10.08,19.04 13.02,18.70 15.96,18.36 19.99,18.28 24.03,18.20 28.11,18.07 32.19,17.93 36.23,17.66 40.26,17.39 38.03,16.74 35.81,16.08 32.65,15.19 29.48,14.30 25.31,13.49 21.14,12.67 17.23,11.86 13.31,11.04 12.77,9.95 12.22,8.86 14.39,7.99 16.55,7.12 18.98,6.91 21.41,6.69 24.39,6.26 27.37,5.82 30.30,4.99 33.23,4.15 34.23,3.40 35.22,2.65 33.91,2.03 32.59,1.41 29.99,0.78 27.38,0.15 23.03,-0.04 18.69,-0.24 15.11,-0.09 11.53,0.06 8.55,0.36 5.57,0.65 3.00,1.33 0.44,2.00 0.19,2.02 -0.04,2.04 -0.29,2.01 -0.53,1.97 -0.76,1.88 -0.99,1.79 -1.19,1.64 -1.39,1.50 -1.55,1.31 -1.71,1.12 -1.82,0.90 -1.93,0.68 -1.98,0.44 -2.04,0.20 -2.03,-0.04 -2.02,-0.29 -1.96,-0.53 -1.89,-0.77 -1.77,-0.98 -1.65,-1.20 -1.49,-1.38 -1.32,-1.56 -1.11,-1.70 -0.91,-1.83 -0.67,-1.91 -0.44,-2.00 -0.44,-2.00 L -0.44,-2.00 Z"></path></g><g transform="translate(493 1349) rotate(0 119.5 0)" stroke="none"><path fill="#1e1e1e" d="M 0,-1.56 Q 0,-1.56 4.02,-1.53 8.04,-1.49 10.91,-1.47 13.77,-1.44 15.84,-1.44 17.92,-1.43 23.98,-1.41 30.04,-1.40 37.21,-1.38 44.39,-1.37 53.48,-1.36 62.56,-1.35 73.32,-1.35 84.09,-1.34 95.56,-1.34 107.03,-1.33 116.80,-1.33 126.56,-1.33 134.45,-1.32 142.34,-1.32 149.71,-1.32 157.09,-1.32 167.99,-1.32 178.89,-1.32 191.28,-1.31 203.67,-1.31 211.82,-1.31 219.96,-1.31 224.86,-1.31 229.75,-1.31 232.12,-1.31 234.49,-1.31 236.34,-1.41 238.18,-1.51 238.42,-1.47 238.67,-1.43 238.88,-1.32 239.10,-1.20 239.27,-1.02 239.44,-0.84 239.54,-0.62 239.64,-0.40 239.67,-0.16 239.69,0.08 239.64,0.32 239.59,0.56 239.46,0.77 239.34,0.98 239.15,1.13 238.96,1.29 238.73,1.38 238.51,1.47 238.26,1.49 238.02,1.50 237.78,1.43 237.55,1.37 237.34,1.23 237.14,1.09 236.99,0.90 236.84,0.70 236.77,0.47 236.69,0.24 236.69,-0.00 236.69,-0.24 236.77,-0.47 236.84,-0.70 236.99,-0.90 237.14,-1.09 237.34,-1.23 237.55,-1.37 237.78,-1.43 238.02,-1.50 238.26,-1.49 238.51,-1.47 238.74,-1.38 238.96,-1.29 239.15,-1.13 239.34,-0.98 239.46,-0.77 239.59,-0.56 239.64,-0.32 239.69,-0.08 239.67,0.16 239.64,0.40 239.54,0.62 239.43,0.85 239.27,1.02 239.10,1.20 238.88,1.32 238.66,1.43 238.42,1.47 238.18,1.51 238.18,1.51 238.18,1.51 236.34,1.41 234.49,1.31 232.12,1.31 229.75,1.31 224.86,1.31 219.96,1.31 211.82,1.31 203.67,1.31 191.28,1.31 178.89,1.32 167.99,1.32 157.09,1.32 149.71,1.32 142.34,1.32 134.45,1.32 126.56,1.33 116.80,1.33 107.03,1.33 95.56,1.34 84.09,1.34 73.32,1.35 62.56,1.35 53.48,1.36 44.39,1.37 37.21,1.38 30.04,1.40 23.98,1.41 17.92,1.43 15.84,1.44 13.77,1.44 10.91,1.47 8.04,1.49 4.02,1.53 0,1.56 -0.18,1.54 -0.37,1.52 -0.55,1.45 -0.72,1.38 -0.88,1.28 -1.03,1.17 -1.16,1.03 -1.29,0.89 -1.37,0.72 -1.46,0.55 -1.51,0.37 -1.55,0.18 -1.55,-0.00 -1.55,-0.18 -1.51,-0.37 -1.46,-0.55 -1.37,-0.72 -1.29,-0.89 -1.16,-1.03 -1.03,-1.17 -0.88,-1.28 -0.72,-1.38 -0.55,-1.45 -0.37,-1.52 -0.18,-1.54 0.00,-1.56 0.00,-1.56 L 0,-1.56 Z"></path></g><g transform="translate(711 1339) rotate(0 13 7.5)" stroke="none"><path fill="#1e1e1e" d="M 0,-1.89 Q 0,-1.89 2.01,-1.84 4.02,-1.79 6.97,-1.44 9.92,-1.08 12.53,-0.91 15.14,-0.74 18.12,-0.07 21.10,0.60 23.20,1.19 25.30,1.78 27.20,2.42 29.10,3.07 28.74,4.54 28.38,6.01 25.08,6.62 21.77,7.24 17.41,8.45 13.05,9.66 10.67,10.71 8.30,11.75 5.52,13.06 2.75,14.36 1.26,15.03 -0.22,15.70 -1.37,16.46 -2.51,17.22 -2.79,17.33 -3.06,17.43 -3.35,17.44 -3.64,17.45 -3.92,17.37 -4.20,17.29 -4.44,17.12 -4.68,16.95 -4.86,16.72 -5.03,16.48 -5.12,16.21 -5.21,15.93 -5.20,15.64 -5.20,15.34 -5.10,15.07 -5.00,14.79 -4.82,14.56 -4.64,14.33 -4.40,14.17 -4.16,14.01 -3.87,13.94 -3.59,13.86 -3.30,13.88 -3.01,13.91 -2.74,14.02 -2.47,14.13 -2.25,14.32 -2.03,14.51 -1.88,14.77 -1.74,15.02 -1.68,15.31 -1.62,15.59 -1.65,15.88 -1.69,16.17 -1.82,16.43 -1.94,16.70 -2.15,16.91 -2.35,17.12 -2.61,17.25 -2.87,17.38 -3.16,17.42 -3.45,17.47 -3.74,17.42 -4.02,17.36 -4.28,17.22 -4.54,17.08 -4.73,16.87 -4.93,16.65 -5.05,16.39 -5.17,16.12 -5.20,15.83 -5.22,15.54 -5.16,15.25 -5.09,14.97 -4.94,14.72 -4.78,14.47 -4.56,14.29 -4.33,14.10 -4.33,14.10 -4.33,14.10 -2.88,13.36 -1.43,12.61 0.00,12.14 1.44,11.66 4.22,10.28 6.99,8.90 9.56,7.69 12.12,6.48 16.67,5.09 21.23,3.70 24.35,3.26 27.48,2.83 26.02,3.70 24.55,4.58 22.50,4.06 20.45,3.53 17.72,2.96 14.99,2.38 12.29,2.31 9.59,2.23 6.80,2.01 4.02,1.79 2.01,1.84 0,1.89 -0.22,1.86 -0.45,1.84 -0.66,1.76 -0.88,1.67 -1.06,1.55 -1.25,1.42 -1.40,1.24 -1.56,1.07 -1.66,0.87 -1.77,0.67 -1.82,0.45 -1.88,0.22 -1.88,-0.00 -1.88,-0.22 -1.82,-0.45 -1.77,-0.67 -1.66,-0.87 -1.56,-1.07 -1.40,-1.24 -1.25,-1.42 -1.06,-1.55 -0.88,-1.68 -0.66,-1.76 -0.45,-1.84 -0.22,-1.86 0.00,-1.89 0.00,-1.89 L 0,-1.89 Z"></path></g><g transform="translate(759 1334) rotate(0 25.5 13)" stroke="none"><path fill="#1e1e1e" d="M 0,-1.85 Q 0,-1.85 3.44,-1.78 6.89,-1.71 9.51,-1.65 12.13,-1.60 16.50,-0.98 20.88,-0.36 22.97,-0.09 25.06,0.17 26.84,0.66 28.62,1.14 29.68,2.83 30.73,4.52 30.51,6.46 30.28,8.41 28.76,10.25 27.23,12.09 24.93,13.15 22.62,14.20 20.13,14.60 17.63,15.00 15.44,15.14 13.25,15.27 11.16,15.33 9.08,15.39 7.92,15.53 6.77,15.68 6.56,15.66 6.35,15.64 6.16,15.57 5.96,15.51 5.78,15.39 5.61,15.28 5.46,15.13 5.32,14.98 5.22,14.80 5.12,14.62 5.06,14.42 5.00,14.22 5.00,14.01 4.99,13.80 5.03,13.60 5.07,13.39 5.16,13.21 5.25,13.02 5.39,12.86 5.52,12.70 5.69,12.57 5.85,12.45 6.05,12.37 6.24,12.29 6.44,12.26 6.65,12.23 10.26,13.33 13.87,14.43 20.54,15.32 27.21,16.21 33.29,17.48 39.37,18.75 42.48,19.29 45.59,19.83 47.47,20.41 49.34,20.99 50.18,22.22 51.01,23.44 50.54,24.64 50.08,25.83 48.54,26.32 47.01,26.82 44.97,26.83 42.93,26.85 39.50,26.79 36.06,26.73 31.15,26.68 26.24,26.63 21.86,26.59 17.48,26.55 13.95,26.80 10.42,27.05 7.00,27.35 3.58,27.64 3.31,27.61 3.03,27.58 2.78,27.46 2.52,27.34 2.32,27.15 2.12,26.96 1.99,26.71 1.86,26.46 1.82,26.19 1.77,25.91 1.82,25.64 1.86,25.36 2.00,25.12 2.13,24.87 2.33,24.68 2.53,24.49 2.79,24.37 3.04,24.26 3.32,24.23 3.59,24.20 3.86,24.26 4.14,24.32 4.38,24.46 4.61,24.61 4.79,24.82 4.97,25.03 5.08,25.29 5.18,25.55 5.19,25.83 5.21,26.11 5.13,26.38 5.06,26.65 4.90,26.88 4.74,27.11 4.52,27.27 4.30,27.44 4.03,27.53 3.77,27.62 3.49,27.62 3.21,27.62 2.95,27.53 2.68,27.44 2.46,27.27 2.24,27.10 2.09,26.87 1.93,26.64 1.86,26.37 1.78,26.10 1.80,25.82 1.81,25.54 1.92,25.28 2.02,25.03 2.20,24.81 2.38,24.60 2.62,24.46 2.86,24.32 3.13,24.26 3.41,24.20 3.41,24.20 3.41,24.20 6.79,24.14 10.18,24.08 13.83,23.76 17.47,23.43 21.85,23.38 26.24,23.33 31.13,23.26 36.03,23.18 39.42,23.07 42.81,22.96 45.33,23.23 47.85,23.49 46.49,23.05 45.12,22.61 41.95,22.10 38.79,21.59 32.81,20.39 26.82,19.19 19.99,18.34 13.16,17.49 9.96,16.58 6.77,15.68 6.56,15.66 6.35,15.64 6.16,15.57 5.96,15.51 5.78,15.39 5.61,15.28 5.46,15.13 5.32,14.98 5.22,14.80 5.12,14.62 5.06,14.42 5.00,14.22 5.00,14.01 4.99,13.80 5.03,13.60 5.07,13.39 5.16,13.21 5.25,13.02 5.39,12.86 5.52,12.70 5.69,12.57 5.85,12.45 6.05,12.37 6.24,12.29 6.44,12.26 6.65,12.23 7.81,12.31 8.98,12.39 10.99,12.31 13.01,12.23 15.05,12.04 17.10,11.84 19.16,11.47 21.23,11.09 22.89,10.33 24.55,9.57 25.59,8.47 26.62,7.38 26.82,5.54 27.02,3.70 25.87,3.39 24.71,3.09 22.59,2.87 20.47,2.66 16.30,2.13 12.13,1.60 9.51,1.65 6.89,1.71 3.44,1.78 0,1.85 -0.22,1.82 -0.44,1.80 -0.65,1.72 -0.86,1.64 -1.04,1.51 -1.23,1.38 -1.37,1.22 -1.52,1.05 -1.63,0.85 -1.73,0.65 -1.78,0.44 -1.84,0.22 -1.84,-0.00 -1.84,-0.22 -1.78,-0.44 -1.73,-0.65 -1.63,-0.85 -1.52,-1.05 -1.37,-1.22 -1.23,-1.38 -1.04,-1.51 -0.86,-1.64 -0.65,-1.72 -0.44,-1.80 -0.22,-1.82 0.00,-1.85 0.00,-1.85 L 0,-1.85 Z"></path></g><g transform="translate(473 1379) rotate(0 94.5 16)" stroke="none"><path fill="#1e1e1e" d="M 0.15,-1.59 Q 0.15,-1.59 3.03,-1.26 5.90,-0.94 16.39,1.23 26.88,3.40 41.95,6.63 57.02,9.86 76.06,13.54 95.09,17.21 117.84,21.08 140.58,24.94 154.24,26.58 167.91,28.23 174.01,28.93 180.12,29.63 182.71,29.93 185.31,30.23 185.52,30.29 185.72,30.35 185.90,30.47 186.08,30.59 186.21,30.77 186.34,30.94 186.41,31.14 186.48,31.35 186.47,31.56 186.47,31.78 186.40,31.98 186.33,32.19 186.20,32.36 186.07,32.53 185.89,32.65 185.71,32.77 185.50,32.83 185.29,32.89 185.08,32.87 184.86,32.86 184.66,32.78 184.46,32.70 184.30,32.56 184.13,32.42 184.02,32.23 183.91,32.05 183.87,31.83 183.82,31.62 183.85,31.41 183.87,31.19 183.96,31.00 184.06,30.80 184.20,30.65 184.35,30.49 184.55,30.39 184.74,30.29 184.95,30.26 185.16,30.22 185.38,30.26 185.59,30.29 185.78,30.40 185.97,30.50 186.12,30.66 186.27,30.81 186.36,31.01 186.45,31.21 186.47,31.42 186.49,31.64 186.44,31.85 186.39,32.06 186.28,32.24 186.17,32.43 186.00,32.57 185.84,32.71 185.64,32.78 185.44,32.86 185.22,32.87 185.01,32.88 185.01,32.88 185.01,32.88 182.41,32.59 179.81,32.30 173.70,31.61 167.58,30.92 153.85,29.28 140.12,27.65 117.34,23.80 94.57,19.95 75.50,16.30 56.43,12.65 41.36,9.46 26.29,6.28 15.94,4.18 5.59,2.09 2.71,1.84 -0.15,1.59 -0.34,1.55 -0.53,1.50 -0.70,1.42 -0.88,1.33 -1.02,1.21 -1.17,1.08 -1.28,0.93 -1.40,0.77 -1.47,0.59 -1.54,0.41 -1.57,0.22 -1.60,0.03 -1.58,-0.15 -1.56,-0.35 -1.49,-0.53 -1.43,-0.71 -1.32,-0.87 -1.22,-1.03 -1.07,-1.16 -0.93,-1.29 -0.76,-1.39 -0.59,-1.48 -0.41,-1.53 -0.22,-1.58 -0.03,-1.58 0.15,-1.59 0.15,-1.59 L 0.15,-1.59 Z"></path></g><g transform="translate(643 1400) rotate(0 4 8.5)" stroke="none"><path fill="#1e1e1e" d="M 0.67,-1.56 Q 0.67,-1.56 2.66,-0.65 4.65,0.25 6.92,1.23 9.18,2.20 11.58,3.20 13.98,4.20 16.43,5.20 18.88,6.21 20.55,6.88 22.22,7.54 22.65,7.76 23.09,7.98 23.26,8.09 23.44,8.19 23.59,8.34 23.74,8.48 23.84,8.66 23.95,8.83 24.02,9.03 24.08,9.22 24.09,9.43 24.11,9.63 24.07,9.84 24.04,10.04 23.96,10.23 23.87,10.42 23.75,10.58 23.62,10.75 23.46,10.87 23.30,11.00 23.12,11.09 22.93,11.18 22.73,11.22 22.52,11.26 22.32,11.25 22.11,11.24 21.91,11.18 21.72,11.12 19.77,11.48 17.82,11.84 14.17,12.28 10.52,12.73 5.59,13.76 0.66,14.80 -2.29,15.52 -5.26,16.24 -7.68,16.83 -10.09,17.43 -12.42,17.91 -14.74,18.40 -15.00,18.40 -15.25,18.39 -15.49,18.31 -15.74,18.23 -15.94,18.07 -16.14,17.92 -16.28,17.70 -16.43,17.49 -16.49,17.25 -16.56,17.00 -16.55,16.74 -16.53,16.49 -16.44,16.25 -16.34,16.01 -16.17,15.82 -16.01,15.62 -15.79,15.49 -15.57,15.36 -15.32,15.31 -15.07,15.25 -14.81,15.28 -14.56,15.31 -14.33,15.42 -14.09,15.53 -13.91,15.71 -13.72,15.88 -13.61,16.11 -13.49,16.34 -13.45,16.59 -13.41,16.84 -13.45,17.09 -13.49,17.35 -13.61,17.57 -13.73,17.80 -13.92,17.97 -14.11,18.15 -14.34,18.25 -14.57,18.36 -14.83,18.39 -15.08,18.41 -15.33,18.36 -15.58,18.30 -15.80,18.17 -16.02,18.04 -16.18,17.84 -16.35,17.64 -16.44,17.41 -16.53,17.17 -16.55,16.91 -16.56,16.66 -16.49,16.41 -16.42,16.16 -16.28,15.95 -16.13,15.74 -15.93,15.59 -15.72,15.43 -15.48,15.35 -15.24,15.27 -15.24,15.27 -15.24,15.27 -12.99,15.03 -10.75,14.79 -8.33,14.18 -5.92,13.57 -2.92,12.81 0.07,12.06 5.12,10.97 10.16,9.89 13.74,9.41 17.32,8.92 20.20,8.45 23.09,7.98 23.26,8.09 23.44,8.19 23.59,8.34 23.74,8.48 23.84,8.66 23.95,8.83 24.02,9.03 24.08,9.22 24.09,9.43 24.11,9.63 24.07,9.84 24.04,10.04 23.96,10.23 23.87,10.42 23.75,10.58 23.62,10.75 23.46,10.87 23.30,11.00 23.12,11.09 22.93,11.18 22.73,11.22 22.52,11.26 22.32,11.25 22.11,11.24 21.91,11.18 21.72,11.12 21.34,10.74 20.97,10.36 19.40,9.60 17.82,8.85 15.35,7.88 12.88,6.91 10.45,5.96 8.03,5.01 5.71,4.10 3.39,3.19 1.36,2.37 -0.67,1.56 -0.84,1.46 -1.02,1.35 -1.17,1.21 -1.32,1.07 -1.43,0.89 -1.53,0.72 -1.60,0.53 -1.66,0.33 -1.68,0.13 -1.70,-0.07 -1.66,-0.27 -1.63,-0.47 -1.55,-0.66 -1.47,-0.85 -1.34,-1.01 -1.22,-1.18 -1.06,-1.31 -0.90,-1.44 -0.72,-1.52 -0.53,-1.61 -0.33,-1.65 -0.13,-1.69 0.07,-1.68 0.27,-1.67 0.47,-1.62 0.67,-1.56 0.67,-1.56 L 0.67,-1.56 Z"></path></g><g transform="translate(691 1398) rotate(0 13.5 10)" stroke="none"><path fill="#1e1e1e" d="M 1.82,0.60 Q 1.82,0.60 1.24,2.32 0.66,4.03 0.38,7.12 0.10,10.21 -0.05,13.03 -0.21,15.84 -0.22,17.62 -0.24,19.40 -0.15,20.45 -0.07,21.49 -0.11,21.72 -0.14,21.95 -0.23,22.16 -0.31,22.37 -0.45,22.55 -0.58,22.74 -0.76,22.89 -0.93,23.03 -1.13,23.13 -1.34,23.24 -1.56,23.28 -1.79,23.33 -2.01,23.33 -2.24,23.32 -2.46,23.26 -2.68,23.20 -2.88,23.09 -3.08,22.98 -3.25,22.82 -3.42,22.67 -3.54,22.48 -3.67,22.29 -3.74,22.07 -3.82,21.86 -3.84,21.63 -3.86,21.40 -3.88,19.39 -3.90,17.39 -3.82,15.26 -3.74,13.14 -3.70,11.08 -3.66,9.03 -3.70,7.29 -3.74,5.56 -3.79,3.96 -3.84,2.36 -3.29,0.33 -2.74,-1.68 -1.30,-2.19 0.13,-2.69 2.83,-1.48 5.54,-0.27 8.50,1.41 11.47,3.10 14.54,5.63 17.62,8.17 20.85,10.65 24.08,13.12 25.65,14.46 27.22,15.79 28.11,15.73 28.99,15.68 29.14,15.82 29.28,15.97 29.38,16.14 29.49,16.32 29.55,16.52 29.61,16.71 29.62,16.92 29.63,17.12 29.59,17.32 29.56,17.52 29.47,17.71 29.39,17.89 29.26,18.05 29.13,18.21 28.97,18.34 28.81,18.46 28.62,18.55 28.43,18.63 28.23,18.67 28.03,18.70 27.83,18.69 27.62,18.67 27.43,18.61 27.23,18.55 27.06,18.44 26.88,18.34 26.32,16.39 25.75,14.44 25.13,12.17 24.51,9.90 23.68,7.18 22.85,4.47 22.17,2.79 21.49,1.11 21.00,-0.39 20.50,-1.90 20.47,-2.18 20.45,-2.45 20.51,-2.73 20.57,-3.00 20.71,-3.24 20.86,-3.48 21.07,-3.66 21.29,-3.84 21.55,-3.94 21.81,-4.04 22.09,-4.06 22.37,-4.07 22.63,-3.99 22.90,-3.92 23.13,-3.76 23.36,-3.60 23.53,-3.38 23.70,-3.15 23.79,-2.89 23.88,-2.62 23.88,-2.34 23.87,-2.06 23.78,-1.80 23.69,-1.54 23.52,-1.31 23.35,-1.09 23.12,-0.94 22.89,-0.78 22.62,-0.71 22.35,-0.63 22.07,-0.65 21.79,-0.67 21.53,-0.77 21.27,-0.88 21.06,-1.06 20.85,-1.24 20.70,-1.48 20.56,-1.72 20.50,-1.99 20.44,-2.27 20.48,-2.54 20.51,-2.82 20.63,-3.08 20.74,-3.33 20.94,-3.53 21.13,-3.73 21.38,-3.86 21.63,-3.99 21.90,-4.04 22.18,-4.08 22.45,-4.03 22.73,-3.99 22.98,-3.86 23.22,-3.72 23.41,-3.52 23.61,-3.32 23.72,-3.06 23.84,-2.81 23.84,-2.81 23.84,-2.81 24.14,-1.40 24.44,0.00 25.07,1.78 25.71,3.56 26.62,6.28 27.52,9.00 28.26,12.34 28.99,15.68 29.14,15.82 29.28,15.97 29.38,16.14 29.49,16.32 29.55,16.52 29.61,16.71 29.62,16.92 29.63,17.12 29.59,17.32 29.56,17.52 29.47,17.71 29.39,17.89 29.26,18.05 29.13,18.21 28.97,18.34 28.81,18.46 28.62,18.55 28.43,18.63 28.23,18.67 28.03,18.70 27.83,18.69 27.62,18.67 27.43,18.61 27.23,18.55 27.06,18.44 26.89,18.34 26.34,18.30 25.80,18.26 24.01,16.93 22.22,15.60 18.89,13.16 15.56,10.72 12.68,8.45 9.79,6.18 6.85,4.68 3.90,3.18 1.87,2.77 -0.15,2.36 -0.20,3.96 -0.25,5.56 -0.29,7.29 -0.33,9.03 -0.28,11.08 -0.24,13.13 -0.16,15.26 -0.08,17.38 -0.08,19.44 -0.07,21.49 -0.11,21.72 -0.14,21.95 -0.23,22.16 -0.31,22.37 -0.45,22.55 -0.58,22.74 -0.76,22.89 -0.93,23.03 -1.13,23.13 -1.34,23.24 -1.56,23.28 -1.79,23.33 -2.01,23.33 -2.24,23.32 -2.46,23.26 -2.68,23.20 -2.88,23.09 -3.08,22.98 -3.25,22.82 -3.42,22.67 -3.54,22.48 -3.67,22.29 -3.74,22.07 -3.82,21.86 -3.84,21.63 -3.86,21.40 -3.74,20.36 -3.62,19.31 -3.55,17.52 -3.47,15.72 -3.43,12.84 -3.38,9.96 -3.17,6.41 -2.96,2.86 -2.39,1.12 -1.82,-0.60 -1.73,-0.81 -1.63,-1.03 -1.48,-1.21 -1.33,-1.39 -1.15,-1.53 -0.96,-1.66 -0.75,-1.76 -0.53,-1.85 -0.30,-1.88 -0.07,-1.92 0.15,-1.90 0.38,-1.88 0.60,-1.81 0.82,-1.74 1.02,-1.61 1.21,-1.49 1.38,-1.32 1.54,-1.15 1.65,-0.95 1.77,-0.75 1.83,-0.53 1.90,-0.31 1.91,-0.07 1.92,0.15 1.87,0.38 1.82,0.61 1.82,0.60 L 1.82,0.60 Z"></path></g><g transform="translate(813 1292) rotate(0 28 67)" stroke="none"><path fill="#1e1e1e" d="M -0.26,-1.60 Q -0.26,-1.60 1.53,-1.91 3.34,-2.23 5.38,-1.44 7.43,-0.65 9.19,1.33 10.95,3.32 13.05,6.16 15.14,8.99 17.25,14.08 19.35,19.17 21.62,24.11 23.89,29.05 26.30,34.34 28.70,39.62 30.59,44.19 32.47,48.75 34.39,52.35 36.31,55.95 37.99,58.93 39.66,61.90 41.73,64.22 43.81,66.53 45.00,67.76 46.20,68.99 47.82,69.37 49.44,69.75 50.74,69.37 52.05,69.00 52.60,66.54 53.15,64.08 51.27,65.29 49.40,66.49 47.75,69.62 46.11,72.74 44.79,76.64 43.47,80.53 42.01,85.37 40.56,90.21 39.65,94.52 38.75,98.82 38.36,103.18 37.97,107.54 37.80,110.84 37.62,114.14 37.54,116.41 37.46,118.67 37.71,120.68 37.96,122.70 38.19,123.90 38.43,125.09 38.68,126.89 38.94,128.69 38.34,130.35 37.74,132.02 37.19,133.02 36.63,134.03 35.61,134.98 34.59,135.93 33.32,136.45 32.05,136.96 29.63,137.62 27.22,138.29 25.41,138.32 23.60,138.35 21.70,138.30 19.79,138.25 17.68,137.88 15.56,137.51 13.42,136.67 11.28,135.84 9.98,135.63 8.67,135.42 6.84,134.86 5.02,134.30 4.71,134.13 4.40,133.96 4.17,133.70 3.93,133.45 3.78,133.13 3.64,132.81 3.61,132.46 3.57,132.11 3.65,131.77 3.73,131.43 3.92,131.13 4.10,130.83 4.37,130.61 4.64,130.39 4.97,130.26 5.29,130.13 5.64,130.12 5.99,130.11 6.33,130.20 6.67,130.30 6.95,130.50 7.24,130.70 7.45,130.98 7.66,131.26 7.77,131.60 7.87,131.93 7.87,132.28 7.87,132.63 7.75,132.96 7.63,133.29 7.42,133.57 7.20,133.84 6.91,134.04 6.62,134.23 6.28,134.32 5.94,134.41 5.59,134.39 5.24,134.36 4.92,134.23 4.60,134.09 4.33,133.86 4.07,133.63 3.89,133.33 3.71,133.03 3.64,132.69 3.57,132.34 3.61,132.00 3.66,131.65 3.81,131.33 3.96,131.02 4.20,130.77 4.45,130.51 4.76,130.35 5.07,130.19 5.41,130.14 5.76,130.09 6.11,130.15 6.45,130.21 6.45,130.21 6.45,130.21 7.98,130.83 9.50,131.44 11.03,131.82 12.55,132.19 14.36,132.74 16.17,133.29 17.95,133.47 19.72,133.65 21.56,133.54 23.39,133.43 25.92,133.24 28.46,133.05 29.55,132.64 30.65,132.23 31.78,131.89 32.92,131.54 33.95,130.07 34.99,128.61 35.11,127.00 35.24,125.39 35.25,124.21 35.27,123.03 35.00,120.81 34.73,118.59 34.79,116.30 34.85,114.01 34.99,110.66 35.14,107.30 35.51,102.77 35.89,98.24 36.77,93.80 37.65,89.36 39.05,84.45 40.45,79.54 41.78,75.36 43.11,71.19 45.00,67.51 46.90,63.83 49.50,61.69 52.10,59.56 53.71,60.06 55.31,60.57 55.87,62.42 56.43,64.27 56.16,66.86 55.89,69.45 54.42,70.72 52.95,71.99 50.86,72.29 48.78,72.59 46.51,71.85 44.23,71.11 43.02,69.71 41.81,68.31 39.57,65.77 37.32,63.24 35.62,60.24 33.91,57.23 31.92,53.52 29.93,49.81 28.04,45.30 26.15,40.79 23.71,35.53 21.28,30.27 18.95,25.29 16.61,20.31 14.63,15.58 12.66,10.85 10.57,8.17 8.49,5.49 7.17,3.97 5.85,2.46 4.70,1.77 3.55,1.08 1.91,1.34 0.26,1.60 0.07,1.61 -0.12,1.62 -0.31,1.58 -0.50,1.54 -0.68,1.46 -0.86,1.37 -1.01,1.25 -1.16,1.13 -1.28,0.97 -1.40,0.81 -1.48,0.63 -1.55,0.45 -1.59,0.26 -1.62,0.07 -1.60,-0.12 -1.59,-0.31 -1.53,-0.50 -1.47,-0.69 -1.36,-0.85 -1.26,-1.02 -1.12,-1.15 -0.98,-1.29 -0.81,-1.39 -0.64,-1.49 -0.45,-1.54 -0.26,-1.60 -0.26,-1.60 L -0.26,-1.60 Z"></path></g><g transform="translate(935 1341) rotate(0 -18 20)" stroke="none"><path fill="#1e1e1e" d="M -0.87,1.74 Q -0.87,1.74 -2.05,1.23 -3.22,0.71 -4.33,0.59 -5.44,0.47 -6.79,0.68 -8.14,0.89 -10.39,1.67 -12.63,2.45 -15.14,3.35 -17.65,4.24 -20.17,5.17 -22.68,6.10 -25.13,7.31 -27.58,8.51 -28.96,9.16 -30.34,9.82 -31.42,10.40 -32.50,10.98 -32.72,12.44 -32.95,13.90 -32.58,15.12 -32.20,16.35 -31.67,17.47 -31.14,18.59 -29.02,18.69 -26.91,18.79 -24.88,18.35 -22.85,17.92 -20.58,16.95 -18.31,15.99 -16.37,15.25 -14.43,14.51 -12.49,13.68 -10.56,12.85 -9.58,12.15 -8.60,11.46 -8.50,9.80 -8.40,8.15 -8.46,6.69 -8.53,5.23 -8.61,4.02 -8.69,2.80 -8.65,2.48 -8.61,2.16 -8.49,1.86 -8.37,1.56 -8.18,1.29 -8.00,1.03 -7.75,0.81 -7.51,0.60 -7.22,0.45 -6.93,0.31 -6.61,0.23 -6.30,0.16 -5.97,0.16 -5.65,0.16 -5.33,0.24 -5.02,0.32 -4.73,0.48 -4.45,0.63 -4.21,0.85 -3.97,1.07 -3.79,1.34 -3.60,1.60 -3.49,1.91 -3.38,2.21 -3.34,2.54 -3.31,2.86 -2.42,5.69 -1.52,8.51 -1.39,13.62 -1.26,18.73 -1.26,22.25 -1.27,25.77 -1.30,28.13 -1.34,30.49 -1.37,32.65 -1.41,34.81 -1.32,38.07 -1.24,41.33 -1.28,41.62 -1.33,41.90 -1.46,42.15 -1.59,42.40 -1.80,42.60 -2.00,42.79 -2.26,42.91 -2.52,43.03 -2.80,43.07 -3.09,43.10 -3.37,43.04 -3.64,42.98 -3.89,42.83 -4.13,42.69 -4.32,42.47 -4.50,42.25 -4.61,41.99 -4.71,41.72 -4.73,41.44 -4.75,41.16 -4.67,40.88 -4.60,40.61 -4.44,40.37 -4.28,40.13 -4.05,39.96 -3.83,39.79 -3.56,39.70 -3.29,39.60 -3.00,39.60 -2.72,39.60 -2.45,39.69 -2.18,39.78 -1.95,39.95 -1.72,40.13 -1.56,40.36 -1.40,40.60 -1.32,40.87 -1.25,41.15 -1.26,41.43 -1.28,41.71 -1.38,41.98 -1.49,42.24 -1.67,42.46 -1.85,42.68 -2.10,42.83 -2.34,42.97 -2.62,43.04 -2.90,43.10 -3.18,43.07 -3.46,43.04 -3.72,42.92 -3.98,42.80 -4.19,42.60 -4.40,42.41 -4.53,42.16 -4.66,41.91 -4.71,41.63 -4.76,41.35 -4.76,41.35 -4.76,41.35 -4.69,38.09 -4.63,34.83 -4.70,32.69 -4.78,30.55 -4.89,28.21 -5.01,25.87 -5.20,22.40 -5.40,18.92 -5.72,14.32 -6.04,9.72 -6.62,8.04 -7.20,6.35 -7.95,4.58 -8.69,2.80 -8.65,2.48 -8.61,2.16 -8.49,1.86 -8.37,1.56 -8.18,1.29 -8.00,1.03 -7.75,0.81 -7.51,0.60 -7.22,0.45 -6.93,0.31 -6.61,0.23 -6.30,0.16 -5.97,0.16 -5.65,0.16 -5.33,0.24 -5.02,0.32 -4.73,0.48 -4.45,0.63 -4.21,0.85 -3.97,1.07 -3.79,1.34 -3.60,1.60 -3.49,1.91 -3.38,2.21 -3.34,2.54 -3.31,2.86 -3.41,4.09 -3.51,5.32 -3.68,6.94 -3.85,8.57 -4.03,9.64 -4.21,10.71 -4.67,11.87 -5.13,13.03 -5.91,13.77 -6.69,14.51 -7.94,15.15 -9.20,15.79 -11.16,16.76 -13.13,17.73 -14.95,18.51 -16.77,19.29 -19.30,20.55 -21.83,21.81 -24.32,22.55 -26.81,23.29 -29.26,23.30 -31.72,23.31 -33.37,22.25 -35.03,21.19 -35.98,19.47 -36.92,17.74 -37.32,16.33 -37.72,14.91 -37.88,13.33 -38.05,11.75 -37.05,10.15 -36.05,8.54 -35.07,8.01 -34.10,7.47 -32.88,7.01 -31.66,6.56 -30.35,6.12 -29.03,5.68 -26.49,4.32 -23.94,2.95 -21.48,1.89 -19.01,0.83 -16.57,-0.23 -14.12,-1.31 -11.47,-2.46 -8.82,-3.61 -6.77,-3.89 -4.73,-4.16 -3.05,-3.59 -1.37,-3.01 -0.24,-2.38 0.87,-1.74 1.06,-1.61 1.26,-1.48 1.42,-1.31 1.58,-1.14 1.69,-0.93 1.81,-0.72 1.87,-0.50 1.93,-0.27 1.93,-0.03 1.94,0.19 1.89,0.42 1.83,0.65 1.73,0.86 1.62,1.07 1.47,1.25 1.32,1.43 1.13,1.57 0.94,1.71 0.72,1.79 0.50,1.88 0.27,1.91 0.03,1.95 -0.19,1.92 -0.43,1.90 -0.65,1.82 -0.87,1.74 -0.87,1.74 L -0.87,1.74 Z"></path></g><g transform="translate(948 1344) rotate(0 3.5 17.5)" stroke="none"><path fill="#1e1e1e" d="M 1.98,-0.74 Q 1.98,-0.74 2.75,1.59 3.51,3.92 4.13,5.80 4.76,7.67 5.30,11.80 5.84,15.92 6.03,18.21 6.22,20.50 6.36,22.36 6.49,24.21 6.63,25.58 6.76,26.94 6.84,28.39 6.92,29.84 7.74,31.69 8.56,33.54 8.67,33.86 8.77,34.18 8.77,34.51 8.77,34.84 8.66,35.16 8.55,35.48 8.35,35.74 8.15,36.01 7.87,36.19 7.59,36.38 7.27,36.46 6.95,36.55 6.61,36.53 6.28,36.51 5.97,36.38 5.66,36.26 5.41,36.04 5.15,35.82 4.98,35.54 4.81,35.25 4.74,34.92 4.67,34.60 4.71,34.26 4.75,33.93 4.89,33.63 5.04,33.33 5.27,33.09 5.50,32.85 5.79,32.69 6.09,32.54 6.42,32.49 6.75,32.43 7.08,32.49 7.41,32.55 7.70,32.70 8.00,32.86 8.22,33.11 8.45,33.35 8.59,33.66 8.73,33.96 8.76,34.29 8.80,34.62 8.72,34.95 8.65,35.27 8.47,35.56 8.30,35.84 8.04,36.06 7.79,36.27 7.48,36.39 7.17,36.52 6.83,36.53 6.50,36.55 6.18,36.46 5.86,36.37 5.58,36.18 5.31,35.99 5.11,35.72 4.91,35.45 4.91,35.45 4.91,35.45 3.96,32.68 3.02,29.91 3.06,28.49 3.10,27.06 3.15,25.73 3.19,24.40 3.13,22.62 3.06,20.84 2.77,18.62 2.48,16.40 1.89,12.64 1.30,8.88 0.61,7.07 -0.06,5.27 -1.02,3.00 -1.98,0.74 -2.04,0.49 -2.11,0.24 -2.10,-0.00 -2.10,-0.26 -2.04,-0.51 -1.98,-0.76 -1.86,-0.98 -1.74,-1.21 -1.57,-1.40 -1.40,-1.59 -1.19,-1.74 -0.98,-1.88 -0.74,-1.97 -0.50,-2.06 -0.24,-2.09 0.00,-2.12 0.26,-2.09 0.51,-2.06 0.75,-1.96 0.99,-1.87 1.20,-1.73 1.41,-1.58 1.58,-1.39 1.75,-1.20 1.87,-0.97 1.98,-0.74 1.98,-0.74 L 1.98,-0.74 Z"></path></g><g transform="translate(946 1338) rotate(0 21 16.5)" stroke="none"><path fill="#1e1e1e" d="M 0.70,-1.75 Q 0.70,-1.75 2.15,-1.21 3.60,-0.67 6.85,1.12 10.11,2.92 12.99,5.21 15.88,7.50 18.23,9.63 20.58,11.77 22.38,13.22 24.17,14.67 26.14,16.49 28.10,18.31 29.53,19.63 30.96,20.94 31.92,21.72 32.89,22.50 33.96,23.78 35.04,25.05 35.93,25.66 36.82,26.26 37.89,27.18 38.96,28.10 40.81,29.44 42.66,30.78 42.93,31.02 43.19,31.27 43.36,31.58 43.54,31.89 43.60,32.25 43.66,32.60 43.61,32.96 43.56,33.31 43.39,33.63 43.23,33.95 42.97,34.20 42.72,34.45 42.39,34.61 42.07,34.76 41.71,34.80 41.36,34.85 41.01,34.78 40.65,34.70 40.34,34.52 40.03,34.34 39.80,34.07 39.56,33.80 39.42,33.47 39.29,33.14 39.26,32.78 39.24,32.43 39.33,32.08 39.42,31.73 39.62,31.43 39.81,31.13 40.10,30.91 40.38,30.69 40.72,30.57 41.05,30.45 41.41,30.45 41.77,30.44 42.11,30.55 42.45,30.66 42.74,30.87 43.03,31.09 43.24,31.38 43.44,31.67 43.54,32.02 43.65,32.36 43.63,32.72 43.62,33.08 43.49,33.41 43.36,33.75 43.13,34.03 42.90,34.30 42.60,34.49 42.29,34.68 41.95,34.76 41.60,34.85 41.24,34.81 40.88,34.78 40.55,34.63 40.23,34.49 40.23,34.49 40.23,34.49 38.16,32.83 36.10,31.18 35.19,30.26 34.28,29.34 33.21,28.33 32.14,27.32 31.32,26.15 30.49,24.97 29.69,24.05 28.89,23.12 27.52,21.79 26.15,20.45 24.24,18.74 22.33,17.03 20.41,15.57 18.50,14.12 16.17,12.13 13.85,10.13 11.14,8.11 8.43,6.09 5.28,4.53 2.14,2.97 0.72,2.36 -0.70,1.75 -0.89,1.64 -1.09,1.53 -1.26,1.37 -1.43,1.22 -1.55,1.03 -1.68,0.84 -1.76,0.63 -1.83,0.41 -1.86,0.19 -1.88,-0.03 -1.85,-0.25 -1.82,-0.48 -1.73,-0.69 -1.65,-0.90 -1.52,-1.09 -1.38,-1.27 -1.21,-1.42 -1.04,-1.57 -0.83,-1.67 -0.63,-1.77 -0.41,-1.82 -0.19,-1.87 0.03,-1.87 0.26,-1.86 0.48,-1.80 0.70,-1.74 0.70,-1.75 L 0.70,-1.75 Z"></path></g><g transform="translate(980 1329) rotate(0 4 20.5)" stroke="none"><path fill="#1e1e1e" d="M 1.80,-0.45 Q 1.80,-0.45 2.31,1.86 2.81,4.18 3.29,6.32 3.77,8.46 4.05,10.32 4.32,12.17 4.69,14.01 5.06,15.86 5.47,18.42 5.88,20.98 6.60,24.32 7.33,27.67 7.66,29.73 7.99,31.78 8.45,33.43 8.91,35.07 9.21,36.12 9.51,37.17 9.74,39.01 9.98,40.84 9.95,41.16 9.92,41.48 9.79,41.78 9.67,42.07 9.45,42.31 9.23,42.55 8.95,42.71 8.67,42.87 8.36,42.92 8.04,42.98 7.72,42.94 7.40,42.89 7.11,42.75 6.83,42.60 6.60,42.38 6.37,42.15 6.23,41.86 6.09,41.57 6.05,41.25 6.01,40.93 6.07,40.62 6.13,40.30 6.29,40.02 6.45,39.74 6.69,39.53 6.93,39.31 7.23,39.19 7.52,39.06 7.85,39.04 8.17,39.01 8.48,39.09 8.79,39.17 9.06,39.35 9.33,39.52 9.53,39.77 9.73,40.02 9.84,40.33 9.95,40.63 9.96,40.95 9.96,41.27 9.87,41.58 9.77,41.89 9.58,42.15 9.39,42.41 9.13,42.60 8.87,42.78 8.56,42.87 8.25,42.97 7.93,42.96 7.61,42.95 7.31,42.83 7.01,42.72 6.76,42.52 6.51,42.32 6.34,42.04 6.16,41.77 6.09,41.46 6.01,41.15 6.01,41.15 6.01,41.15 5.91,38.49 5.82,35.84 5.43,34.05 5.04,32.26 4.72,30.30 4.40,28.34 3.59,24.93 2.78,21.53 2.29,19.02 1.79,16.52 1.39,14.56 1.00,12.60 0.82,10.92 0.65,9.24 0.07,7.12 -0.51,5.01 -1.16,2.73 -1.80,0.45 -1.83,0.22 -1.86,0.00 -1.83,-0.21 -1.81,-0.43 -1.73,-0.65 -1.65,-0.86 -1.52,-1.04 -1.39,-1.23 -1.23,-1.38 -1.06,-1.52 -0.86,-1.63 -0.66,-1.73 -0.44,-1.79 -0.23,-1.84 -0.00,-1.84 0.21,-1.85 0.43,-1.79 0.65,-1.74 0.85,-1.64 1.05,-1.53 1.22,-1.38 1.39,-1.23 1.51,-1.05 1.64,-0.87 1.72,-0.66 1.80,-0.45 1.80,-0.45 L 1.80,-0.45 Z"></path></g><g transform="translate(136 1348) rotate(0 145.5 -1.5)" stroke="none"><path fill="#e03131" d="M 0,-1.56 Q 0,-1.56 7.18,-1.52 14.37,-1.49 22.60,-1.46 30.83,-1.44 40.36,-1.42 49.90,-1.40 60.85,-1.39 71.80,-1.38 82.21,-1.37 92.61,-1.36 101.06,-1.35 109.51,-1.34 117.99,-1.34 126.46,-1.33 135.24,-1.33 144.02,-1.33 153.50,-1.32 162.98,-1.32 171.61,-1.32 180.24,-1.32 187.64,-1.32 195.05,-1.32 199.92,-1.31 204.79,-1.31 207.73,-1.31 210.66,-1.31 212.98,-1.59 215.30,-1.88 217.21,-2.05 219.12,-2.23 220.99,-2.58 222.86,-2.93 224.61,-3.15 226.36,-3.37 229.06,-3.68 231.77,-3.98 234.71,-4.11 237.65,-4.24 241.78,-4.28 245.91,-4.32 249.38,-4.33 252.86,-4.35 255.77,-4.35 258.69,-4.35 261.65,-4.35 264.61,-4.34 267.31,-4.34 270.01,-4.34 272.59,-4.33 275.18,-4.33 277.71,-4.33 280.25,-4.32 281.61,-4.44 282.98,-4.56 284.42,-4.65 285.86,-4.73 288.43,-4.91 290.99,-5.09 291.33,-5.04 291.66,-4.98 291.96,-4.82 292.26,-4.66 292.50,-4.42 292.73,-4.17 292.87,-3.86 293.01,-3.56 293.05,-3.22 293.09,-2.88 293.01,-2.55 292.94,-2.22 292.77,-1.93 292.59,-1.64 292.33,-1.42 292.08,-1.20 291.76,-1.07 291.45,-0.95 291.11,-0.93 290.77,-0.91 290.44,-1.00 290.12,-1.09 289.83,-1.28 289.55,-1.47 289.35,-1.74 289.14,-2.01 289.04,-2.34 288.93,-2.66 288.93,-3.00 288.93,-3.33 289.04,-3.66 289.14,-3.98 289.35,-4.25 289.55,-4.52 289.83,-4.71 290.12,-4.90 290.44,-4.99 290.77,-5.08 291.11,-5.06 291.45,-5.04 291.76,-4.92 292.08,-4.79 292.33,-4.57 292.59,-4.35 292.77,-4.06 292.94,-3.77 293.01,-3.44 293.09,-3.11 293.05,-2.77 293.01,-2.43 292.87,-2.13 292.73,-1.82 292.50,-1.57 292.26,-1.33 291.96,-1.17 291.66,-1.01 291.33,-0.95 290.99,-0.90 290.99,-0.90 291.00,-0.90 288.43,-1.08 285.86,-1.26 284.42,-1.34 282.98,-1.43 281.61,-1.55 280.25,-1.67 277.71,-1.66 275.18,-1.66 272.59,-1.65 270.01,-1.65 267.31,-1.64 264.62,-1.63 261.66,-1.62 258.70,-1.61 255.79,-1.59 252.88,-1.56 249.42,-1.52 245.95,-1.48 241.88,-1.40 237.80,-1.32 234.98,-1.15 232.15,-0.97 229.39,-0.58 226.63,-0.19 225.00,-0.13 223.36,-0.06 221.34,0.26 219.31,0.59 217.46,0.66 215.61,0.73 213.13,1.02 210.66,1.31 207.73,1.31 204.79,1.31 199.92,1.31 195.05,1.32 187.64,1.32 180.24,1.32 171.61,1.32 162.98,1.32 153.50,1.32 144.02,1.33 135.24,1.33 126.46,1.33 117.99,1.34 109.51,1.34 101.06,1.35 92.61,1.36 82.21,1.37 71.80,1.38 60.85,1.39 49.90,1.40 40.36,1.42 30.83,1.44 22.60,1.46 14.37,1.49 7.18,1.52 0,1.56 -0.18,1.53 -0.37,1.51 -0.54,1.45 -0.72,1.38 -0.88,1.27 -1.03,1.16 -1.16,1.02 -1.28,0.88 -1.37,0.72 -1.46,0.55 -1.50,0.37 -1.55,0.18 -1.55,-0.00 -1.55,-0.18 -1.50,-0.37 -1.46,-0.55 -1.37,-0.72 -1.28,-0.88 -1.16,-1.02 -1.03,-1.16 -0.88,-1.27 -0.72,-1.38 -0.54,-1.45 -0.37,-1.51 -0.18,-1.53 0.00,-1.56 0.00,-1.56 L 0,-1.56 Z"></path></g><g transform="translate(811 1313) rotate(0 -30 32)" stroke="none"><path fill="#e03131" d="M 1.04,1.22 Q 1.04,1.22 -0.98,2.91 -3.02,4.60 -4.66,6.65 -6.30,8.70 -11.96,15.10 -17.62,21.50 -21.45,25.92 -25.28,30.34 -29.51,35.11 -33.74,39.87 -37.82,44.74 -41.91,49.62 -45.12,52.89 -48.34,56.16 -51.19,58.45 -54.04,60.73 -56.51,62.96 -58.99,65.19 -59.21,65.32 -59.42,65.45 -59.67,65.50 -59.92,65.55 -60.17,65.53 -60.42,65.50 -60.65,65.39 -60.88,65.28 -61.06,65.11 -61.24,64.93 -61.36,64.71 -61.48,64.49 -61.52,64.24 -61.56,63.99 -61.51,63.74 -61.47,63.49 -61.35,63.27 -61.23,63.04 -61.05,62.87 -60.86,62.70 -60.63,62.59 -60.41,62.49 -60.15,62.46 -59.90,62.44 -59.66,62.49 -59.41,62.55 -59.19,62.68 -58.98,62.81 -58.82,63.00 -58.65,63.20 -58.56,63.43 -58.47,63.67 -58.46,63.92 -58.44,64.17 -58.51,64.41 -58.58,64.66 -58.72,64.87 -58.87,65.07 -59.07,65.23 -59.27,65.38 -59.51,65.46 -59.75,65.54 -60.00,65.54 -60.26,65.53 -60.49,65.45 -60.73,65.37 -60.93,65.22 -61.13,65.06 -61.27,64.85 -61.42,64.64 -61.48,64.40 -61.55,64.16 -61.53,63.90 -61.52,63.65 -61.42,63.42 -61.33,63.18 -61.16,62.99 -61.00,62.80 -61.00,62.80 -61.00,62.80 -58.36,60.72 -55.71,58.65 -52.98,56.46 -50.26,54.27 -47.12,51.08 -43.99,47.88 -39.89,42.96 -35.80,38.05 -31.60,33.28 -27.40,28.52 -23.58,24.07 -19.76,19.61 -14.19,13.24 -8.61,6.87 -6.81,4.58 -5.02,2.29 -3.03,0.53 -1.04,-1.22 -0.88,-1.32 -0.72,-1.43 -0.54,-1.50 -0.35,-1.56 -0.16,-1.58 0.02,-1.60 0.21,-1.58 0.41,-1.55 0.59,-1.48 0.77,-1.41 0.92,-1.30 1.08,-1.18 1.21,-1.03 1.33,-0.89 1.42,-0.71 1.51,-0.54 1.55,-0.35 1.60,-0.16 1.59,0.02 1.59,0.22 1.54,0.40 1.49,0.59 1.40,0.76 1.30,0.93 1.17,1.07 1.04,1.22 1.04,1.22 L 1.04,1.22 Z"></path></g><g transform="translate(949 1309) rotate(0 -47 59)" stroke="none"><path fill="#e03131" d="M 0.95,1.23 Q 0.95,1.23 -2.80,4.08 -6.56,6.93 -9.51,10.06 -12.47,13.20 -18.33,20.56 -24.19,27.91 -34.75,41.12 -45.32,54.33 -54.13,65.12 -62.93,75.91 -69.27,83.65 -75.60,91.39 -79.43,96.39 -83.26,101.39 -85.74,104.94 -88.22,108.48 -89.53,110.81 -90.85,113.13 -91.29,114.42 -91.73,115.70 -91.58,115.69 -91.44,115.68 -91.55,115.86 -91.65,116.03 -91.79,116.18 -91.94,116.32 -92.11,116.43 -92.29,116.54 -92.48,116.60 -92.68,116.66 -92.88,116.68 -93.08,116.69 -93.29,116.65 -93.49,116.62 -93.67,116.54 -93.86,116.45 -94.02,116.33 -94.19,116.20 -94.31,116.04 -94.44,115.88 -94.53,115.70 -94.61,115.51 -94.65,115.31 -94.69,115.11 -94.68,114.91 -94.67,114.70 -94.61,114.51 -94.55,114.31 -94.43,114.12 -94.32,113.94 -94.12,113.75 -93.91,113.57 -93.66,113.46 -93.41,113.35 -93.14,113.33 -92.86,113.30 -92.60,113.37 -92.33,113.43 -92.10,113.58 -91.87,113.73 -91.69,113.94 -91.52,114.16 -91.42,114.41 -91.33,114.67 -91.32,114.94 -91.31,115.22 -91.39,115.48 -91.47,115.74 -91.63,115.97 -91.79,116.19 -92.01,116.35 -92.24,116.51 -92.50,116.59 -92.76,116.68 -93.04,116.67 -93.31,116.66 -93.57,116.57 -93.83,116.47 -94.04,116.30 -94.26,116.13 -94.40,115.90 -94.55,115.67 -94.62,115.40 -94.69,115.14 -94.66,114.86 -94.64,114.59 -94.54,114.34 -94.43,114.08 -94.24,113.88 -94.06,113.68 -93.82,113.54 -93.58,113.40 -93.32,113.35 -93.05,113.30 -92.77,113.33 -92.50,113.37 -92.26,113.49 -92.01,113.61 -91.81,113.81 -91.62,114.00 -91.50,114.25 -91.37,114.49 -91.34,114.76 -91.30,115.04 -91.35,115.31 -91.40,115.58 -91.42,115.63 -91.44,115.68 -91.55,115.86 -91.65,116.03 -91.79,116.18 -91.94,116.32 -92.11,116.43 -92.29,116.54 -92.48,116.60 -92.68,116.66 -92.88,116.68 -93.08,116.69 -93.29,116.65 -93.49,116.62 -93.67,116.54 -93.86,116.45 -94.02,116.33 -94.19,116.20 -94.31,116.04 -94.44,115.88 -94.53,115.70 -94.61,115.51 -94.65,115.31 -94.69,115.11 -94.68,114.91 -94.67,114.70 -94.61,114.51 -94.55,114.31 -94.56,114.38 -94.57,114.45 -93.86,113.14 -93.16,111.82 -91.78,109.39 -90.40,106.95 -87.89,103.36 -85.38,99.76 -81.54,94.73 -77.69,89.69 -71.37,81.93 -65.05,74.18 -56.26,63.39 -47.48,52.60 -36.94,39.38 -26.40,26.16 -20.49,18.69 -14.58,11.23 -11.48,7.89 -8.38,4.56 -4.67,1.66 -0.95,-1.23 -0.79,-1.33 -0.62,-1.43 -0.44,-1.48 -0.26,-1.53 -0.07,-1.54 0.10,-1.55 0.29,-1.52 0.47,-1.48 0.64,-1.40 0.82,-1.32 0.96,-1.21 1.11,-1.09 1.22,-0.94 1.34,-0.79 1.41,-0.62 1.49,-0.45 1.52,-0.26 1.56,-0.08 1.54,0.10 1.53,0.29 1.47,0.47 1.41,0.65 1.31,0.81 1.22,0.97 1.08,1.10 0.95,1.23 0.95,1.23 L 0.95,1.23 Z"></path></g><g transform="translate(885 1309) rotate(0 4.5 3)" stroke="none"><path fill="#e03131" d="M 0,2.41 Q 0,2.41 -1.43,2.41 -2.87,2.42 -5.41,1.72 -7.95,1.03 -8.99,-0.07 -10.04,-1.19 -10.59,-2.99 -11.14,-4.79 -10.62,-6.83 -10.10,-8.86 -8.41,-10.67 -6.71,-12.47 -5.67,-13.30 -4.62,-14.12 -2.98,-14.59 -1.33,-15.07 -0.10,-15.23 1.11,-15.40 3.45,-14.81 5.79,-14.22 6.54,-12.55 7.30,-10.87 6.35,-8.11 5.39,-5.35 4.32,-3.26 3.26,-1.16 1.56,0.11 -0.12,1.40 2.75,2.89 5.64,4.38 8.40,5.24 11.16,6.10 12.91,6.43 14.66,6.76 16.21,7.56 17.76,8.35 18.25,10.20 18.73,12.04 18.15,13.48 17.57,14.91 15.91,16.16 14.24,17.41 12.65,18.18 11.05,18.96 9.33,19.35 7.61,19.74 6.20,20.14 4.79,20.54 3.11,20.93 1.44,21.32 1.05,21.33 0.67,21.34 0.31,21.22 -0.05,21.11 -0.36,20.89 -0.67,20.66 -0.89,20.35 -1.11,20.04 -1.23,19.68 -1.34,19.31 -1.33,18.93 -1.32,18.55 -1.18,18.19 -1.05,17.83 -0.81,17.53 -0.57,17.23 -0.25,17.03 0.07,16.82 0.44,16.73 0.81,16.64 1.19,16.67 1.57,16.70 1.92,16.85 2.27,17.01 2.56,17.26 2.84,17.52 3.03,17.85 3.22,18.18 3.29,18.56 3.36,18.94 3.31,19.31 3.25,19.69 3.08,20.04 2.91,20.38 2.64,20.65 2.37,20.92 2.03,21.09 1.68,21.26 1.31,21.31 0.93,21.36 0.55,21.28 0.18,21.21 -0.15,21.02 -0.48,20.83 -0.73,20.55 -0.99,20.26 -1.14,19.91 -1.29,19.56 -1.32,19.18 -1.35,18.80 -1.26,18.43 -1.16,18.06 -0.96,17.73 -0.75,17.41 -0.45,17.17 -0.15,16.93 0.20,16.80 0.55,16.67 0.55,16.67 0.55,16.67 2.08,16.45 3.60,16.23 5.17,15.81 6.75,15.38 7.97,15.19 9.20,15.00 10.49,14.40 11.78,13.81 12.85,13.18 13.91,12.55 13.94,11.36 13.97,10.17 12.09,9.79 10.21,9.41 7.14,8.59 4.07,7.77 0.84,6.19 -2.37,4.60 -2.86,3.03 -3.34,1.45 -1.98,-0.73 -0.61,-2.92 0.10,-4.94 0.83,-6.96 1.87,-8.63 2.91,-10.29 1.31,-10.22 -0.29,-10.15 -1.77,-9.69 -3.24,-9.24 -4.61,-7.43 -5.98,-5.62 -5.60,-4.47 -5.22,-3.33 -4.04,-2.87 -2.87,-2.42 -1.43,-2.41 0,-2.41 0.28,-2.37 0.57,-2.34 0.84,-2.23 1.12,-2.13 1.35,-1.96 1.59,-1.80 1.79,-1.58 1.98,-1.36 2.11,-1.11 2.25,-0.85 2.32,-0.57 2.39,-0.29 2.39,0.00 2.39,0.29 2.32,0.57 2.25,0.85 2.11,1.11 1.98,1.36 1.79,1.58 1.59,1.80 1.35,1.96 1.12,2.13 0.84,2.23 0.57,2.34 0.28,2.37 -0.00,2.41 -0.00,2.41 L 0,2.41 Z"></path></g><g transform="translate(911 1298) rotate(0 -2.5 10)" stroke="none"><path fill="#e03131" d="M 2.16,0.61 Q 2.16,0.61 1.48,2.59 0.79,4.57 0.51,6.42 0.23,8.26 0.21,9.38 0.19,10.50 -0.11,12.01 -0.42,13.52 -1.62,17.21 -2.81,20.91 -3.01,21.23 -3.22,21.56 -3.51,21.80 -3.81,22.04 -4.17,22.18 -4.53,22.32 -4.91,22.33 -5.29,22.34 -5.66,22.23 -6.03,22.13 -6.34,21.91 -6.65,21.68 -6.88,21.38 -7.11,21.07 -7.22,20.70 -7.34,20.34 -7.33,19.95 -7.32,19.57 -7.20,19.21 -7.07,18.85 -6.83,18.55 -6.59,18.25 -6.27,18.04 -5.95,17.83 -5.58,17.73 -5.21,17.64 -4.83,17.67 -4.45,17.69 -4.09,17.84 -3.74,17.99 -3.45,18.24 -3.16,18.49 -2.97,18.83 -2.78,19.16 -2.71,19.53 -2.63,19.91 -2.68,20.29 -2.73,20.67 -2.89,21.01 -3.06,21.36 -3.33,21.63 -3.60,21.90 -3.94,22.08 -4.28,22.25 -4.66,22.31 -5.04,22.36 -5.41,22.29 -5.79,22.22 -6.13,22.04 -6.46,21.85 -6.72,21.57 -6.98,21.29 -7.13,20.94 -7.29,20.59 -7.32,20.21 -7.36,19.82 -7.27,19.45 -7.18,19.08 -7.18,19.08 -7.18,19.08 -5.88,15.79 -4.59,12.49 -4.23,11.31 -3.88,10.12 -3.70,8.96 -3.51,7.80 -3.30,5.63 -3.09,3.47 -2.63,1.42 -2.16,-0.61 -2.06,-0.86 -1.95,-1.12 -1.79,-1.33 -1.63,-1.55 -1.42,-1.72 -1.21,-1.90 -0.96,-2.01 -0.72,-2.13 -0.45,-2.19 -0.18,-2.24 0.08,-2.23 0.35,-2.22 0.61,-2.15 0.87,-2.07 1.11,-1.94 1.34,-1.80 1.54,-1.61 1.74,-1.43 1.88,-1.20 2.03,-0.97 2.12,-0.71 2.20,-0.45 2.23,-0.18 2.25,0.08 2.21,0.35 2.16,0.61 2.16,0.61 L 2.16,0.61 Z"></path></g><g transform="translate(908 1300) rotate(0 12 0.5)" stroke="none"><path fill="#e03131" d="M 0.78,-1.57 Q 0.78,-1.57 3.06,-0.37 5.33,0.83 7.26,2.29 9.19,3.75 10.82,4.89 12.45,6.03 13.82,7.08 15.18,8.14 16.34,9.11 17.50,10.09 17.65,10.25 17.80,10.41 17.91,10.60 18.02,10.79 18.07,11.00 18.13,11.21 18.14,11.42 18.15,11.64 18.10,11.86 18.05,12.07 17.96,12.26 17.86,12.46 17.72,12.63 17.58,12.79 17.41,12.92 17.23,13.05 17.03,13.14 16.83,13.22 16.61,13.25 16.40,13.28 16.18,13.26 15.96,13.24 15.76,13.17 15.55,13.10 15.37,12.98 15.19,12.86 16.12,10.34 17.05,7.82 17.70,5.84 18.35,3.85 19.26,0.63 20.18,-2.57 20.87,-5.37 21.56,-8.16 22.08,-10.24 22.59,-12.32 22.68,-12.54 22.77,-12.76 22.92,-12.93 23.08,-13.11 23.28,-13.22 23.48,-13.34 23.71,-13.39 23.94,-13.43 24.17,-13.41 24.40,-13.38 24.61,-13.28 24.82,-13.18 24.99,-13.01 25.15,-12.85 25.26,-12.64 25.37,-12.44 25.40,-12.20 25.44,-11.97 25.39,-11.74 25.35,-11.52 25.24,-11.31 25.13,-11.11 24.96,-10.95 24.79,-10.79 24.57,-10.70 24.36,-10.60 24.13,-10.58 23.90,-10.56 23.67,-10.61 23.44,-10.66 23.24,-10.79 23.05,-10.91 22.90,-11.09 22.75,-11.27 22.67,-11.49 22.58,-11.71 22.57,-11.94 22.56,-12.17 22.63,-12.40 22.70,-12.62 22.83,-12.81 22.96,-13.00 23.15,-13.14 23.34,-13.28 23.56,-13.35 23.78,-13.42 24.02,-13.42 24.25,-13.41 24.47,-13.34 24.69,-13.26 24.87,-13.11 25.06,-12.97 25.18,-12.78 25.31,-12.58 25.37,-12.36 25.43,-12.13 25.41,-11.90 25.40,-11.66 25.40,-11.66 25.40,-11.67 24.93,-9.57 24.46,-7.48 23.82,-4.62 23.18,-1.76 22.33,1.54 21.48,4.86 20.66,7.42 19.84,9.98 18.67,10.03 17.50,10.09 17.65,10.25 17.80,10.41 17.91,10.60 18.02,10.79 18.07,11.00 18.13,11.21 18.14,11.42 18.15,11.64 18.10,11.85 18.05,12.07 17.96,12.26 17.86,12.46 17.72,12.63 17.58,12.79 17.41,12.92 17.23,13.05 17.03,13.14 16.83,13.22 16.61,13.25 16.40,13.28 16.18,13.26 15.96,13.24 15.76,13.17 15.55,13.10 15.37,12.98 15.19,12.86 14.11,11.79 13.04,10.71 11.86,9.63 10.68,8.56 9.02,7.41 7.36,6.25 5.61,5.01 3.86,3.76 1.53,2.67 -0.78,1.57 -0.96,1.46 -1.14,1.34 -1.28,1.18 -1.43,1.03 -1.53,0.84 -1.63,0.65 -1.69,0.45 -1.74,0.24 -1.75,0.03 -1.75,-0.17 -1.70,-0.38 -1.66,-0.59 -1.56,-0.78 -1.47,-0.97 -1.33,-1.13 -1.19,-1.29 -1.02,-1.42 -0.85,-1.54 -0.65,-1.62 -0.45,-1.70 -0.24,-1.73 -0.03,-1.76 0.17,-1.74 0.38,-1.72 0.58,-1.65 0.78,-1.57 0.78,-1.57 L 0.78,-1.57 Z"></path></g><g transform="translate(333 1474) rotate(0 201.49166870117188 22.5)"><text x="0" y="31.536" font-family="Virgil, Segoe UI Emoji" font-size="36px" fill="#e03131" text-anchor="start" style="white-space: pre;" direction="ltr" dominant-baseline="alphabetic">everything's a triangle!</text></g><g transform="translate(298 1543) rotate(0 346.3500061035156 37.5)"><text x="0" y="17.52" font-family="Virgil, Segoe UI Emoji" font-size="20px" fill="#1e1e1e" text-anchor="start" style="white-space: pre;" direction="ltr" dominant-baseline="alphabetic">- a point is a very small circle with very small radius</text><text x="0" y="42.519999999999996" font-family="Virgil, Segoe UI Emoji" font-size="20px" fill="#1e1e1e" text-anchor="start" style="white-space: pre;" direction="ltr" dominant-baseline="alphabetic">- a line is just two very very very pointy triangles paired up together</text><text x="0" y="67.52" font-family="Virgil, Segoe UI Emoji" font-size="20px" fill="#1e1e1e" text-anchor="start" style="white-space: pre;" direction="ltr" dominant-baseline="alphabetic">- a triangle is just a triangle, what else can it be?</text></g></svg>