<svg version="1.1" xmlns="http://www.w3.org/2000/svg" viewBox="0 0 1790.2666625976562 1035" width="1790.2666625976562" height="1035">
  <!-- svg-source:excalidraw -->
  
  <defs>
    <style class="style-fonts">
      @font-face {
        font-family: "Virgil";
        src: url("https://excalidraw.com/Virgil.woff2");
      }
      @font-face {
        font-family: "Cascadia";
        src: url("https://excalidraw.com/Cascadia.woff2");
      }
      @font-face {
        font-family: "Assistant";
        src: url("https://excalidraw.com/Assistant-Regular.woff2");
      }
    </style>
    
  </defs>
<g transform="translate(315 317) rotate(0 3 31.5)" stroke="none"><path fill="#e03131" d="M 2.00,0 Q 2.00,0 1.90,5.17 1.81,10.34 2.03,19.99 2.25,29.64 2.90,37.74 3.54,45.83 3.80,50.17 4.06,54.50 4.44,56.84 4.81,59.17 5.95,60.48 7.08,61.79 7.25,61.99 7.41,62.20 7.50,62.44 7.59,62.69 7.60,62.95 7.61,63.22 7.53,63.47 7.45,63.72 7.30,63.93 7.14,64.15 6.93,64.30 6.72,64.45 6.46,64.53 6.21,64.61 5.95,64.60 5.69,64.59 5.44,64.50 5.19,64.41 4.99,64.24 4.78,64.08 4.64,63.86 4.50,63.64 4.44,63.38 4.37,63.12 4.40,62.86 4.42,62.60 4.52,62.36 4.63,62.12 4.80,61.92 4.98,61.73 5.21,61.60 5.44,61.47 5.69,61.42 5.95,61.37 6.21,61.41 6.47,61.44 6.71,61.56 6.95,61.68 7.13,61.86 7.32,62.05 7.43,62.28 7.55,62.52 7.59,62.78 7.62,63.04 7.57,63.30 7.52,63.56 7.39,63.79 7.26,64.02 7.07,64.19 6.87,64.37 6.63,64.47 6.39,64.57 6.12,64.59 5.86,64.62 5.61,64.55 5.35,64.49 5.13,64.35 4.91,64.20 4.91,64.20 4.91,64.20 3.43,61.95 1.95,59.69 1.50,57.20 1.05,54.71 0.72,50.41 0.39,46.10 -0.35,37.92 -1.10,29.74 -1.46,20.04 -1.81,10.35 -1.90,5.17 -2.00,0 -1.97,-0.23 -1.94,-0.47 -1.85,-0.70 -1.77,-0.93 -1.63,-1.12 -1.49,-1.32 -1.31,-1.48 -1.13,-1.64 -0.92,-1.75 -0.70,-1.87 -0.47,-1.92 -0.24,-1.98 0.00,-1.98 0.24,-1.98 0.47,-1.92 0.70,-1.87 0.92,-1.75 1.13,-1.64 1.31,-1.48 1.49,-1.32 1.63,-1.12 1.77,-0.92 1.85,-0.70 1.94,-0.47 1.97,-0.23 2.00,0.00 2.00,0.00 L 2.00,0 Z"></path></g><g transform="translate(306 315) rotate(0 113 1.5)" stroke="none"><path fill="#e03131" d="M 0.22,-1.58 Q 0.22,-1.58 4.24,-0.97 8.26,-0.35 24.84,0.19 41.41,0.74 65.73,0.99 90.04,1.24 116.48,1.35 142.91,1.46 158.18,1.51 173.44,1.56 187.66,1.01 201.88,0.46 208.80,0.23 215.72,0.00 220.84,-0.16 225.95,-0.33 226.16,-0.30 226.38,-0.27 226.57,-0.18 226.77,-0.09 226.92,0.06 227.07,0.21 227.17,0.40 227.27,0.59 227.30,0.81 227.33,1.02 227.29,1.23 227.25,1.45 227.15,1.64 227.04,1.82 226.88,1.97 226.72,2.12 226.52,2.20 226.33,2.29 226.11,2.31 225.90,2.33 225.69,2.28 225.48,2.23 225.29,2.11 225.11,2.00 224.97,1.83 224.84,1.66 224.76,1.46 224.69,1.26 224.68,1.04 224.67,0.82 224.73,0.62 224.79,0.41 224.92,0.23 225.04,0.06 225.22,-0.06 225.39,-0.19 225.60,-0.25 225.81,-0.32 226.02,-0.31 226.24,-0.31 226.44,-0.24 226.64,-0.16 226.81,-0.03 226.98,0.10 227.10,0.28 227.22,0.46 227.27,0.67 227.33,0.88 227.31,1.09 227.29,1.31 227.21,1.51 227.13,1.71 226.98,1.87 226.84,2.03 226.65,2.14 226.46,2.25 226.25,2.29 226.04,2.33 226.04,2.33 226.04,2.33 220.93,2.51 215.81,2.69 208.90,2.93 201.98,3.17 187.71,3.74 173.43,4.31 158.17,4.28 142.90,4.25 116.46,4.17 90.01,4.08 65.67,3.88 41.32,3.67 24.58,3.16 7.83,2.65 3.80,2.12 -0.22,1.58 -0.41,1.53 -0.59,1.48 -0.76,1.39 -0.93,1.29 -1.07,1.16 -1.22,1.03 -1.32,0.87 -1.43,0.71 -1.49,0.53 -1.56,0.35 -1.58,0.15 -1.60,-0.03 -1.57,-0.22 -1.54,-0.41 -1.47,-0.59 -1.40,-0.77 -1.28,-0.93 -1.17,-1.08 -1.02,-1.21 -0.88,-1.33 -0.70,-1.42 -0.53,-1.50 -0.34,-1.55 -0.15,-1.59 0.03,-1.58 0.22,-1.58 0.22,-1.58 L 0.22,-1.58 Z"></path></g><g transform="translate(532 315) rotate(0 -105 27)" stroke="none"><path fill="#e03131" d="M 1.80,0 Q 1.80,0 1.74,4.31 1.67,8.62 1.62,17.35 1.57,26.09 1.54,32.10 1.50,38.11 1.47,42.10 1.45,46.09 1.46,48.08 1.48,50.06 1.07,51.84 0.66,53.63 -0.32,54.10 -1.31,54.57 -9.06,54.60 -16.81,54.62 -46.77,54.60 -76.72,54.57 -100.95,54.55 -125.18,54.52 -143.24,54.49 -161.30,54.47 -172.42,54.45 -183.55,54.43 -189.14,54.41 -194.73,54.40 -197.39,54.38 -200.06,54.37 -201.76,54.45 -203.47,54.52 -206.73,54.71 -209.99,54.90 -210.30,54.85 -210.60,54.80 -210.88,54.66 -211.15,54.52 -211.36,54.29 -211.58,54.07 -211.71,53.79 -211.84,53.51 -211.87,53.20 -211.90,52.89 -211.84,52.59 -211.77,52.29 -211.61,52.02 -211.45,51.76 -211.21,51.56 -210.98,51.36 -210.69,51.24 -210.41,51.13 -210.10,51.11 -209.79,51.10 -209.49,51.18 -209.19,51.26 -208.94,51.44 -208.68,51.61 -208.49,51.85 -208.31,52.10 -208.21,52.39 -208.11,52.69 -208.11,53.00 -208.11,53.30 -208.21,53.60 -208.31,53.89 -208.49,54.14 -208.68,54.38 -208.94,54.56 -209.19,54.73 -209.49,54.81 -209.79,54.89 -210.10,54.88 -210.41,54.86 -210.69,54.75 -210.98,54.63 -211.22,54.43 -211.45,54.23 -211.61,53.97 -211.77,53.70 -211.84,53.40 -211.90,53.10 -211.87,52.79 -211.83,52.48 -211.71,52.20 -211.58,51.92 -211.36,51.70 -211.15,51.47 -210.88,51.33 -210.60,51.19 -210.30,51.14 -209.99,51.09 -209.99,51.09 -210.00,51.09 -206.73,51.28 -203.47,51.47 -201.76,51.54 -200.06,51.62 -197.39,51.60 -194.73,51.59 -189.14,51.57 -183.55,51.56 -172.42,51.53 -161.30,51.50 -143.24,51.47 -125.18,51.43 -100.95,51.37 -76.73,51.31 -46.79,51.22 -16.85,51.12 -9.16,50.59 -1.48,50.06 -1.46,48.08 -1.45,46.09 -1.47,42.10 -1.50,38.11 -1.54,32.10 -1.57,26.09 -1.62,17.35 -1.67,8.62 -1.74,4.31 -1.80,0 -1.78,-0.21 -1.75,-0.43 -1.67,-0.63 -1.60,-0.84 -1.47,-1.01 -1.35,-1.19 -1.18,-1.34 -1.02,-1.48 -0.83,-1.58 -0.64,-1.69 -0.42,-1.74 -0.21,-1.79 0.00,-1.79 0.21,-1.79 0.42,-1.74 0.64,-1.69 0.83,-1.58 1.02,-1.48 1.18,-1.34 1.35,-1.19 1.47,-1.01 1.60,-0.83 1.67,-0.63 1.75,-0.43 1.78,-0.21 1.80,0.00 1.80,0.00 L 1.80,0 Z"></path></g><g transform="translate(317 414) rotate(0 0.5 17.5)" stroke="none"><path fill="#e03131" d="M 1.85,0 Q 1.85,0 1.78,3.44 1.71,6.89 1.65,12.39 1.60,17.88 1.84,22.46 2.09,27.05 2.18,29.32 2.28,31.58 2.44,33.24 2.60,34.91 2.57,35.17 2.54,35.42 2.43,35.66 2.32,35.90 2.15,36.09 1.97,36.27 1.74,36.40 1.51,36.52 1.25,36.56 0.99,36.60 0.74,36.56 0.48,36.52 0.25,36.40 0.02,36.27 -0.15,36.09 -0.32,35.90 -0.43,35.66 -0.54,35.42 -0.57,35.17 -0.60,34.91 -0.54,34.65 -0.49,34.40 -0.35,34.18 -0.22,33.95 -0.02,33.79 0.17,33.62 0.41,33.52 0.65,33.43 0.91,33.41 1.17,33.40 1.42,33.47 1.67,33.54 1.88,33.68 2.10,33.83 2.26,34.04 2.41,34.24 2.50,34.49 2.58,34.74 2.58,35.00 2.58,35.26 2.50,35.50 2.41,35.75 2.26,35.95 2.10,36.16 1.88,36.31 1.67,36.45 1.42,36.52 1.17,36.59 0.91,36.58 0.65,36.56 0.41,36.47 0.17,36.37 -0.02,36.20 -0.22,36.03 -0.35,35.81 -0.49,35.59 -0.54,35.34 -0.60,35.08 -0.60,35.08 -0.60,35.08 -0.62,33.41 -0.64,31.74 -0.79,29.49 -0.94,27.24 -1.27,22.56 -1.60,17.88 -1.65,12.39 -1.71,6.89 -1.78,3.44 -1.85,0 -1.83,-0.22 -1.80,-0.44 -1.72,-0.65 -1.64,-0.86 -1.51,-1.04 -1.39,-1.23 -1.22,-1.38 -1.05,-1.52 -0.85,-1.63 -0.65,-1.73 -0.44,-1.79 -0.22,-1.84 0.00,-1.84 0.22,-1.84 0.44,-1.79 0.65,-1.73 0.85,-1.63 1.05,-1.52 1.22,-1.37 1.39,-1.23 1.51,-1.04 1.64,-0.86 1.72,-0.65 1.80,-0.44 1.83,-0.22 1.85,0.00 1.85,0.00 L 1.85,0 Z"></path></g><g transform="translate(318 409) rotate(0 82.5 -3)" stroke="none"><path fill="#e03131" d="M 0,-1.78 Q 0,-1.78 8.33,-1.72 16.67,-1.65 34.88,-1.61 53.08,-1.56 70.31,-1.52 87.53,-1.49 103.75,-1.75 119.97,-2.02 128.26,-2.69 136.55,-3.37 140.68,-3.65 144.81,-3.94 147.36,-4.33 149.92,-4.73 151.18,-5.27 152.43,-5.80 153.87,-6.36 155.30,-6.92 156.60,-7.24 157.91,-7.57 161.41,-7.79 164.90,-8.01 165.23,-7.97 165.55,-7.93 165.85,-7.79 166.14,-7.65 166.38,-7.43 166.61,-7.20 166.76,-6.91 166.91,-6.62 166.96,-6.30 167.01,-5.98 166.95,-5.66 166.90,-5.33 166.74,-5.05 166.59,-4.76 166.35,-4.54 166.11,-4.32 165.81,-4.18 165.52,-4.05 165.19,-4.02 164.87,-3.98 164.55,-4.06 164.23,-4.13 163.95,-4.30 163.68,-4.47 163.47,-4.72 163.26,-4.97 163.14,-5.28 163.02,-5.58 163.01,-5.91 162.99,-6.23 163.08,-6.55 163.17,-6.86 163.36,-7.13 163.54,-7.39 163.81,-7.59 164.07,-7.78 164.38,-7.89 164.69,-7.99 165.01,-7.98 165.34,-7.98 165.65,-7.87 165.96,-7.77 166.21,-7.57 166.47,-7.37 166.65,-7.10 166.83,-6.82 166.92,-6.51 167.00,-6.19 166.98,-5.87 166.96,-5.54 166.84,-5.24 166.71,-4.94 166.50,-4.69 166.29,-4.45 166.00,-4.28 165.72,-4.12 165.40,-4.05 165.08,-3.98 165.09,-3.98 165.09,-3.98 161.82,-3.90 158.55,-3.81 157.47,-3.72 156.38,-3.64 154.90,-3.23 153.42,-2.82 151.89,-2.43 150.35,-2.04 147.68,-1.61 145.01,-1.18 140.90,-0.87 136.79,-0.56 128.41,0.15 120.02,0.87 103.78,1.18 87.53,1.49 70.31,1.52 53.08,1.56 34.88,1.61 16.67,1.65 8.33,1.72 0,1.78 -0.21,1.75 -0.42,1.73 -0.62,1.65 -0.82,1.57 -1.00,1.45 -1.18,1.33 -1.32,1.17 -1.46,1.01 -1.56,0.82 -1.66,0.63 -1.71,0.42 -1.77,0.21 -1.77,-0.00 -1.77,-0.21 -1.71,-0.42 -1.66,-0.63 -1.56,-0.82 -1.46,-1.01 -1.32,-1.17 -1.18,-1.33 -1.00,-1.45 -0.82,-1.57 -0.62,-1.65 -0.42,-1.73 -0.21,-1.75 0.00,-1.78 0.00,-1.78 L 0,-1.78 Z"></path></g><g transform="translate(475 403) rotate(0 25.5 -0.5)" stroke="none"><path fill="#e03131" d="M 0,-1.90 Q 0,-1.90 11.49,-1.82 22.99,-1.74 31.02,-1.97 39.04,-2.20 44.99,-2.37 50.94,-2.54 51.19,-2.51 51.44,-2.47 51.66,-2.37 51.88,-2.26 52.06,-2.08 52.24,-1.91 52.35,-1.68 52.47,-1.46 52.50,-1.21 52.54,-0.97 52.49,-0.72 52.45,-0.48 52.33,-0.26 52.21,-0.04 52.02,0.12 51.84,0.29 51.61,0.39 51.38,0.49 51.13,0.51 50.88,0.53 50.64,0.48 50.40,0.42 50.19,0.29 49.97,0.15 49.82,-0.03 49.66,-0.22 49.57,-0.46 49.48,-0.69 49.47,-0.94 49.46,-1.19 49.53,-1.43 49.61,-1.67 49.75,-1.87 49.89,-2.08 50.10,-2.22 50.30,-2.37 50.54,-2.45 50.77,-2.52 51.02,-2.52 51.27,-2.51 51.51,-2.43 51.74,-2.35 51.94,-2.19 52.14,-2.04 52.27,-1.83 52.41,-1.62 52.47,-1.38 52.53,-1.13 52.51,-0.88 52.50,-0.63 52.40,-0.40 52.30,-0.17 52.14,0.00 51.97,0.19 51.76,0.31 51.54,0.44 51.29,0.49 51.05,0.54 51.05,0.54 51.05,0.54 45.10,0.79 39.15,1.05 31.07,1.40 23.00,1.74 11.50,1.82 0,1.90 -0.22,1.87 -0.45,1.85 -0.67,1.77 -0.88,1.68 -1.07,1.55 -1.26,1.42 -1.41,1.25 -1.56,1.08 -1.67,0.87 -1.78,0.67 -1.83,0.45 -1.89,0.22 -1.89,-0.00 -1.89,-0.22 -1.83,-0.45 -1.78,-0.67 -1.67,-0.87 -1.56,-1.08 -1.41,-1.25 -1.26,-1.42 -1.07,-1.55 -0.88,-1.68 -0.67,-1.77 -0.45,-1.85 -0.22,-1.87 0.00,-1.90 0.00,-1.90 L 0,-1.90 Z"></path></g><g transform="translate(316 443) rotate(0 96 4.5)" stroke="none"><path fill="#e03131" d="M 0.44,-1.49 Q 0.44,-1.49 3.31,-0.60 6.17,0.29 12.52,1.82 18.87,3.35 28.98,4.57 39.09,5.79 58.88,6.32 78.68,6.85 96.59,7.08 114.51,7.31 129.31,7.41 144.12,7.51 154.72,7.55 165.32,7.60 171.55,7.62 177.79,7.64 180.72,7.65 183.65,7.66 185.05,7.29 186.44,6.92 189.05,6.00 191.66,5.09 191.97,5.08 192.28,5.08 192.58,5.18 192.88,5.27 193.13,5.46 193.38,5.64 193.56,5.90 193.74,6.16 193.83,6.46 193.92,6.76 193.90,7.07 193.89,7.39 193.78,7.68 193.67,7.97 193.47,8.21 193.27,8.45 193.00,8.62 192.74,8.78 192.43,8.86 192.13,8.93 191.81,8.90 191.50,8.87 191.22,8.74 190.93,8.61 190.70,8.40 190.47,8.19 190.32,7.91 190.17,7.64 190.11,7.33 190.06,7.02 190.11,6.71 190.15,6.40 190.29,6.12 190.44,5.84 190.66,5.63 190.89,5.41 191.17,5.27 191.45,5.14 191.76,5.10 192.07,5.06 192.38,5.12 192.69,5.19 192.96,5.34 193.23,5.50 193.43,5.74 193.64,5.97 193.76,6.26 193.88,6.55 193.90,6.87 193.92,7.18 193.84,7.48 193.76,7.78 193.59,8.05 193.42,8.31 193.17,8.50 192.92,8.69 192.63,8.80 192.33,8.90 192.33,8.90 192.33,8.90 190.81,9.06 189.29,9.21 188.15,9.56 187.01,9.91 185.33,10.11 183.66,10.31 180.72,10.31 177.78,10.30 171.55,10.29 165.31,10.28 154.71,10.24 144.10,10.21 129.29,10.12 114.48,10.03 96.54,9.82 78.60,9.61 58.68,9.10 38.76,8.59 28.48,7.38 18.21,6.16 11.76,4.66 5.32,3.15 2.43,2.32 -0.44,1.49 -0.62,1.42 -0.79,1.34 -0.94,1.23 -1.09,1.11 -1.21,0.96 -1.32,0.82 -1.40,0.65 -1.48,0.48 -1.52,0.29 -1.55,0.11 -1.54,-0.07 -1.53,-0.26 -1.48,-0.44 -1.43,-0.62 -1.33,-0.78 -1.23,-0.95 -1.10,-1.08 -0.97,-1.21 -0.81,-1.31 -0.65,-1.41 -0.47,-1.47 -0.29,-1.53 -0.10,-1.54 0.07,-1.56 0.26,-1.52 0.44,-1.49 0.44,-1.49 L 0.44,-1.49 Z"></path></g><g transform="translate(532 399) rotate(0 -22 28.5)" stroke="none"><path fill="#e03131" d="M 1.89,0 Q 1.89,0 1.82,3.16 1.74,6.32 1.68,11.98 1.62,17.63 1.58,21.47 1.54,25.32 1.50,28.39 1.47,31.46 1.45,34.20 1.43,36.94 1.41,39.26 1.40,41.57 1.49,43.13 1.58,44.69 1.66,46.22 1.73,47.74 1.82,48.96 1.91,50.19 2.07,51.91 2.23,53.64 1.59,55.70 0.95,57.77 -0.84,58.43 -2.64,59.09 -4.19,59.22 -5.74,59.34 -11.59,59.23 -17.45,59.13 -24.34,58.16 -31.24,57.19 -35.01,56.45 -38.77,55.71 -41.53,55.17 -44.28,54.63 -44.53,54.54 -44.79,54.46 -45.00,54.29 -45.21,54.13 -45.36,53.90 -45.51,53.68 -45.58,53.42 -45.65,53.16 -45.63,52.89 -45.61,52.62 -45.51,52.37 -45.41,52.13 -45.24,51.92 -45.06,51.72 -44.83,51.58 -44.60,51.45 -44.33,51.39 -44.07,51.34 -43.80,51.37 -43.54,51.40 -43.29,51.51 -43.05,51.63 -42.86,51.81 -42.66,52.00 -42.54,52.24 -42.42,52.48 -42.37,52.74 -42.33,53.01 -42.38,53.27 -42.43,53.54 -42.55,53.78 -42.68,54.01 -42.88,54.20 -43.07,54.38 -43.32,54.49 -43.56,54.60 -43.83,54.63 -44.10,54.65 -44.36,54.59 -44.62,54.53 -44.85,54.39 -45.08,54.25 -45.25,54.05 -45.43,53.84 -45.52,53.59 -45.62,53.34 -45.63,53.07 -45.64,52.80 -45.57,52.54 -45.50,52.28 -45.34,52.06 -45.19,51.84 -44.98,51.68 -44.76,51.52 -44.50,51.44 -44.25,51.35 -43.98,51.36 -43.71,51.36 -43.71,51.36 -43.71,51.36 -40.94,51.77 -38.16,52.19 -34.46,52.74 -30.75,53.29 -24.11,54.01 -17.48,54.73 -11.79,54.54 -6.11,54.34 -4.17,53.99 -2.23,53.64 -2.07,51.91 -1.91,50.19 -1.82,48.96 -1.73,47.74 -1.66,46.22 -1.58,44.69 -1.49,43.13 -1.40,41.57 -1.41,39.26 -1.43,36.94 -1.45,34.20 -1.47,31.46 -1.50,28.39 -1.54,25.32 -1.58,21.47 -1.62,17.63 -1.68,11.98 -1.74,6.32 -1.82,3.16 -1.89,0 -1.87,-0.22 -1.84,-0.45 -1.76,-0.66 -1.68,-0.88 -1.55,-1.07 -1.42,-1.25 -1.25,-1.41 -1.07,-1.56 -0.87,-1.66 -0.67,-1.77 -0.45,-1.83 -0.22,-1.88 0.00,-1.88 0.22,-1.88 0.45,-1.83 0.67,-1.77 0.87,-1.66 1.07,-1.56 1.25,-1.41 1.42,-1.25 1.55,-1.07 1.68,-0.88 1.76,-0.66 1.84,-0.45 1.87,-0.22 1.89,0.00 1.89,0.00 L 1.89,0 Z"></path></g><g transform="translate(318 500) rotate(0 5 23.5)" stroke="none"><path fill="#e03131" d="M 1.72,-0.47 Q 1.72,-0.47 3.39,5.87 5.05,12.21 6.33,19.28 7.60,26.36 8.70,31.92 9.79,37.47 10.25,40.15 10.71,42.82 11.08,44.77 11.45,46.73 11.45,46.97 11.45,47.21 11.38,47.44 11.31,47.66 11.17,47.86 11.03,48.05 10.83,48.19 10.64,48.32 10.41,48.39 10.18,48.46 9.94,48.45 9.70,48.44 9.48,48.36 9.26,48.27 9.07,48.12 8.89,47.97 8.76,47.77 8.63,47.56 8.58,47.33 8.52,47.10 8.55,46.86 8.57,46.62 8.66,46.41 8.76,46.19 8.92,46.01 9.08,45.84 9.29,45.72 9.50,45.61 9.74,45.56 9.97,45.52 10.21,45.56 10.44,45.59 10.65,45.70 10.87,45.81 11.03,45.98 11.20,46.15 11.30,46.36 11.41,46.58 11.44,46.81 11.47,47.05 11.42,47.28 11.37,47.52 11.25,47.72 11.13,47.93 10.96,48.09 10.78,48.25 10.56,48.34 10.34,48.43 10.10,48.45 9.86,48.46 9.63,48.40 9.40,48.34 9.20,48.21 9.00,48.08 8.85,47.89 8.70,47.71 8.62,47.48 8.54,47.26 8.54,47.26 8.54,47.26 8.20,45.30 7.86,43.33 7.36,40.70 6.85,38.07 5.69,32.50 4.52,26.93 3.18,20.01 1.84,13.08 0.05,6.77 -1.72,0.47 -1.76,0.25 -1.79,0.04 -1.77,-0.17 -1.75,-0.38 -1.67,-0.58 -1.60,-0.79 -1.48,-0.97 -1.37,-1.15 -1.21,-1.30 -1.05,-1.44 -0.86,-1.55 -0.67,-1.65 -0.46,-1.71 -0.25,-1.77 -0.04,-1.77 0.17,-1.78 0.38,-1.73 0.59,-1.69 0.78,-1.59 0.98,-1.49 1.14,-1.36 1.31,-1.22 1.43,-1.04 1.56,-0.87 1.64,-0.67 1.72,-0.47 1.72,-0.47 L 1.72,-0.47 Z"></path></g><g transform="translate(315 502) rotate(0 132.5 -2)" stroke="none"><path fill="#e03131" d="M -0.28,-1.62 Q -0.28,-1.62 4.61,-2.43 9.50,-3.25 44.48,-3.60 79.46,-3.94 101.75,-4.07 124.04,-4.21 159.96,-4.25 195.89,-4.30 214.88,-4.61 233.88,-4.91 242.82,-5.03 251.76,-5.16 258.37,-5.25 264.97,-5.34 265.19,-5.31 265.41,-5.28 265.60,-5.18 265.80,-5.08 265.95,-4.92 266.10,-4.77 266.19,-4.57 266.29,-4.38 266.32,-4.16 266.34,-3.94 266.30,-3.73 266.26,-3.51 266.15,-3.33 266.04,-3.14 265.87,-2.99 265.71,-2.85 265.51,-2.77 265.30,-2.68 265.09,-2.67 264.87,-2.65 264.66,-2.71 264.45,-2.76 264.26,-2.88 264.08,-3.00 263.95,-3.17 263.81,-3.35 263.74,-3.55 263.67,-3.76 263.66,-3.98 263.66,-4.19 263.73,-4.40 263.79,-4.61 263.92,-4.78 264.05,-4.96 264.23,-5.09 264.41,-5.21 264.62,-5.27 264.83,-5.33 265.05,-5.33 265.27,-5.32 265.47,-5.24 265.67,-5.16 265.84,-5.02 266.01,-4.88 266.13,-4.70 266.24,-4.51 266.29,-4.30 266.34,-4.09 266.32,-3.87 266.30,-3.65 266.21,-3.45 266.12,-3.25 265.97,-3.09 265.83,-2.93 265.64,-2.83 265.44,-2.72 265.23,-2.68 265.01,-2.65 265.02,-2.65 265.02,-2.65 258.41,-2.54 251.80,-2.43 242.86,-2.29 233.92,-2.15 214.91,-1.82 195.90,-1.49 159.98,-1.41 124.06,-1.32 101.77,-1.14 79.49,-0.96 44.76,-0.58 10.04,-0.19 5.16,0.71 0.28,1.62 0.08,1.63 -0.11,1.64 -0.30,1.60 -0.50,1.56 -0.68,1.48 -0.86,1.40 -1.01,1.27 -1.17,1.15 -1.29,0.99 -1.41,0.84 -1.49,0.66 -1.57,0.47 -1.60,0.28 -1.64,0.08 -1.63,-0.10 -1.61,-0.30 -1.55,-0.49 -1.49,-0.68 -1.39,-0.85 -1.28,-1.02 -1.14,-1.16 -1.00,-1.30 -0.83,-1.40 -0.66,-1.50 -0.47,-1.56 -0.28,-1.62 -0.28,-1.62 L -0.28,-1.62 Z"></path></g><g transform="translate(554 495) rotate(0 1.5 23)" stroke="none"><path fill="#e03131" d="M 1.74,-0.20 Q 1.74,-0.20 2.54,7.28 3.35,14.76 3.67,19.70 4.00,24.63 3.84,30.53 3.67,36.42 3.30,39.54 2.93,42.65 2.66,44.90 2.39,47.15 2.33,47.37 2.27,47.59 2.14,47.78 2.01,47.96 1.83,48.10 1.65,48.24 1.43,48.31 1.22,48.38 0.99,48.38 0.76,48.38 0.55,48.31 0.33,48.23 0.15,48.09 -0.02,47.96 -0.14,47.77 -0.27,47.58 -0.33,47.36 -0.39,47.14 -0.38,46.91 -0.37,46.69 -0.28,46.48 -0.20,46.27 -0.05,46.09 0.09,45.92 0.29,45.80 0.48,45.69 0.70,45.64 0.92,45.59 1.15,45.62 1.38,45.64 1.58,45.74 1.79,45.84 1.95,45.99 2.12,46.15 2.22,46.35 2.33,46.55 2.36,46.78 2.40,47.00 2.36,47.22 2.32,47.45 2.22,47.65 2.11,47.85 1.94,48.00 1.78,48.16 1.57,48.25 1.37,48.35 1.14,48.37 0.91,48.40 0.69,48.35 0.47,48.30 0.28,48.18 0.08,48.06 -0.05,47.89 -0.20,47.71 -0.28,47.50 -0.37,47.29 -0.38,47.06 -0.39,46.84 -0.39,46.84 -0.39,46.84 -0.15,44.58 0.07,42.33 0.39,39.34 0.70,36.36 0.81,30.61 0.91,24.86 0.50,20.00 0.09,15.13 -0.82,7.66 -1.74,0.20 -1.74,-0.01 -1.74,-0.22 -1.69,-0.42 -1.64,-0.63 -1.54,-0.82 -1.44,-1.00 -1.29,-1.16 -1.15,-1.32 -0.98,-1.44 -0.80,-1.56 -0.60,-1.63 -0.41,-1.71 -0.20,-1.73 0.01,-1.75 0.22,-1.73 0.43,-1.70 0.62,-1.62 0.82,-1.55 1.00,-1.43 1.17,-1.30 1.31,-1.14 1.45,-0.99 1.55,-0.80 1.64,-0.61 1.69,-0.40 1.74,-0.20 1.74,-0.20 L 1.74,-0.20 Z"></path></g><g transform="translate(328 547) rotate(0 112.5 -2.5)" stroke="none"><path fill="#e03131" d="M 0,-1.56 Q 0,-1.56 3.44,-1.52 6.89,-1.49 19.29,-1.46 31.68,-1.44 50.74,-1.42 69.81,-1.40 86.54,-1.39 103.27,-1.38 117.56,-1.37 131.86,-1.36 142.82,-1.35 153.79,-1.34 161.03,-1.34 168.28,-1.33 172.80,-1.33 177.32,-1.33 179.81,-1.32 182.30,-1.32 184.12,-1.64 185.94,-1.96 188.87,-2.93 191.79,-3.90 195.86,-4.36 199.94,-4.82 203.40,-4.99 206.86,-5.17 208.90,-5.26 210.94,-5.35 212.38,-5.48 213.82,-5.62 216.30,-6.20 218.79,-6.79 221.88,-7.04 224.97,-7.28 225.33,-7.23 225.70,-7.17 226.03,-7.00 226.36,-6.83 226.62,-6.57 226.87,-6.30 227.03,-5.97 227.19,-5.63 227.24,-5.26 227.28,-4.90 227.20,-4.54 227.13,-4.17 226.94,-3.85 226.75,-3.53 226.48,-3.29 226.20,-3.05 225.85,-2.91 225.51,-2.77 225.14,-2.74 224.77,-2.72 224.42,-2.81 224.06,-2.91 223.75,-3.11 223.44,-3.32 223.21,-3.61 222.99,-3.90 222.86,-4.25 222.74,-4.60 222.74,-4.97 222.73,-5.34 222.85,-5.69 222.96,-6.04 223.18,-6.34 223.40,-6.64 223.71,-6.85 224.01,-7.06 224.37,-7.16 224.72,-7.27 225.09,-7.25 225.46,-7.23 225.81,-7.10 226.15,-6.97 226.44,-6.73 226.72,-6.50 226.92,-6.18 227.11,-5.87 227.19,-5.51 227.28,-5.14 227.24,-4.78 227.21,-4.41 227.05,-4.07 226.90,-3.73 226.65,-3.46 226.40,-3.19 226.07,-3.01 225.75,-2.84 225.39,-2.77 225.02,-2.71 225.02,-2.71 225.02,-2.71 222.09,-2.76 219.16,-2.82 217.93,-2.78 216.70,-2.74 215.31,-2.50 213.93,-2.27 212.49,-2.32 211.06,-2.38 209.05,-2.30 207.04,-2.21 203.67,-1.98 200.31,-1.74 196.43,-1.23 192.56,-0.72 190.75,-0.29 188.93,0.14 187.65,0.48 186.37,0.81 184.34,1.07 182.31,1.32 179.81,1.32 177.32,1.33 172.80,1.33 168.28,1.33 161.03,1.34 153.79,1.34 142.82,1.35 131.86,1.36 117.56,1.37 103.27,1.38 86.54,1.39 69.81,1.40 50.74,1.42 31.68,1.44 19.29,1.46 6.89,1.49 3.44,1.52 0,1.56 -0.18,1.53 -0.37,1.51 -0.54,1.45 -0.72,1.38 -0.88,1.27 -1.03,1.16 -1.16,1.02 -1.28,0.88 -1.37,0.72 -1.46,0.55 -1.50,0.37 -1.55,0.18 -1.55,-0.00 -1.55,-0.18 -1.50,-0.37 -1.46,-0.55 -1.37,-0.72 -1.28,-0.88 -1.16,-1.02 -1.03,-1.16 -0.88,-1.27 -0.72,-1.38 -0.54,-1.45 -0.37,-1.51 -0.18,-1.53 0.00,-1.56 0.00,-1.56 L 0,-1.56 Z"></path></g><g transform="translate(468 576) rotate(0 -0.5 5)" stroke="none"><path fill="#e03131" d="M 2.14,0.30 Q 2.14,0.30 1.77,2.30 1.39,4.30 1.25,7.22 1.11,10.15 1.03,10.48 0.95,10.81 0.77,11.10 0.58,11.39 0.32,11.61 0.06,11.83 -0.25,11.95 -0.58,12.07 -0.92,12.08 -1.26,12.09 -1.59,12.00 -1.92,11.90 -2.20,11.70 -2.48,11.51 -2.68,11.23 -2.88,10.95 -2.98,10.63 -3.09,10.30 -3.08,9.96 -3.08,9.62 -2.96,9.29 -2.85,8.97 -2.64,8.70 -2.42,8.43 -2.14,8.25 -1.85,8.06 -1.52,7.97 -1.19,7.89 -0.85,7.91 -0.51,7.94 -0.19,8.07 0.12,8.20 0.37,8.43 0.63,8.65 0.80,8.95 0.97,9.25 1.04,9.58 1.11,9.92 1.07,10.26 1.02,10.60 0.88,10.90 0.73,11.21 0.49,11.46 0.25,11.70 -0.05,11.86 -0.35,12.01 -0.69,12.06 -1.03,12.11 -1.37,12.05 -1.70,11.99 -2.00,11.82 -2.30,11.66 -2.54,11.40 -2.77,11.15 -2.90,10.84 -3.04,10.53 -3.07,10.19 -3.11,9.84 -3.11,9.84 -3.11,9.84 -2.82,6.79 -2.54,3.74 -2.34,1.71 -2.14,-0.30 -2.07,-0.55 -2.00,-0.81 -1.88,-1.03 -1.75,-1.26 -1.57,-1.45 -1.40,-1.65 -1.18,-1.79 -0.96,-1.93 -0.71,-2.02 -0.47,-2.11 -0.21,-2.13 0.04,-2.16 0.30,-2.12 0.56,-2.09 0.80,-1.99 1.04,-1.89 1.25,-1.74 1.47,-1.59 1.63,-1.39 1.80,-1.19 1.92,-0.95 2.04,-0.72 2.09,-0.47 2.15,-0.21 2.14,0.04 2.14,0.30 2.14,0.30 L 2.14,0.30 Z"></path></g><g transform="translate(467 611) rotate(0 0 2.5)" stroke="none"><path fill="#e03131" d="M 2.12,-0.66 Q 2.12,-0.66 2.15,-0.13 2.18,0.40 1.96,0.88 1.74,1.36 1.32,1.69 0.91,2.02 0.38,2.12 -0.13,2.21 -0.64,2.05 -1.14,1.90 -1.52,1.52 -1.90,1.14 -2.05,0.64 -2.21,0.13 -2.12,-0.38 -2.02,-0.91 -1.69,-1.32 -1.36,-1.74 -0.88,-1.96 -0.39,-2.18 0.13,-2.15 0.66,-2.11 1.11,-1.84 1.57,-1.56 1.84,-1.11 L 2.12,-0.66 Z"></path></g><g transform="translate(468 644) rotate(0 0.5 11.5)" stroke="none"><path fill="#e03131" d="M 1.95,-0.13 Q 1.95,-0.13 2.15,4.18 2.35,8.50 2.41,12.09 2.47,15.68 2.49,17.77 2.50,19.87 2.61,21.41 2.73,22.95 2.69,23.23 2.65,23.51 2.52,23.76 2.40,24.01 2.20,24.21 2.00,24.40 1.75,24.53 1.50,24.65 1.22,24.69 0.94,24.73 0.67,24.67 0.39,24.62 0.15,24.48 -0.08,24.34 -0.27,24.13 -0.46,23.92 -0.57,23.67 -0.68,23.41 -0.70,23.13 -0.72,22.85 -0.65,22.58 -0.58,22.31 -0.43,22.07 -0.28,21.84 -0.06,21.66 0.15,21.49 0.41,21.39 0.67,21.29 0.95,21.29 1.23,21.28 1.50,21.36 1.77,21.45 2.00,21.61 2.22,21.77 2.39,22.00 2.55,22.23 2.63,22.50 2.71,22.77 2.70,23.05 2.69,23.33 2.60,23.59 2.50,23.85 2.32,24.07 2.15,24.29 1.91,24.44 1.68,24.59 1.40,24.65 1.13,24.72 0.85,24.70 0.57,24.67 0.32,24.56 0.06,24.45 -0.14,24.26 -0.35,24.08 -0.48,23.83 -0.62,23.59 -0.67,23.31 -0.73,23.04 -0.73,23.04 -0.73,23.04 -0.69,21.49 -0.65,19.95 -0.74,17.87 -0.83,15.79 -1.02,12.27 -1.20,8.74 -1.57,4.43 -1.95,0.13 -1.93,-0.10 -1.92,-0.34 -1.85,-0.56 -1.78,-0.79 -1.66,-0.99 -1.54,-1.19 -1.38,-1.36 -1.21,-1.53 -1.01,-1.65 -0.81,-1.77 -0.58,-1.85 -0.36,-1.92 -0.12,-1.93 0.10,-1.95 0.33,-1.91 0.57,-1.87 0.78,-1.77 1.00,-1.68 1.18,-1.53 1.37,-1.39 1.52,-1.20 1.66,-1.02 1.76,-0.80 1.86,-0.59 1.90,-0.36 1.95,-0.12 1.95,-0.13 L 1.95,-0.13 Z"></path></g><g transform="translate(468 681) rotate(0 0 3.5)" stroke="none"><path fill="#e03131" d="M 2.13,0 Q 2.13,0 2.12,1.72 2.10,3.44 2.17,4.47 2.24,5.49 2.21,5.75 2.17,6.02 2.08,6.28 1.98,6.53 1.83,6.75 1.68,6.97 1.47,7.15 1.27,7.33 1.03,7.46 0.79,7.59 0.53,7.65 0.27,7.71 -0.00,7.71 -0.27,7.71 -0.53,7.65 -0.79,7.59 -1.03,7.46 -1.27,7.33 -1.47,7.15 -1.68,6.97 -1.83,6.75 -1.98,6.53 -2.08,6.28 -2.17,6.02 -2.21,5.75 -2.24,5.49 -2.07,2.74 -1.89,0 -1.84,-0.30 -1.79,-0.60 -1.65,-0.87 -1.50,-1.14 -1.28,-1.35 -1.06,-1.56 -0.78,-1.69 -0.50,-1.82 -0.20,-1.86 0.10,-1.89 0.40,-1.82 0.70,-1.76 0.96,-1.60 1.22,-1.44 1.42,-1.21 1.62,-0.97 1.73,-0.69 1.85,-0.40 1.86,-0.10 1.88,0.20 1.80,0.50 1.72,0.79 1.54,1.05 1.37,1.30 1.13,1.48 0.88,1.67 0.59,1.77 0.30,1.87 -0.00,1.87 -0.30,1.87 -0.59,1.77 -0.88,1.67 -1.13,1.48 -1.37,1.30 -1.54,1.04 -1.72,0.79 -1.80,0.50 -1.88,0.20 -1.86,-0.10 -1.85,-0.40 -1.73,-0.69 -1.62,-0.97 -1.42,-1.21 -1.22,-1.44 -0.96,-1.60 -0.70,-1.76 -0.40,-1.82 -0.10,-1.89 0.20,-1.86 0.50,-1.82 0.78,-1.69 1.06,-1.56 1.28,-1.35 1.51,-1.14 1.65,-0.87 1.79,-0.60 1.84,-0.30 1.89,0.00 1.89,0.00 1.89,0 2.07,2.74 2.24,5.49 2.21,5.75 2.17,6.02 2.08,6.28 1.98,6.53 1.83,6.75 1.68,6.97 1.47,7.15 1.27,7.33 1.03,7.46 0.79,7.59 0.53,7.65 0.27,7.71 0.00,7.71 -0.27,7.71 -0.53,7.65 -0.79,7.59 -1.03,7.46 -1.27,7.33 -1.47,7.15 -1.68,6.97 -1.83,6.75 -1.98,6.53 -2.08,6.28 -2.17,6.02 -2.21,5.75 -2.24,5.49 -2.17,4.47 -2.10,3.44 -2.12,1.72 -2.13,0 -2.10,-0.25 -2.07,-0.51 -1.98,-0.75 -1.89,-0.99 -1.74,-1.20 -1.59,-1.41 -1.40,-1.58 -1.21,-1.75 -0.98,-1.87 -0.75,-1.99 -0.50,-2.05 -0.25,-2.12 0.00,-2.12 0.25,-2.12 0.50,-2.05 0.75,-1.99 0.98,-1.87 1.21,-1.75 1.40,-1.58 1.59,-1.41 1.74,-1.20 1.89,-0.99 1.98,-0.75 2.07,-0.51 2.10,-0.25 2.13,0.00 2.13,0.00 L 2.13,0 Z"></path></g><g transform="translate(568 336) rotate(0 27 0)" stroke="none"><path fill="#e03131" d="M 0,-1.75 Q 0,-1.75 4.31,-1.69 8.62,-1.63 17.64,-1.59 26.66,-1.54 33.94,-1.51 41.23,-1.48 44.90,-1.46 48.57,-1.43 51.28,-1.42 54,-1.40 54.22,-1.36 54.44,-1.33 54.64,-1.22 54.84,-1.11 55.00,-0.95 55.16,-0.78 55.25,-0.58 55.35,-0.37 55.37,-0.14 55.40,0.07 55.35,0.29 55.30,0.51 55.18,0.71 55.07,0.90 54.89,1.05 54.72,1.20 54.51,1.28 54.30,1.37 54.07,1.38 53.84,1.39 53.62,1.33 53.41,1.27 53.22,1.14 53.03,1.01 52.89,0.83 52.75,0.65 52.68,0.44 52.61,0.22 52.61,-0.00 52.61,-0.22 52.68,-0.44 52.75,-0.65 52.89,-0.83 53.03,-1.01 53.22,-1.14 53.41,-1.27 53.62,-1.33 53.84,-1.39 54.07,-1.38 54.30,-1.37 54.51,-1.28 54.72,-1.20 54.89,-1.05 55.07,-0.90 55.18,-0.71 55.30,-0.51 55.35,-0.29 55.40,-0.07 55.37,0.15 55.35,0.37 55.25,0.58 55.16,0.78 55.00,0.95 54.84,1.11 54.64,1.22 54.44,1.33 54.22,1.36 53.99,1.40 53.99,1.40 54,1.40 51.28,1.42 48.57,1.43 44.90,1.46 41.23,1.48 33.94,1.51 26.66,1.54 17.64,1.59 8.62,1.63 4.31,1.69 0,1.75 -0.21,1.73 -0.42,1.70 -0.61,1.63 -0.81,1.55 -0.99,1.43 -1.16,1.31 -1.30,1.15 -1.44,0.99 -1.54,0.81 -1.64,0.62 -1.69,0.41 -1.74,0.21 -1.74,-0.00 -1.74,-0.21 -1.69,-0.41 -1.64,-0.62 -1.54,-0.81 -1.44,-0.99 -1.30,-1.15 -1.16,-1.31 -0.99,-1.43 -0.81,-1.55 -0.61,-1.63 -0.42,-1.70 -0.21,-1.73 0.00,-1.75 0.00,-1.75 L 0,-1.75 Z"></path></g><g transform="translate(613 331) rotate(0 6 7.5)" stroke="none"><path fill="#e03131" d="M 0.87,-1.74 Q 0.87,-1.74 3.13,-0.52 5.39,0.70 7.17,1.48 8.94,2.26 10.89,3.23 12.83,4.20 13.74,5.03 14.65,5.87 14.62,7.02 14.59,8.18 13.45,9.16 12.31,10.14 8.67,11.71 5.02,13.29 2.92,14.20 0.81,15.11 -0.70,15.87 -2.22,16.63 -2.50,16.71 -2.78,16.79 -3.08,16.78 -3.37,16.76 -3.64,16.66 -3.91,16.55 -4.14,16.36 -4.36,16.18 -4.51,15.93 -4.67,15.68 -4.73,15.39 -4.80,15.11 -4.77,14.82 -4.74,14.53 -4.62,14.26 -4.50,13.99 -4.30,13.78 -4.10,13.57 -3.84,13.43 -3.59,13.29 -3.30,13.24 -3.01,13.19 -2.72,13.23 -2.43,13.28 -2.17,13.41 -1.91,13.55 -1.71,13.76 -1.51,13.97 -1.38,14.23 -1.26,14.50 -1.22,14.79 -1.19,15.08 -1.25,15.36 -1.31,15.65 -1.46,15.90 -1.61,16.15 -1.83,16.34 -2.05,16.53 -2.32,16.65 -2.59,16.76 -2.88,16.77 -3.17,16.79 -3.46,16.72 -3.74,16.64 -3.98,16.48 -4.23,16.32 -4.40,16.09 -4.58,15.86 -4.68,15.58 -4.78,15.30 -4.78,15.01 -4.78,14.72 -4.69,14.44 -4.60,14.16 -4.42,13.93 -4.25,13.69 -4.01,13.53 -3.77,13.36 -3.77,13.36 -3.77,13.36 -2.22,12.67 -0.66,11.97 1.38,10.91 3.43,9.85 7.44,8.48 11.45,7.11 9.53,6.27 7.61,5.43 5.70,4.66 3.80,3.89 1.46,2.82 -0.87,1.74 -1.07,1.61 -1.26,1.48 -1.42,1.31 -1.58,1.14 -1.69,0.93 -1.81,0.72 -1.87,0.50 -1.93,0.27 -1.93,0.03 -1.94,-0.19 -1.89,-0.42 -1.84,-0.65 -1.73,-0.86 -1.62,-1.07 -1.47,-1.25 -1.32,-1.43 -1.13,-1.57 -0.94,-1.71 -0.72,-1.80 -0.50,-1.88 -0.27,-1.92 -0.03,-1.95 0.19,-1.93 0.43,-1.90 0.65,-1.82 0.87,-1.74 0.87,-1.74 L 0.87,-1.74 Z"></path></g><g transform="translate(566 422) rotate(0 19 1.5)" stroke="none"><path fill="#e03131" d="M 0.66,-1.99 Q 0.66,-1.99 2.37,-1.38 4.08,-0.78 8.62,-0.20 13.17,0.37 18.29,0.67 23.40,0.96 26.46,1.11 29.51,1.26 31.38,1.28 33.25,1.30 35.63,1.25 38.01,1.19 38.30,1.24 38.59,1.29 38.84,1.43 39.10,1.57 39.30,1.78 39.50,2.00 39.62,2.26 39.74,2.53 39.77,2.82 39.80,3.11 39.73,3.40 39.67,3.68 39.51,3.93 39.36,4.18 39.13,4.36 38.91,4.55 38.64,4.66 38.37,4.76 38.07,4.77 37.78,4.79 37.50,4.71 37.22,4.63 36.98,4.46 36.74,4.29 36.57,4.06 36.39,3.82 36.30,3.55 36.21,3.27 36.21,2.98 36.22,2.69 36.31,2.41 36.41,2.13 36.59,1.90 36.77,1.67 37.01,1.51 37.25,1.35 37.54,1.27 37.82,1.20 38.11,1.22 38.40,1.24 38.67,1.35 38.94,1.46 39.16,1.65 39.38,1.84 39.53,2.09 39.68,2.34 39.74,2.63 39.80,2.92 39.76,3.21 39.73,3.50 39.60,3.76 39.48,4.02 39.28,4.23 39.07,4.44 38.81,4.58 38.55,4.71 38.27,4.76 37.98,4.80 37.98,4.80 37.98,4.80 35.58,4.68 33.18,4.57 31.30,4.51 29.41,4.45 26.33,4.41 23.26,4.36 18.01,4.20 12.76,4.04 7.78,3.56 2.81,3.08 1.07,2.53 -0.66,1.99 -0.89,1.88 -1.12,1.77 -1.31,1.61 -1.51,1.45 -1.66,1.25 -1.81,1.04 -1.91,0.81 -2.01,0.58 -2.05,0.33 -2.09,0.08 -2.07,-0.16 -2.05,-0.41 -1.97,-0.65 -1.89,-0.89 -1.76,-1.11 -1.62,-1.32 -1.44,-1.50 -1.26,-1.67 -1.04,-1.80 -0.82,-1.92 -0.58,-2.00 -0.33,-2.07 -0.08,-2.08 0.16,-2.09 0.41,-2.04 0.66,-1.99 0.66,-1.99 L 0.66,-1.99 Z"></path></g><g transform="translate(595 415) rotate(0 7 7.5)" stroke="none"><path fill="#e03131" d="M 0.64,-2.25 Q 0.64,-2.25 2.62,-1.56 4.60,-0.86 7.26,0.38 9.93,1.62 11.42,2.40 12.91,3.17 13.81,3.94 14.71,4.71 15.24,6.14 15.76,7.57 14.93,9.67 14.10,11.77 13.47,12.84 12.85,13.91 10.66,15.99 8.48,18.07 8.11,18.26 7.74,18.44 7.33,18.49 6.92,18.55 6.51,18.47 6.11,18.39 5.75,18.19 5.39,17.98 5.12,17.67 4.84,17.37 4.68,16.99 4.52,16.61 4.48,16.19 4.45,15.78 4.55,15.38 4.65,14.98 4.87,14.63 5.10,14.29 5.42,14.03 5.74,13.77 6.13,13.63 6.52,13.49 6.93,13.48 7.35,13.47 7.74,13.59 8.14,13.71 8.47,13.95 8.81,14.19 9.05,14.53 9.29,14.87 9.41,15.26 9.53,15.66 9.51,16.07 9.50,16.48 9.36,16.87 9.22,17.26 8.96,17.58 8.70,17.90 8.35,18.12 8.00,18.34 7.60,18.44 7.20,18.54 6.78,18.51 6.37,18.47 5.99,18.31 5.61,18.14 5.31,17.87 5.00,17.59 4.80,17.23 4.60,16.87 4.52,16.46 4.44,16.06 4.50,15.65 4.56,15.24 4.74,14.87 4.92,14.50 5.22,14.21 5.51,13.92 5.51,13.92 5.51,13.92 6.71,13.18 7.91,12.44 9.02,11.10 10.12,9.77 10.55,8.17 10.98,6.58 9.71,5.84 8.44,5.09 5.94,4.13 3.44,3.16 1.40,2.71 -0.64,2.25 -0.90,2.14 -1.16,2.03 -1.39,1.87 -1.62,1.70 -1.80,1.48 -1.98,1.26 -2.10,1.00 -2.22,0.75 -2.28,0.47 -2.34,0.19 -2.33,-0.08 -2.32,-0.36 -2.24,-0.64 -2.16,-0.91 -2.02,-1.15 -1.88,-1.40 -1.68,-1.61 -1.49,-1.81 -1.25,-1.96 -1.01,-2.11 -0.74,-2.21 -0.47,-2.30 -0.19,-2.32 0.08,-2.34 0.36,-2.30 0.64,-2.25 0.64,-2.25 L 0.64,-2.25 Z"></path></g><g transform="translate(575 513) rotate(0 26 0)" stroke="none"><path fill="#e03131" d="M 0,-1.75 Q 0,-1.75 2.58,-1.69 5.17,-1.63 15.76,-1.59 26.34,-1.54 32.86,-1.51 39.37,-1.48 43.00,-1.46 46.63,-1.43 49.31,-1.42 52,-1.40 52.22,-1.36 52.44,-1.33 52.64,-1.22 52.84,-1.11 53.00,-0.95 53.16,-0.78 53.25,-0.58 53.35,-0.37 53.37,-0.14 53.40,0.07 53.35,0.29 53.30,0.51 53.18,0.71 53.07,0.90 52.89,1.05 52.72,1.20 52.51,1.28 52.30,1.37 52.07,1.38 51.84,1.39 51.62,1.33 51.41,1.27 51.22,1.14 51.03,1.01 50.89,0.83 50.75,0.65 50.68,0.44 50.61,0.22 50.61,-0.00 50.61,-0.22 50.68,-0.44 50.75,-0.65 50.89,-0.83 51.03,-1.01 51.22,-1.14 51.41,-1.27 51.62,-1.33 51.84,-1.39 52.07,-1.38 52.30,-1.37 52.51,-1.28 52.72,-1.20 52.89,-1.05 53.07,-0.90 53.18,-0.71 53.30,-0.51 53.35,-0.29 53.40,-0.07 53.37,0.15 53.35,0.37 53.25,0.58 53.16,0.78 53.00,0.95 52.84,1.11 52.64,1.22 52.44,1.33 52.22,1.36 51.99,1.40 51.99,1.40 52,1.40 49.31,1.42 46.63,1.43 43.00,1.46 39.37,1.48 32.86,1.51 26.34,1.54 15.76,1.59 5.17,1.63 2.58,1.69 0,1.75 -0.21,1.73 -0.42,1.70 -0.61,1.63 -0.81,1.55 -0.99,1.43 -1.16,1.31 -1.30,1.15 -1.44,0.99 -1.54,0.81 -1.64,0.62 -1.69,0.41 -1.74,0.21 -1.74,-0.00 -1.74,-0.21 -1.69,-0.41 -1.64,-0.62 -1.54,-0.81 -1.44,-0.99 -1.30,-1.15 -1.16,-1.31 -0.99,-1.43 -0.81,-1.55 -0.61,-1.63 -0.42,-1.70 -0.21,-1.73 0.00,-1.75 0.00,-1.75 L 0,-1.75 Z"></path></g><g transform="translate(620 501) rotate(0 3 13.5)" stroke="none"><path fill="#e03131" d="M 1.22,-1.63 Q 1.22,-1.63 3.46,0.16 5.70,1.97 6.91,2.59 8.11,3.21 9.22,3.74 10.34,4.26 11.41,4.95 12.49,5.65 11.85,8.66 11.21,11.68 7.15,15.95 3.09,20.23 1.11,22.22 -0.86,24.21 -2.71,26.28 -4.56,28.36 -4.82,28.55 -5.07,28.74 -5.37,28.84 -5.68,28.95 -6.00,28.95 -6.32,28.95 -6.62,28.84 -6.92,28.74 -7.18,28.55 -7.43,28.35 -7.61,28.09 -7.79,27.82 -7.88,27.51 -7.96,27.21 -7.94,26.89 -7.93,26.57 -7.81,26.27 -7.69,25.97 -7.48,25.73 -7.27,25.49 -7.00,25.32 -6.72,25.16 -6.41,25.09 -6.10,25.02 -5.78,25.06 -5.46,25.09 -5.17,25.23 -4.88,25.36 -4.65,25.58 -4.42,25.80 -4.27,26.08 -4.12,26.37 -4.07,26.68 -4.02,27.00 -4.07,27.31 -4.12,27.63 -4.27,27.91 -4.42,28.19 -4.66,28.41 -4.89,28.63 -5.18,28.77 -5.47,28.90 -5.79,28.93 -6.10,28.97 -6.42,28.90 -6.73,28.83 -7.00,28.67 -7.28,28.50 -7.48,28.26 -7.69,28.01 -7.81,27.71 -7.93,27.42 -7.94,27.10 -7.96,26.78 -7.87,26.47 -7.79,26.16 -7.61,25.90 -7.43,25.63 -7.43,25.63 -7.43,25.63 -5.46,23.69 -3.50,21.74 -1.66,19.64 0.17,17.54 4.26,12.75 8.36,7.95 7.25,7.28 6.14,6.61 4.81,5.77 3.49,4.92 1.13,3.28 -1.22,1.63 -1.40,1.46 -1.58,1.29 -1.71,1.08 -1.84,0.87 -1.92,0.64 -1.99,0.41 -2.01,0.16 -2.03,-0.08 -2.00,-0.32 -1.96,-0.56 -1.86,-0.79 -1.76,-1.01 -1.62,-1.21 -1.47,-1.41 -1.28,-1.56 -1.09,-1.72 -0.87,-1.83 -0.64,-1.93 -0.40,-1.98 -0.16,-2.03 0.07,-2.02 0.32,-2.01 0.56,-1.94 0.79,-1.87 1.01,-1.75 1.22,-1.63 1.22,-1.63 L 1.22,-1.63 Z"></path></g><g transform="translate(655 318) rotate(0 0.5 17.5)" stroke="none"><path fill="#e03131" d="M 1.90,0 Q 1.90,0 1.82,8.62 1.74,17.24 1.97,22.30 2.20,27.36 2.37,31.13 2.54,34.91 2.51,35.16 2.48,35.40 2.38,35.63 2.27,35.86 2.10,36.04 1.93,36.22 1.71,36.34 1.49,36.46 1.24,36.50 1.00,36.54 0.75,36.50 0.51,36.46 0.28,36.34 0.06,36.23 -0.10,36.04 -0.27,35.86 -0.38,35.64 -0.48,35.41 -0.51,35.16 -0.54,34.91 -0.48,34.67 -0.43,34.43 -0.30,34.21 -0.17,34.00 0.01,33.84 0.20,33.67 0.43,33.58 0.66,33.49 0.91,33.47 1.16,33.46 1.40,33.53 1.64,33.59 1.85,33.73 2.05,33.87 2.21,34.07 2.36,34.27 2.44,34.51 2.52,34.74 2.52,34.99 2.52,35.24 2.44,35.48 2.36,35.72 2.21,35.91 2.06,36.11 1.85,36.25 1.65,36.39 1.41,36.46 1.16,36.53 0.92,36.52 0.67,36.50 0.43,36.41 0.20,36.32 0.01,36.16 -0.17,36.00 -0.30,35.78 -0.43,35.57 -0.48,35.33 -0.54,35.08 -0.54,35.08 -0.54,35.08 -0.79,31.31 -1.05,27.54 -1.40,22.39 -1.74,17.25 -1.82,8.62 -1.90,0 -1.87,-0.22 -1.85,-0.45 -1.77,-0.67 -1.68,-0.88 -1.55,-1.07 -1.42,-1.26 -1.25,-1.41 -1.08,-1.56 -0.87,-1.67 -0.67,-1.78 -0.45,-1.83 -0.22,-1.89 0.00,-1.89 0.22,-1.89 0.45,-1.83 0.67,-1.78 0.87,-1.67 1.08,-1.56 1.25,-1.41 1.42,-1.26 1.55,-1.07 1.68,-0.88 1.77,-0.67 1.85,-0.45 1.87,-0.22 1.90,0.00 1.90,0.00 L 1.90,0 Z"></path></g><g transform="translate(653 313) rotate(0 229 -0.5)" stroke="none"><path fill="#e03131" d="M -0.19,-1.55 Q -0.19,-1.55 2.11,-1.80 4.41,-2.05 18.12,-2.16 31.84,-2.26 69.26,-2.29 106.68,-2.33 142.13,-2.34 177.59,-2.34 212.78,-2.34 247.97,-2.34 287.65,-2.34 327.34,-2.34 355.41,-2.34 383.49,-2.33 403.18,-2.33 422.88,-2.33 432.98,-2.32 443.07,-2.32 450.53,-2.32 457.99,-2.32 458.21,-2.28 458.42,-2.25 458.61,-2.15 458.80,-2.05 458.94,-1.89 459.09,-1.74 459.18,-1.54 459.27,-1.35 459.29,-1.14 459.32,-0.92 459.27,-0.71 459.22,-0.51 459.11,-0.32 459.00,-0.14 458.84,-0.00 458.68,0.13 458.48,0.21 458.28,0.29 458.07,0.30 457.85,0.31 457.65,0.25 457.44,0.20 457.26,0.08 457.08,-0.03 456.96,-0.20 456.83,-0.38 456.76,-0.58 456.69,-0.78 456.69,-1.00 456.69,-1.21 456.76,-1.41 456.83,-1.62 456.96,-1.79 457.09,-1.96 457.26,-2.08 457.44,-2.20 457.65,-2.25 457.85,-2.31 458.07,-2.30 458.28,-2.29 458.48,-2.21 458.68,-2.13 458.84,-1.99 459.00,-1.85 459.11,-1.67 459.22,-1.48 459.27,-1.28 459.32,-1.07 459.29,-0.85 459.27,-0.64 459.18,-0.45 459.09,-0.25 458.94,-0.10 458.80,0.05 458.61,0.15 458.42,0.25 458.21,0.28 457.99,0.32 457.99,0.32 458.00,0.32 450.53,0.32 443.07,0.32 432.98,0.33 422.88,0.33 403.18,0.33 383.49,0.34 355.41,0.34 327.34,0.35 287.65,0.36 247.97,0.37 212.78,0.39 177.59,0.41 142.14,0.45 106.69,0.48 69.27,0.55 31.86,0.62 18.32,0.76 4.78,0.90 2.48,1.22 0.19,1.55 0.00,1.55 -0.18,1.55 -0.36,1.50 -0.54,1.46 -0.71,1.37 -0.88,1.28 -1.02,1.16 -1.16,1.03 -1.27,0.88 -1.38,0.73 -1.44,0.55 -1.51,0.37 -1.53,0.19 -1.56,0.00 -1.54,-0.18 -1.51,-0.36 -1.45,-0.54 -1.38,-0.72 -1.27,-0.87 -1.17,-1.03 -1.03,-1.15 -0.89,-1.28 -0.72,-1.37 -0.55,-1.45 -0.37,-1.50 -0.19,-1.55 -0.19,-1.55 L -0.19,-1.55 Z"></path></g><g transform="translate(1111 312) rotate(0 0.5 24)" stroke="none"><path fill="#e03131" d="M 2.08,-0.14 Q 2.08,-0.14 2.27,3.88 2.45,7.91 2.50,14.85 2.55,21.79 2.54,27.60 2.54,33.40 2.52,36.16 2.50,38.91 2.56,40.66 2.62,42.41 2.82,45.20 3.01,47.99 2.96,48.31 2.91,48.64 2.76,48.93 2.60,49.21 2.37,49.44 2.13,49.66 1.83,49.80 1.54,49.94 1.21,49.98 0.89,50.01 0.57,49.94 0.25,49.87 -0.02,49.70 -0.30,49.54 -0.51,49.29 -0.72,49.04 -0.85,48.74 -0.97,48.43 -0.98,48.11 -1.00,47.78 -0.92,47.46 -0.83,47.15 -0.65,46.88 -0.46,46.61 -0.20,46.41 0.05,46.21 0.36,46.11 0.67,46.00 0.99,46.00 1.32,46.00 1.63,46.11 1.94,46.21 2.20,46.41 2.46,46.60 2.64,46.87 2.83,47.14 2.91,47.46 3.00,47.77 2.99,48.10 2.97,48.43 2.85,48.73 2.73,49.03 2.52,49.28 2.30,49.53 2.02,49.70 1.75,49.87 1.43,49.94 1.11,50.01 0.78,49.98 0.46,49.94 0.16,49.80 -0.13,49.67 -0.36,49.44 -0.60,49.22 -0.75,48.93 -0.91,48.64 -0.96,48.32 -1.01,48.00 -1.01,48.00 -1.01,48.00 -0.83,45.21 -0.64,42.42 -0.60,40.68 -0.56,38.94 -0.63,36.19 -0.69,33.43 -0.80,27.64 -0.91,21.85 -1.10,15.01 -1.30,8.18 -1.69,4.16 -2.08,0.14 -2.07,-0.10 -2.06,-0.35 -1.99,-0.59 -1.91,-0.83 -1.79,-1.05 -1.66,-1.27 -1.48,-1.45 -1.30,-1.63 -1.09,-1.76 -0.87,-1.89 -0.63,-1.97 -0.39,-2.05 -0.14,-2.07 0.10,-2.09 0.35,-2.04 0.60,-2.00 0.83,-1.90 1.06,-1.80 1.26,-1.64 1.46,-1.49 1.62,-1.29 1.77,-1.10 1.88,-0.87 1.99,-0.64 2.04,-0.39 2.08,-0.14 2.08,-0.14 L 2.08,-0.14 Z"></path></g><g transform="translate(654 357) rotate(0 224.5 3.5)" stroke="none"><path fill="#e03131" d="M 0,-1.56 Q 0,-1.56 10.06,-1.52 20.12,-1.49 88.51,-1.46 156.90,-1.44 193.44,-1.42 229.98,-1.40 257.58,-1.39 285.19,-1.38 304.11,-1.37 323.03,-1.36 334.52,-1.35 346.01,-1.34 352.90,-1.34 359.80,-1.33 363.88,-1.33 367.96,-1.33 372.61,-1.04 377.26,-0.74 382.72,-0.04 388.17,0.65 393.12,1.82 398.08,3.00 401.86,3.77 405.64,4.55 408.07,4.87 410.51,5.20 412.11,5.25 413.72,5.29 415.65,5.16 417.58,5.03 418.86,4.90 420.14,4.77 421.81,4.43 423.48,4.10 424.74,3.92 426.01,3.74 428.39,3.21 430.77,2.68 432.58,2.67 434.38,2.65 435.99,2.65 437.61,2.64 439.16,2.64 440.70,2.64 441.94,2.60 443.17,2.56 446.08,2.46 448.99,2.37 449.41,2.43 449.83,2.50 450.21,2.70 450.59,2.90 450.88,3.21 451.17,3.52 451.35,3.90 451.53,4.29 451.57,4.71 451.62,5.14 451.53,5.55 451.44,5.97 451.22,6.33 451.00,6.70 450.68,6.97 450.35,7.25 449.96,7.41 449.56,7.56 449.14,7.59 448.71,7.61 448.30,7.50 447.89,7.38 447.54,7.14 447.19,6.91 446.93,6.57 446.67,6.23 446.54,5.82 446.40,5.42 446.40,5.00 446.40,4.57 446.54,4.17 446.67,3.76 446.93,3.43 447.19,3.09 447.54,2.85 447.89,2.61 448.30,2.49 448.71,2.38 449.13,2.40 449.56,2.43 449.95,2.58 450.35,2.74 450.67,3.02 451.00,3.29 451.22,3.66 451.44,4.02 451.53,4.44 451.62,4.85 451.58,5.27 451.53,5.70 451.35,6.08 451.17,6.47 450.88,6.78 450.59,7.09 450.21,7.29 449.84,7.49 449.42,7.56 449.00,7.62 449.00,7.62 449.00,7.62 446.09,7.53 443.19,7.44 441.96,7.41 440.74,7.39 439.21,7.41 437.69,7.42 436.12,7.47 434.55,7.52 432.94,7.63 431.32,7.73 430.25,7.82 429.17,7.90 426.80,8.32 424.44,8.74 422.27,8.98 420.11,9.21 418.79,9.05 417.48,8.88 415.47,8.58 413.46,8.28 411.81,8.05 410.16,7.81 407.63,7.47 405.11,7.13 401.29,6.35 397.47,5.57 392.65,4.42 387.83,3.28 382.46,2.59 377.10,1.89 372.53,1.61 367.96,1.33 363.88,1.33 359.80,1.33 352.90,1.34 346.01,1.34 334.52,1.35 323.03,1.36 304.11,1.37 285.19,1.38 257.58,1.39 229.98,1.40 193.44,1.42 156.90,1.44 88.51,1.46 20.12,1.49 10.06,1.52 0,1.56 -0.18,1.53 -0.37,1.51 -0.54,1.45 -0.72,1.38 -0.88,1.27 -1.03,1.16 -1.16,1.02 -1.28,0.88 -1.37,0.72 -1.46,0.55 -1.50,0.37 -1.55,0.18 -1.55,-0.00 -1.55,-0.18 -1.50,-0.37 -1.46,-0.55 -1.37,-0.72 -1.28,-0.88 -1.16,-1.02 -1.03,-1.16 -0.88,-1.27 -0.72,-1.38 -0.54,-1.45 -0.37,-1.51 -0.18,-1.53 0.00,-1.56 0.00,-1.56 L 0,-1.56 Z"></path></g><g transform="translate(661 408) rotate(0 3 15.5)" stroke="none"><path fill="#e03131" d="M 1.80,-0.45 Q 1.80,-0.45 2.30,1.86 2.80,4.18 3.58,8.97 4.36,13.75 5.24,18.33 6.12,22.91 6.49,25.17 6.86,27.43 7.22,29.08 7.57,30.72 7.58,30.98 7.58,31.24 7.50,31.48 7.42,31.73 7.27,31.94 7.11,32.15 6.90,32.29 6.68,32.44 6.43,32.51 6.19,32.59 5.93,32.58 5.67,32.56 5.43,32.47 5.18,32.38 4.98,32.21 4.78,32.05 4.65,31.83 4.51,31.60 4.45,31.35 4.40,31.10 4.42,30.84 4.45,30.58 4.55,30.35 4.66,30.11 4.83,29.92 5.01,29.73 5.24,29.61 5.47,29.48 5.72,29.44 5.98,29.39 6.23,29.43 6.49,29.47 6.72,29.59 6.95,29.71 7.13,29.89 7.31,30.08 7.42,30.32 7.54,30.55 7.57,30.81 7.60,31.06 7.54,31.32 7.49,31.57 7.36,31.80 7.23,32.02 7.03,32.19 6.84,32.36 6.60,32.46 6.36,32.56 6.10,32.57 5.84,32.59 5.59,32.52 5.34,32.46 5.12,32.31 4.90,32.17 4.75,31.97 4.59,31.76 4.50,31.52 4.42,31.27 4.42,31.27 4.42,31.27 4.19,29.61 3.97,27.94 3.55,25.72 3.14,23.51 2.17,18.90 1.21,14.30 0.35,9.65 -0.50,5.01 -1.15,2.73 -1.80,0.45 -1.82,0.22 -1.85,0.00 -1.82,-0.21 -1.80,-0.43 -1.72,-0.64 -1.64,-0.85 -1.51,-1.04 -1.39,-1.22 -1.22,-1.37 -1.05,-1.52 -0.86,-1.62 -0.66,-1.73 -0.44,-1.78 -0.22,-1.84 -0.00,-1.84 0.21,-1.84 0.43,-1.78 0.65,-1.73 0.85,-1.63 1.04,-1.53 1.21,-1.38 1.38,-1.23 1.51,-1.05 1.64,-0.86 1.72,-0.65 1.80,-0.44 1.80,-0.44 L 1.80,-0.45 Z"></path></g><g transform="translate(665 405) rotate(0 245 -2.5)" stroke="none"><path fill="#e03131" d="M 0,-1.56 Q 0,-1.56 4.31,-1.52 8.62,-1.49 32.59,-1.46 56.56,-1.44 100.67,-1.42 144.79,-1.40 187.11,-1.39 229.43,-1.38 277.32,-1.37 325.21,-1.36 359.93,-1.35 394.66,-1.34 418.02,-2.20 441.38,-3.06 454.17,-4.00 466.96,-4.93 472.69,-5.33 478.43,-5.73 481.16,-5.90 483.89,-6.06 486.91,-6.31 489.93,-6.56 490.18,-6.53 490.43,-6.50 490.66,-6.39 490.89,-6.28 491.07,-6.11 491.26,-5.93 491.37,-5.70 491.49,-5.48 491.53,-5.23 491.56,-4.98 491.52,-4.73 491.48,-4.48 491.35,-4.25 491.23,-4.03 491.05,-3.86 490.86,-3.68 490.63,-3.58 490.40,-3.48 490.14,-3.45 489.89,-3.43 489.64,-3.49 489.40,-3.54 489.18,-3.68 488.96,-3.81 488.80,-4.01 488.64,-4.20 488.55,-4.44 488.46,-4.68 488.45,-4.93 488.44,-5.18 488.51,-5.43 488.58,-5.67 488.72,-5.88 488.87,-6.09 489.07,-6.24 489.28,-6.39 489.52,-6.47 489.76,-6.55 490.01,-6.54 490.27,-6.54 490.51,-6.46 490.75,-6.37 490.95,-6.22 491.15,-6.06 491.29,-5.85 491.43,-5.64 491.49,-5.39 491.56,-5.14 491.54,-4.89 491.52,-4.64 491.43,-4.40 491.33,-4.17 491.16,-3.98 491.00,-3.79 490.78,-3.66 490.56,-3.53 490.31,-3.48 490.06,-3.43 490.06,-3.43 490.06,-3.43 487.06,-3.42 484.05,-3.42 481.33,-3.25 478.61,-3.08 472.88,-2.68 467.15,-2.27 454.31,-1.33 441.48,-0.38 418.07,0.48 394.66,1.34 359.93,1.35 325.21,1.36 277.32,1.37 229.43,1.38 187.11,1.39 144.79,1.40 100.67,1.42 56.56,1.44 32.59,1.46 8.62,1.49 4.31,1.52 0,1.56 -0.18,1.53 -0.37,1.51 -0.54,1.45 -0.72,1.38 -0.88,1.27 -1.03,1.16 -1.16,1.02 -1.28,0.88 -1.37,0.72 -1.46,0.55 -1.50,0.37 -1.55,0.18 -1.55,-0.00 -1.55,-0.18 -1.50,-0.37 -1.46,-0.55 -1.37,-0.72 -1.28,-0.88 -1.16,-1.02 -1.03,-1.16 -0.88,-1.27 -0.72,-1.38 -0.54,-1.45 -0.37,-1.51 -0.18,-1.53 0.00,-1.56 0.00,-1.56 L 0,-1.56 Z"></path></g><g transform="translate(1153 402) rotate(0 0.5 18)" stroke="none"><path fill="#e03131" d="M 2.18,-0.13 Q 2.18,-0.13 2.36,4.47 2.53,9.07 2.56,12.20 2.60,15.33 2.87,18.32 3.14,21.31 3.24,23.51 3.34,25.70 3.49,27.21 3.63,28.72 3.85,30.34 4.06,31.96 4.13,33.97 4.20,35.99 4.15,36.34 4.09,36.69 3.92,37.01 3.76,37.33 3.50,37.57 3.24,37.82 2.92,37.97 2.59,38.12 2.24,38.16 1.88,38.20 1.53,38.12 1.18,38.05 0.88,37.86 0.57,37.68 0.34,37.41 0.11,37.14 -0.02,36.81 -0.15,36.48 -0.17,36.12 -0.19,35.76 -0.10,35.42 -0.00,35.07 0.19,34.78 0.39,34.48 0.67,34.26 0.96,34.05 1.29,33.93 1.63,33.82 1.99,33.82 2.35,33.82 2.68,33.93 3.02,34.04 3.31,34.26 3.59,34.47 3.79,34.77 4.00,35.06 4.09,35.41 4.19,35.75 4.17,36.11 4.15,36.46 4.02,36.80 3.89,37.13 3.66,37.40 3.43,37.67 3.12,37.86 2.82,38.04 2.47,38.12 2.12,38.20 1.77,38.16 1.41,38.12 1.09,37.97 0.76,37.83 0.50,37.58 0.24,37.34 0.07,37.02 -0.08,36.71 -0.14,36.35 -0.20,36.00 -0.20,36.00 -0.20,36.00 -0.15,34.01 -0.10,32.03 0.03,30.44 0.18,28.86 0.20,27.39 0.22,25.91 0.03,23.79 -0.15,21.68 -0.55,18.58 -0.96,15.48 -1.17,12.40 -1.38,9.32 -1.78,4.72 -2.18,0.13 -2.17,-0.12 -2.15,-0.39 -2.08,-0.64 -2.00,-0.89 -1.86,-1.12 -1.72,-1.34 -1.54,-1.53 -1.35,-1.72 -1.13,-1.86 -0.90,-1.99 -0.65,-2.07 -0.39,-2.15 -0.13,-2.17 0.12,-2.19 0.38,-2.14 0.64,-2.09 0.89,-1.98 1.13,-1.87 1.33,-1.71 1.54,-1.55 1.71,-1.34 1.87,-1.13 1.98,-0.89 2.09,-0.65 2.14,-0.39 2.18,-0.13 2.18,-0.13 L 2.18,-0.13 Z"></path></g><g transform="translate(675 442) rotate(0 265.5 -4)" stroke="none"><path fill="#e03131" d="M -0.06,-1.56 Q -0.06,-1.56 21.21,-2.38 42.48,-3.21 72.82,-3.56 103.16,-3.90 155.15,-4.04 207.14,-4.17 251.09,-4.23 295.03,-4.28 324.92,-4.30 354.81,-4.32 377.83,-5.47 400.85,-6.63 420.15,-7.11 439.45,-7.60 452.82,-8.10 466.18,-8.59 474.46,-8.80 482.74,-9.01 488.56,-9.10 494.38,-9.19 498.58,-9.22 502.78,-9.26 506.00,-9.27 509.23,-9.29 512.61,-9.30 515.99,-9.30 518.87,-9.30 521.74,-9.31 524.12,-9.31 526.49,-9.31 528.74,-9.44 530.99,-9.57 531.25,-9.53 531.50,-9.48 531.72,-9.37 531.95,-9.25 532.12,-9.06 532.30,-8.88 532.40,-8.65 532.51,-8.42 532.54,-8.16 532.56,-7.91 532.51,-7.66 532.46,-7.41 532.32,-7.20 532.19,-6.98 532.00,-6.81 531.81,-6.65 531.57,-6.55 531.33,-6.46 531.08,-6.45 530.83,-6.43 530.58,-6.50 530.34,-6.57 530.13,-6.71 529.91,-6.85 529.76,-7.06 529.61,-7.26 529.53,-7.50 529.44,-7.74 529.44,-7.99 529.44,-8.25 529.53,-8.49 529.61,-8.73 529.76,-8.93 529.91,-9.14 530.12,-9.28 530.33,-9.42 530.58,-9.49 530.82,-9.56 531.08,-9.54 531.33,-9.53 531.57,-9.44 531.80,-9.34 532.00,-9.18 532.19,-9.01 532.32,-8.79 532.45,-8.58 532.51,-8.33 532.56,-8.08 532.54,-7.83 532.51,-7.57 532.40,-7.34 532.30,-7.11 532.12,-6.93 531.95,-6.74 531.72,-6.62 531.50,-6.51 531.25,-6.46 531.00,-6.42 531.00,-6.42 531.00,-6.42 528.74,-6.55 526.49,-6.68 524.12,-6.68 521.75,-6.67 518.87,-6.67 516.00,-6.67 512.62,-6.66 509.24,-6.65 506.02,-6.64 502.80,-6.62 498.61,-6.58 494.42,-6.54 488.61,-6.45 482.80,-6.36 474.54,-6.14 466.28,-5.93 452.90,-5.43 439.52,-4.93 420.25,-4.43 400.99,-3.93 377.90,-2.76 354.81,-1.59 324.93,-1.55 295.04,-1.51 251.09,-1.44 207.15,-1.36 155.17,-1.18 103.20,-1.01 72.90,-0.62 42.61,-0.23 21.33,0.66 0.06,1.56 -0.12,1.54 -0.31,1.53 -0.49,1.47 -0.66,1.41 -0.82,1.31 -0.98,1.21 -1.11,1.07 -1.24,0.93 -1.34,0.77 -1.43,0.61 -1.48,0.43 -1.54,0.25 -1.54,0.06 -1.55,-0.12 -1.51,-0.30 -1.48,-0.49 -1.40,-0.66 -1.32,-0.83 -1.20,-0.98 -1.08,-1.12 -0.93,-1.23 -0.78,-1.35 -0.60,-1.42 -0.43,-1.50 -0.24,-1.53 -0.06,-1.56 -0.06,-1.56 L -0.06,-1.56 Z"></path></g><g transform="translate(664 498) rotate(0 4.5 17)" stroke="none"><path fill="#e03131" d="M 1.96,-0.36 Q 1.96,-0.36 2.73,4.24 3.50,8.86 4.37,13.10 5.24,17.34 5.89,20.91 6.53,24.47 7.04,27.06 7.55,29.64 8.89,30.71 10.23,31.78 10.39,32.01 10.56,32.24 10.63,32.51 10.71,32.78 10.70,33.06 10.69,33.34 10.59,33.60 10.49,33.86 10.32,34.08 10.14,34.30 9.90,34.45 9.66,34.59 9.39,34.66 9.12,34.72 8.84,34.70 8.56,34.67 8.30,34.56 8.05,34.44 7.84,34.25 7.63,34.07 7.50,33.82 7.36,33.57 7.31,33.30 7.26,33.02 7.30,32.75 7.34,32.47 7.47,32.22 7.60,31.97 7.80,31.77 8.00,31.58 8.25,31.46 8.50,31.33 8.78,31.30 9.06,31.26 9.34,31.32 9.61,31.38 9.85,31.52 10.10,31.66 10.28,31.87 10.46,32.08 10.57,32.34 10.68,32.60 10.70,32.88 10.72,33.15 10.65,33.43 10.58,33.70 10.42,33.93 10.27,34.17 10.05,34.34 9.83,34.51 9.57,34.61 9.30,34.70 9.02,34.70 8.74,34.71 8.48,34.62 8.21,34.54 7.98,34.37 7.76,34.21 7.76,34.21 7.76,34.21 6.24,32.36 4.73,30.51 4.08,27.79 3.43,25.07 2.70,21.57 1.96,18.07 0.95,13.80 -0.05,9.53 -1.01,4.95 -1.96,0.36 -1.97,0.12 -1.99,-0.11 -1.95,-0.34 -1.90,-0.58 -1.81,-0.80 -1.71,-1.02 -1.56,-1.21 -1.41,-1.40 -1.22,-1.55 -1.04,-1.70 -0.82,-1.80 -0.60,-1.90 -0.36,-1.94 -0.12,-1.99 0.11,-1.98 0.35,-1.96 0.58,-1.89 0.81,-1.82 1.01,-1.70 1.22,-1.57 1.39,-1.40 1.56,-1.23 1.69,-1.03 1.81,-0.82 1.89,-0.59 1.96,-0.36 1.96,-0.36 L 1.96,-0.36 Z"></path></g><g transform="translate(660 486) rotate(0 268 0)" stroke="none"><path fill="#e03131" d="M 0,-1.56 Q 0,-1.56 15.23,-1.52 30.47,-1.49 60.52,-1.46 90.57,-1.44 132.67,-1.42 174.77,-1.40 211.06,-1.39 247.35,-1.38 279.45,-1.37 311.54,-1.36 339.56,-1.35 367.58,-1.34 392.14,-1.34 416.69,-1.33 437.48,-1.33 458.27,-1.33 474.29,-1.32 490.31,-1.32 501.14,-1.32 511.98,-1.32 518.02,-1.32 524.06,-1.32 526.92,-1.31 529.77,-1.31 531.28,-1.42 532.78,-1.53 534.39,-1.63 536,-1.73 536.27,-1.69 536.55,-1.64 536.80,-1.51 537.05,-1.38 537.24,-1.17 537.43,-0.97 537.55,-0.71 537.67,-0.46 537.70,-0.18 537.73,0.09 537.67,0.36 537.61,0.64 537.46,0.88 537.32,1.12 537.10,1.30 536.89,1.48 536.63,1.59 536.37,1.69 536.09,1.71 535.81,1.72 535.54,1.65 535.27,1.57 535.03,1.41 534.80,1.25 534.63,1.03 534.46,0.81 534.37,0.54 534.28,0.28 534.28,-0.00 534.28,-0.28 534.37,-0.54 534.46,-0.81 534.63,-1.03 534.80,-1.26 535.03,-1.41 535.27,-1.57 535.54,-1.65 535.81,-1.72 536.09,-1.71 536.37,-1.69 536.63,-1.59 536.89,-1.48 537.10,-1.30 537.32,-1.12 537.46,-0.88 537.61,-0.64 537.67,-0.36 537.73,-0.09 537.70,0.18 537.67,0.46 537.55,0.71 537.43,0.97 537.24,1.17 537.05,1.38 536.80,1.51 536.55,1.64 536.27,1.69 535.99,1.73 535.99,1.73 536,1.73 534.39,1.63 532.78,1.53 531.28,1.42 529.77,1.31 526.92,1.31 524.06,1.32 518.02,1.32 511.98,1.32 501.14,1.32 490.31,1.32 474.29,1.32 458.27,1.33 437.48,1.33 416.69,1.33 392.14,1.34 367.58,1.34 339.56,1.35 311.54,1.36 279.45,1.37 247.35,1.38 211.06,1.39 174.77,1.40 132.67,1.42 90.57,1.44 60.52,1.46 30.47,1.49 15.23,1.52 0,1.56 -0.18,1.53 -0.37,1.51 -0.54,1.45 -0.72,1.38 -0.88,1.27 -1.03,1.16 -1.16,1.02 -1.28,0.88 -1.37,0.72 -1.46,0.55 -1.50,0.37 -1.55,0.18 -1.55,-0.00 -1.55,-0.18 -1.50,-0.37 -1.46,-0.55 -1.37,-0.72 -1.28,-0.88 -1.16,-1.02 -1.03,-1.16 -0.88,-1.27 -0.72,-1.38 -0.54,-1.45 -0.37,-1.51 -0.18,-1.53 0.00,-1.56 0.00,-1.56 L 0,-1.56 Z"></path></g><g transform="translate(1204 486) rotate(0 2.5 24.5)" stroke="none"><path fill="#e03131" d="M 2.05,-0.17 Q 2.05,-0.17 2.24,3.28 2.43,6.74 3.62,14.47 4.81,22.20 5.30,27.58 5.79,32.96 5.99,36.11 6.18,39.26 6.30,41.18 6.42,43.10 6.57,44.21 6.72,45.33 6.31,47.41 5.90,49.49 5.77,49.78 5.65,50.07 5.43,50.31 5.21,50.54 4.94,50.70 4.66,50.85 4.34,50.91 4.03,50.97 3.71,50.92 3.40,50.87 3.11,50.73 2.83,50.58 2.61,50.36 2.38,50.13 2.24,49.84 2.10,49.55 2.06,49.24 2.03,48.92 2.09,48.61 2.15,48.30 2.31,48.02 2.47,47.74 2.71,47.53 2.95,47.32 3.24,47.20 3.54,47.08 3.86,47.05 4.17,47.03 4.48,47.11 4.79,47.19 5.06,47.37 5.33,47.54 5.52,47.79 5.72,48.04 5.83,48.34 5.93,48.64 5.94,48.96 5.95,49.28 5.85,49.58 5.75,49.89 5.56,50.15 5.37,50.40 5.11,50.59 4.85,50.77 4.55,50.86 4.24,50.95 3.92,50.94 3.60,50.93 3.31,50.81 3.01,50.70 2.76,50.50 2.51,50.30 2.35,50.03 2.18,49.76 2.10,49.45 2.03,49.13 2.06,48.82 2.09,48.50 2.09,48.50 2.09,48.50 2.62,46.96 3.15,45.42 3.22,44.34 3.28,43.26 3.21,41.37 3.13,39.49 2.86,36.39 2.60,33.29 2.01,28.02 1.42,22.75 0.07,14.90 -1.28,7.05 -1.67,3.61 -2.05,0.17 -2.04,-0.07 -2.03,-0.32 -1.97,-0.56 -1.90,-0.80 -1.77,-1.02 -1.65,-1.23 -1.48,-1.41 -1.31,-1.59 -1.10,-1.72 -0.88,-1.86 -0.65,-1.94 -0.41,-2.02 -0.17,-2.04 0.07,-2.06 0.32,-2.02 0.56,-1.98 0.79,-1.88 1.02,-1.79 1.22,-1.64 1.42,-1.49 1.58,-1.30 1.74,-1.10 1.84,-0.88 1.95,-0.65 2.00,-0.41 2.05,-0.17 2.05,-0.17 L 2.05,-0.17 Z"></path></g><g transform="translate(667 529) rotate(0 271.5 4)" stroke="none"><path fill="#e03131" d="M 0.17,-1.55 Q 0.17,-1.55 5.34,-0.94 10.51,-0.33 25.94,1.66 41.38,3.65 54.21,4.50 67.05,5.35 88.59,5.72 110.13,6.09 145.16,6.25 180.20,6.41 212.91,6.48 245.63,6.55 274.49,6.58 303.34,6.61 327.68,6.63 352.02,6.65 371.27,6.65 390.53,6.66 404.46,6.66 418.40,6.67 428.92,6.67 439.44,6.67 445.93,6.67 452.41,6.68 456.60,6.68 460.80,6.68 464.02,6.68 467.24,6.68 470.33,6.68 473.42,6.68 476.17,6.68 478.93,6.68 481.82,6.68 484.72,6.68 487.67,6.68 490.63,6.68 494.18,6.68 497.74,6.68 500.97,6.68 504.21,6.68 507.31,6.68 510.41,6.68 513.17,6.68 515.92,6.68 517.67,6.61 519.41,6.53 520.73,6.42 522.05,6.31 523.18,6.22 524.32,6.12 526.97,6.01 529.63,5.91 532.04,6.01 534.44,6.12 536.61,6.19 538.78,6.27 540.89,6.17 543.00,6.07 543.30,6.12 543.61,6.17 543.88,6.32 544.16,6.46 544.37,6.69 544.59,6.92 544.72,7.20 544.85,7.48 544.88,7.79 544.91,8.10 544.85,8.40 544.78,8.71 544.62,8.97 544.46,9.24 544.22,9.44 543.99,9.64 543.70,9.76 543.41,9.87 543.10,9.89 542.79,9.91 542.49,9.82 542.19,9.74 541.93,9.56 541.67,9.39 541.48,9.14 541.30,8.90 541.20,8.60 541.10,8.31 541.10,7.99 541.10,7.68 541.20,7.39 541.30,7.09 541.49,6.85 541.67,6.60 541.93,6.42 542.19,6.25 542.49,6.17 542.79,6.08 543.10,6.10 543.41,6.12 543.70,6.23 543.99,6.35 544.22,6.55 544.46,6.75 544.62,7.02 544.78,7.28 544.85,7.59 544.91,7.89 544.88,8.20 544.85,8.51 544.72,8.79 544.59,9.07 544.37,9.30 544.16,9.53 543.88,9.67 543.61,9.82 543.30,9.87 542.99,9.92 542.99,9.92 542.99,9.92 540.89,9.82 538.78,9.72 536.61,9.80 534.44,9.87 532.04,9.98 529.63,10.08 526.97,9.98 524.32,9.87 523.18,9.77 522.05,9.68 520.73,9.57 519.41,9.46 517.67,9.38 515.92,9.31 513.17,9.31 510.41,9.31 507.31,9.31 504.21,9.31 500.97,9.31 497.74,9.31 494.18,9.31 490.63,9.31 487.67,9.31 484.72,9.31 481.82,9.31 478.93,9.31 476.17,9.31 473.42,9.31 470.33,9.31 467.24,9.31 464.02,9.31 460.80,9.31 456.60,9.31 452.41,9.31 445.93,9.31 439.44,9.31 428.92,9.31 418.40,9.32 404.46,9.32 390.53,9.31 371.27,9.31 352.02,9.31 327.68,9.30 303.34,9.29 274.48,9.27 245.63,9.25 212.91,9.19 180.18,9.14 145.13,8.99 110.08,8.85 88.47,8.51 66.86,8.16 53.94,7.34 41.01,6.52 25.60,4.57 10.18,2.63 5.00,2.09 -0.17,1.55 -0.35,1.50 -0.53,1.46 -0.70,1.38 -0.87,1.29 -1.01,1.17 -1.15,1.04 -1.26,0.89 -1.37,0.73 -1.44,0.56 -1.51,0.38 -1.53,0.20 -1.56,0.01 -1.54,-0.17 -1.52,-0.35 -1.45,-0.53 -1.39,-0.71 -1.28,-0.86 -1.17,-1.02 -1.04,-1.15 -0.90,-1.27 -0.73,-1.36 -0.56,-1.45 -0.38,-1.50 -0.20,-1.54 -0.01,-1.55 0.17,-1.55 0.17,-1.55 L 0.17,-1.55 Z"></path></g><g transform="translate(818 598) rotate(0 -0.5 7)" stroke="none"><path fill="#e03131" d="M 1.92,0.24 Q 1.92,0.24 1.55,2.52 1.18,4.81 1.00,7.44 0.82,10.07 0.72,12.07 0.61,14.07 0.56,14.32 0.50,14.58 0.37,14.81 0.24,15.03 0.04,15.20 -0.15,15.37 -0.39,15.47 -0.63,15.57 -0.89,15.59 -1.16,15.61 -1.41,15.54 -1.66,15.47 -1.88,15.33 -2.10,15.18 -2.26,14.97 -2.42,14.77 -2.50,14.52 -2.59,14.27 -2.59,14.01 -2.59,13.75 -2.51,13.50 -2.43,13.25 -2.28,13.04 -2.12,12.83 -1.90,12.68 -1.69,12.53 -1.44,12.46 -1.18,12.39 -0.92,12.40 -0.66,12.41 -0.42,12.51 -0.17,12.60 0.02,12.77 0.22,12.94 0.36,13.16 0.49,13.38 0.55,13.64 0.61,13.89 0.58,14.15 0.56,14.41 0.45,14.65 0.34,14.89 0.16,15.08 -0.00,15.28 -0.23,15.40 -0.46,15.52 -0.72,15.57 -0.98,15.61 -1.24,15.57 -1.50,15.53 -1.73,15.41 -1.96,15.29 -2.15,15.10 -2.33,14.92 -2.44,14.68 -2.55,14.44 -2.58,14.18 -2.61,13.92 -2.61,13.92 -2.61,13.92 -2.54,11.92 -2.46,9.93 -2.39,7.15 -2.33,4.38 -2.12,2.07 -1.92,-0.24 -1.86,-0.46 -1.81,-0.69 -1.70,-0.90 -1.59,-1.10 -1.43,-1.28 -1.28,-1.45 -1.08,-1.58 -0.89,-1.72 -0.67,-1.80 -0.45,-1.88 -0.22,-1.91 0.00,-1.93 0.23,-1.91 0.47,-1.88 0.68,-1.79 0.90,-1.71 1.09,-1.58 1.29,-1.44 1.44,-1.27 1.60,-1.09 1.70,-0.88 1.81,-0.68 1.87,-0.45 1.92,-0.22 1.92,0.00 1.92,0.24 1.92,0.24 L 1.92,0.24 Z"></path></g><g transform="translate(817 648) rotate(0 0.5 8.5)" stroke="none"><path fill="#e03131" d="M 2.12,-0.16 Q 2.12,-0.16 2.30,3.58 2.48,7.32 2.52,9.80 2.56,12.28 2.75,14.60 2.94,16.92 2.90,17.23 2.86,17.54 2.72,17.83 2.59,18.11 2.37,18.34 2.15,18.56 1.87,18.70 1.59,18.85 1.28,18.89 0.97,18.94 0.66,18.88 0.35,18.83 0.07,18.68 -0.20,18.52 -0.41,18.29 -0.62,18.06 -0.75,17.77 -0.88,17.49 -0.91,17.17 -0.93,16.86 -0.86,16.55 -0.79,16.25 -0.62,15.98 -0.46,15.71 -0.21,15.51 0.02,15.31 0.31,15.20 0.61,15.09 0.92,15.08 1.23,15.07 1.54,15.15 1.84,15.24 2.10,15.42 2.35,15.60 2.54,15.86 2.73,16.11 2.82,16.41 2.92,16.71 2.91,17.02 2.91,17.34 2.80,17.64 2.70,17.93 2.50,18.18 2.31,18.43 2.05,18.60 1.78,18.77 1.48,18.85 1.18,18.93 0.86,18.91 0.55,18.89 0.26,18.77 -0.02,18.65 -0.26,18.44 -0.50,18.23 -0.65,17.96 -0.81,17.69 -0.88,17.38 -0.94,17.07 -0.94,17.07 -0.94,17.07 -0.93,14.77 -0.93,12.46 -1.13,10.04 -1.33,7.62 -1.72,3.89 -2.12,0.16 -2.11,-0.09 -2.10,-0.34 -2.02,-0.59 -1.95,-0.84 -1.82,-1.06 -1.69,-1.28 -1.51,-1.47 -1.34,-1.65 -1.12,-1.79 -0.90,-1.92 -0.66,-2.00 -0.41,-2.08 -0.16,-2.10 0.09,-2.12 0.34,-2.08 0.60,-2.04 0.83,-1.94 1.07,-1.83 1.27,-1.68 1.48,-1.53 1.64,-1.33 1.80,-1.13 1.91,-0.89 2.02,-0.66 2.07,-0.41 2.12,-0.16 2.12,-0.16 L 2.12,-0.16 Z"></path></g><g transform="translate(818 670) rotate(0 0 11.5)" stroke="none"><path fill="#e03131" d="M 2.01,0 Q 2.01,0 1.91,2.58 1.82,5.17 1.75,8.86 1.68,12.54 1.63,14.97 1.58,17.40 1.68,20.20 1.79,23 1.74,23.28 1.70,23.57 1.56,23.82 1.42,24.08 1.21,24.28 1.00,24.48 0.74,24.60 0.47,24.72 0.19,24.75 -0.09,24.79 -0.38,24.72 -0.66,24.66 -0.91,24.51 -1.16,24.36 -1.34,24.14 -1.53,23.92 -1.64,23.65 -1.75,23.38 -1.76,23.09 -1.78,22.80 -1.70,22.52 -1.62,22.24 -1.46,22.00 -1.30,21.76 -1.07,21.59 -0.84,21.41 -0.56,21.32 -0.28,21.22 0.00,21.22 0.29,21.22 0.56,21.32 0.84,21.41 1.07,21.59 1.30,21.76 1.46,22.00 1.62,22.24 1.70,22.52 1.78,22.80 1.76,23.09 1.75,23.38 1.64,23.65 1.53,23.92 1.34,24.14 1.16,24.36 0.91,24.51 0.66,24.66 0.38,24.72 0.09,24.79 -0.19,24.75 -0.48,24.72 -0.74,24.60 -1.00,24.48 -1.21,24.28 -1.42,24.08 -1.56,23.82 -1.70,23.57 -1.74,23.28 -1.79,22.99 -1.79,22.99 -1.79,23 -1.68,20.20 -1.58,17.40 -1.63,14.97 -1.68,12.54 -1.75,8.86 -1.82,5.17 -1.91,2.58 -2.01,0 -1.98,-0.24 -1.95,-0.48 -1.86,-0.70 -1.78,-0.93 -1.64,-1.13 -1.50,-1.33 -1.32,-1.49 -1.14,-1.65 -0.92,-1.76 -0.71,-1.88 -0.47,-1.93 -0.24,-1.99 0.00,-1.99 0.24,-1.99 0.47,-1.93 0.71,-1.88 0.92,-1.76 1.14,-1.65 1.32,-1.49 1.50,-1.33 1.64,-1.13 1.78,-0.93 1.86,-0.70 1.95,-0.48 1.98,-0.24 2.01,0.00 2.01,0.00 L 2.01,0 Z"></path></g><g transform="translate(817 704) rotate(0 0.00004999999998744897 0.00004999999998744897)" stroke="none"><path fill="#e03131" d="M 1.57,-1.57 Q 1.57,-1.57 1.77,-1.27 1.98,-0.98 2.09,-0.64 2.20,-0.29 2.19,0.05 2.18,0.41 2.05,0.75 1.93,1.09 1.70,1.37 1.48,1.65 1.18,1.84 0.87,2.04 0.52,2.12 0.18,2.21 -0.17,2.18 -0.53,2.15 -0.86,2.01 -1.19,1.87 -1.46,1.63 -1.73,1.39 -1.90,1.07 -2.08,0.76 -2.15,0.41 -2.21,0.05 -2.17,-0.29 -2.12,-0.65 -1.96,-0.97 -1.80,-1.29 -1.54,-1.54 -1.29,-1.80 -0.97,-1.96 -0.65,-2.12 -0.29,-2.17 0.06,-2.21 0.41,-2.15 0.76,-2.08 1.07,-1.90 1.39,-1.73 1.63,-1.46 1.87,-1.19 2.01,-0.86 2.15,-0.53 2.18,-0.17 2.21,0.18 2.12,0.52 2.03,0.87 1.84,1.18 1.65,1.48 1.37,1.70 1.09,1.93 0.75,2.05 0.41,2.18 0.05,2.19 -0.30,2.20 -0.64,2.09 -0.98,1.98 -1.27,1.77 -1.57,1.56 -1.57,1.57 -1.57,1.57 -1.73,1.35 -1.90,1.14 -2.01,0.90 -2.12,0.66 -2.16,0.39 -2.21,0.13 -2.20,-0.13 -2.18,-0.40 -2.10,-0.65 -2.02,-0.91 -1.88,-1.14 -1.74,-1.36 -1.55,-1.55 -1.36,-1.74 -1.14,-1.88 -0.91,-2.02 -0.65,-2.10 -0.40,-2.18 -0.13,-2.20 0.13,-2.21 0.39,-2.16 0.66,-2.12 0.90,-2.01 1.14,-1.90 1.35,-1.73 1.57,-1.57 1.57,-1.57 L 1.57,-1.57 Z"></path></g><g transform="translate(570 635) rotate(0 43.5 0)" stroke="none"><path fill="#e03131" d="M 0,-1.72 Q 0,-1.72 2.3,-1.66 4.6,-1.61 16.79,-1.57 28.97,-1.53 39.04,-1.50 49.11,-1.47 58.85,-1.44 68.59,-1.42 73.60,-1.41 78.60,-1.39 81.01,-1.38 83.43,-1.37 85.21,-1.43 87,-1.49 87.23,-1.46 87.47,-1.42 87.69,-1.30 87.90,-1.19 88.07,-1.01 88.24,-0.84 88.34,-0.62 88.44,-0.40 88.47,-0.15 88.49,0.08 88.44,0.31 88.39,0.55 88.26,0.76 88.14,0.97 87.95,1.12 87.77,1.28 87.54,1.37 87.32,1.46 87.07,1.47 86.83,1.49 86.60,1.42 86.37,1.36 86.16,1.22 85.96,1.08 85.82,0.89 85.67,0.70 85.59,0.47 85.52,0.24 85.52,-0.00 85.52,-0.24 85.59,-0.47 85.67,-0.70 85.82,-0.89 85.96,-1.08 86.16,-1.22 86.37,-1.36 86.60,-1.42 86.83,-1.49 87.08,-1.47 87.32,-1.46 87.54,-1.37 87.77,-1.28 87.95,-1.12 88.14,-0.97 88.26,-0.76 88.39,-0.55 88.44,-0.31 88.49,-0.08 88.47,0.16 88.44,0.40 88.34,0.62 88.24,0.84 88.07,1.01 87.90,1.19 87.69,1.30 87.47,1.42 87.23,1.46 86.99,1.49 86.99,1.49 87,1.49 85.21,1.43 83.43,1.37 81.01,1.38 78.60,1.39 73.60,1.41 68.59,1.42 58.85,1.44 49.11,1.47 39.04,1.50 28.97,1.53 16.79,1.57 4.6,1.61 2.3,1.66 0,1.72 -0.20,1.69 -0.41,1.67 -0.60,1.59 -0.80,1.52 -0.97,1.40 -1.14,1.28 -1.28,1.13 -1.41,0.97 -1.51,0.79 -1.61,0.61 -1.66,0.40 -1.71,0.20 -1.71,-0.00 -1.71,-0.20 -1.66,-0.40 -1.61,-0.61 -1.51,-0.79 -1.41,-0.97 -1.28,-1.13 -1.14,-1.28 -0.97,-1.40 -0.80,-1.52 -0.60,-1.59 -0.41,-1.67 -0.20,-1.69 0.00,-1.72 0.00,-1.72 L 0,-1.72 Z"></path></g><g transform="translate(641 627) rotate(0 9.5 8.5)" stroke="none"><path fill="#e03131" d="M 0.67,-2.03 Q 0.67,-2.03 4.09,-0.78 7.50,0.47 10.15,1.63 12.79,2.79 14.50,3.53 16.21,4.28 17.29,4.58 18.37,4.88 19.30,6.29 20.23,7.70 19.94,9.17 19.64,10.63 17.64,13.19 15.64,15.75 14.66,17.03 13.67,18.30 13.42,18.54 13.16,18.77 12.85,18.91 12.54,19.05 12.19,19.08 11.85,19.12 11.52,19.04 11.18,18.96 10.89,18.78 10.60,18.60 10.38,18.33 10.16,18.07 10.04,17.74 9.91,17.42 9.90,17.08 9.89,16.74 9.98,16.41 10.08,16.08 10.28,15.79 10.47,15.51 10.75,15.31 11.03,15.10 11.35,15.00 11.68,14.89 12.02,14.90 12.37,14.90 12.69,15.02 13.02,15.13 13.29,15.34 13.56,15.55 13.75,15.84 13.94,16.13 14.02,16.46 14.11,16.79 14.09,17.14 14.06,17.48 13.93,17.80 13.80,18.12 13.57,18.37 13.35,18.63 13.05,18.81 12.75,18.98 12.42,19.05 12.08,19.12 11.74,19.08 11.40,19.04 11.09,18.89 10.78,18.74 10.53,18.50 10.29,18.26 10.13,17.95 9.97,17.65 9.92,17.31 9.87,16.97 9.93,16.63 9.99,16.29 10.16,15.99 10.32,15.69 10.32,15.69 10.32,15.69 11.32,14.42 12.32,13.16 13.51,11.41 14.70,9.66 14.75,8.60 14.79,7.53 13.13,6.79 11.46,6.05 8.87,5.09 6.29,4.12 2.80,3.08 -0.67,2.03 -0.91,1.92 -1.14,1.81 -1.34,1.65 -1.54,1.48 -1.70,1.28 -1.85,1.07 -1.96,0.83 -2.06,0.59 -2.10,0.34 -2.14,0.08 -2.12,-0.17 -2.10,-0.42 -2.02,-0.67 -1.94,-0.91 -1.80,-1.13 -1.66,-1.35 -1.47,-1.53 -1.29,-1.71 -1.06,-1.84 -0.84,-1.97 -0.59,-2.04 -0.34,-2.11 -0.08,-2.13 0.17,-2.14 0.42,-2.08 0.67,-2.03 0.67,-2.03 L 0.67,-2.03 Z"></path></g><g transform="translate(408 92) rotate(0 360.3166809082031 37.5)"><text x="0" y="17.52" font-family="Virgil, Segoe UI Emoji" font-size="20px" fill="#fefefe" text-anchor="start" style="white-space: pre;" direction="ltr" dominant-baseline="alphabetic">Maintain a vector of shapes, and each shape points to an array</text><text x="0" y="42.519999999999996" font-family="Virgil, Segoe UI Emoji" font-size="20px" fill="#fefefe" text-anchor="start" style="white-space: pre;" direction="ltr" dominant-baseline="alphabetic">of instance data vector. The instance data vector contains information</text><text x="0" y="67.52" font-family="Virgil, Segoe UI Emoji" font-size="20px" fill="#fefefe" text-anchor="start" style="white-space: pre;" direction="ltr" dominant-baseline="alphabetic">about each instance of the shape it belongs to</text></g><g transform="translate(344 339) rotate(0 35.150001525878906 12.5)"><text x="0" y="17.52" font-family="Virgil, Segoe UI Emoji" font-size="20px" fill="#fefefe" text-anchor="start" style="white-space: pre;" direction="ltr" dominant-baseline="alphabetic">shape 1</text></g><g transform="translate(351 423) rotate(0 39.55833435058594 12.5)"><text x="0" y="17.52" font-family="Virgil, Segoe UI Emoji" font-size="20px" fill="#fefefe" text-anchor="start" style="white-space: pre;" direction="ltr" dominant-baseline="alphabetic">shape 2</text></g><g transform="translate(363 515) rotate(0 39.25 12.5)"><text x="0" y="17.52" font-family="Virgil, Segoe UI Emoji" font-size="20px" fill="#fefefe" text-anchor="start" style="white-space: pre;" direction="ltr" dominant-baseline="alphabetic">shape 3</text></g><g transform="translate(749 324) rotate(0 145.7916717529297 12.5)"><text x="0" y="17.52" font-family="Virgil, Segoe UI Emoji" font-size="20px" fill="#fefefe" text-anchor="start" style="white-space: pre;" direction="ltr" dominant-baseline="alphabetic">shape 1 instance data vector</text></g><g transform="translate(760 413) rotate(0 150.1999969482422 12.5)"><text x="0" y="17.52" font-family="Virgil, Segoe UI Emoji" font-size="20px" fill="#fefefe" text-anchor="start" style="white-space: pre;" direction="ltr" dominant-baseline="alphabetic">shape 2 instance data vector</text></g><g transform="translate(775 504) rotate(0 149.89166259765625 12.5)"><text x="0" y="17.52" font-family="Virgil, Segoe UI Emoji" font-size="20px" fill="#fefefe" text-anchor="start" style="white-space: pre;" direction="ltr" dominant-baseline="alphabetic">shape 3 instance data vector</text></g><g transform="translate(289 287) rotate(0 -4 212.5)" stroke="none"><path fill="#fefefe" d="M 1.59,0.11 Q 1.59,0.11 0.40,16.49 -0.78,32.88 -1.29,54.18 -1.81,75.48 -2.04,101.22 -2.26,126.95 -2.37,173.54 -2.47,220.12 -2.52,249.12 -2.57,278.13 -2.59,320.35 -2.62,362.58 -3.78,380.56 -4.94,398.55 -5.80,411.82 -6.66,425.08 -6.71,425.29 -6.76,425.50 -6.87,425.69 -6.99,425.87 -7.15,426.01 -7.32,426.15 -7.52,426.22 -7.72,426.30 -7.94,426.31 -8.15,426.32 -8.36,426.26 -8.57,426.20 -8.75,426.08 -8.92,425.96 -9.05,425.78 -9.18,425.61 -9.25,425.40 -9.32,425.20 -9.31,424.98 -9.31,424.77 -9.24,424.56 -9.17,424.36 -9.04,424.19 -8.90,424.02 -8.72,423.90 -8.54,423.78 -8.33,423.72 -8.13,423.67 -7.91,423.68 -7.69,423.69 -7.49,423.78 -7.29,423.86 -7.13,424.00 -6.97,424.14 -6.86,424.33 -6.75,424.51 -6.70,424.73 -6.66,424.94 -6.69,425.15 -6.71,425.37 -6.80,425.56 -6.90,425.76 -7.05,425.91 -7.20,426.07 -7.39,426.17 -7.58,426.27 -7.80,426.30 -8.01,426.33 -8.22,426.29 -8.43,426.26 -8.62,426.15 -8.81,426.05 -8.96,425.89 -9.11,425.73 -9.20,425.54 -9.29,425.34 -9.31,425.12 -9.33,424.91 -9.33,424.91 -9.33,424.91 -8.48,411.64 -7.63,398.38 -6.48,380.48 -5.33,362.57 -5.32,320.35 -5.31,278.12 -5.28,249.12 -5.26,220.12 -5.18,173.52 -5.11,126.93 -4.92,101.17 -4.74,75.42 -4.28,54.04 -3.81,32.66 -2.70,16.27 -1.59,-0.11 -1.56,-0.30 -1.52,-0.49 -1.44,-0.66 -1.36,-0.84 -1.24,-0.99 -1.12,-1.14 -0.96,-1.26 -0.81,-1.37 -0.63,-1.45 -0.46,-1.53 -0.27,-1.56 -0.08,-1.59 0.11,-1.58 0.30,-1.57 0.48,-1.51 0.67,-1.45 0.83,-1.35 0.99,-1.25 1.13,-1.11 1.27,-0.97 1.36,-0.80 1.46,-0.64 1.52,-0.45 1.57,-0.27 1.58,-0.08 1.59,0.11 1.59,0.11 L 1.59,0.11 Z"></path></g><g transform="translate(287 287) rotate(0 108 0)" stroke="none"><path fill="#fefefe" d="M 0,-1.64 Q 0,-1.64 14.08,-1.60 28.17,-1.55 65.49,-1.52 102.82,-1.48 130.18,-1.46 157.55,-1.44 171.76,-1.42 185.98,-1.40 194.03,-1.39 202.09,-1.38 206.09,-1.37 210.08,-1.36 213.04,-1.35 216,-1.34 216.21,-1.31 216.43,-1.27 216.62,-1.17 216.81,-1.07 216.96,-0.91 217.11,-0.75 217.20,-0.55 217.29,-0.36 217.32,-0.14 217.34,0.07 217.29,0.28 217.25,0.49 217.14,0.68 217.02,0.87 216.86,1.01 216.69,1.15 216.49,1.23 216.28,1.31 216.07,1.32 215.85,1.34 215.64,1.28 215.43,1.22 215.25,1.10 215.07,0.97 214.94,0.80 214.80,0.63 214.73,0.42 214.66,0.21 214.66,-0.00 214.66,-0.21 214.73,-0.42 214.80,-0.63 214.94,-0.80 215.07,-0.97 215.25,-1.10 215.43,-1.22 215.64,-1.28 215.85,-1.34 216.07,-1.32 216.29,-1.31 216.49,-1.23 216.69,-1.15 216.86,-1.01 217.02,-0.87 217.14,-0.68 217.25,-0.49 217.30,-0.28 217.34,-0.07 217.32,0.14 217.29,0.36 217.20,0.55 217.11,0.75 216.96,0.91 216.81,1.07 216.62,1.17 216.43,1.27 216.21,1.31 215.99,1.34 215.99,1.34 216,1.34 213.04,1.35 210.08,1.36 206.09,1.37 202.09,1.38 194.03,1.39 185.98,1.40 171.76,1.42 157.55,1.44 130.18,1.46 102.82,1.48 65.49,1.52 28.17,1.55 14.08,1.60 0,1.64 -0.19,1.62 -0.39,1.59 -0.57,1.52 -0.76,1.45 -0.92,1.34 -1.09,1.23 -1.22,1.08 -1.35,0.93 -1.44,0.75 -1.53,0.58 -1.58,0.39 -1.63,0.19 -1.63,-0.00 -1.63,-0.19 -1.58,-0.39 -1.53,-0.58 -1.44,-0.75 -1.35,-0.93 -1.22,-1.08 -1.09,-1.23 -0.92,-1.34 -0.76,-1.45 -0.57,-1.52 -0.39,-1.59 -0.19,-1.62 0.00,-1.64 0.00,-1.64 L 0,-1.64 Z"></path></g><g transform="translate(491 286) rotate(0 25 0)" stroke="none"><path fill="#fefefe" d="M 0,-2.01 Q 0,-2.01 3.16,-1.91 6.32,-1.82 9.96,-1.75 13.61,-1.68 18.03,-1.63 22.46,-1.58 25.49,-1.54 28.52,-1.51 30.95,-1.48 33.39,-1.45 35.00,-1.53 36.61,-1.61 38.16,-1.68 39.71,-1.75 40.94,-1.84 42.17,-1.93 43.27,-2.00 44.37,-2.08 47.18,-2.20 50,-2.32 50.37,-2.26 50.74,-2.20 51.07,-2.03 51.40,-1.85 51.66,-1.58 51.92,-1.30 52.08,-0.96 52.24,-0.62 52.28,-0.24 52.32,0.12 52.24,0.49 52.16,0.86 51.96,1.18 51.77,1.50 51.48,1.75 51.20,1.99 50.85,2.13 50.50,2.27 50.12,2.29 49.74,2.31 49.38,2.21 49.02,2.11 48.70,1.90 48.39,1.69 48.16,1.39 47.94,1.09 47.82,0.73 47.70,0.37 47.70,-0.00 47.70,-0.37 47.82,-0.73 47.94,-1.09 48.17,-1.39 48.39,-1.69 48.71,-1.90 49.02,-2.11 49.38,-2.21 49.74,-2.31 50.12,-2.29 50.50,-2.27 50.85,-2.13 51.20,-1.99 51.48,-1.75 51.77,-1.50 51.97,-1.18 52.16,-0.86 52.24,-0.49 52.32,-0.12 52.28,0.24 52.24,0.62 52.08,0.96 51.92,1.30 51.66,1.58 51.40,1.85 51.07,2.03 50.74,2.20 50.37,2.26 49.99,2.32 49.99,2.32 50,2.32 47.18,2.20 44.37,2.08 43.27,2.00 42.17,1.93 40.94,1.84 39.71,1.75 38.16,1.68 36.61,1.61 35.00,1.53 33.39,1.45 30.95,1.48 28.52,1.51 25.49,1.54 22.46,1.58 18.03,1.63 13.61,1.68 9.96,1.75 6.32,1.82 3.16,1.91 0,2.01 -0.24,1.98 -0.48,1.95 -0.70,1.86 -0.93,1.78 -1.13,1.64 -1.33,1.50 -1.49,1.32 -1.65,1.14 -1.76,0.92 -1.88,0.71 -1.94,0.47 -1.99,0.24 -1.99,-0.00 -1.99,-0.24 -1.94,-0.47 -1.88,-0.71 -1.76,-0.92 -1.65,-1.14 -1.49,-1.32 -1.33,-1.50 -1.13,-1.64 -0.93,-1.78 -0.70,-1.86 -0.48,-1.95 -0.24,-1.98 0.00,-2.01 0.00,-2.01 L 0,-2.01 Z"></path></g><g transform="translate(546 280) rotate(0 8.5 216)" stroke="none"><path fill="#fefefe" d="M 1.43,-0.61 Q 1.43,-0.61 2.26,1.41 3.09,3.44 3.77,6.44 4.44,9.44 4.71,13.93 4.99,18.43 5.10,22.90 5.20,27.38 5.24,31.29 5.28,35.21 5.30,41.76 5.31,48.31 5.32,53.40 5.32,58.48 5.32,62.37 5.32,66.25 5.32,68.48 5.32,70.70 5.38,72.51 5.45,74.32 5.48,76.24 5.51,78.16 5.48,81.56 5.45,84.96 5.43,87.56 5.41,90.16 5.40,92.70 5.38,95.24 5.37,97.47 5.36,99.70 5.46,101.22 5.56,102.74 5.60,104.54 5.64,106.34 5.64,108.25 5.65,110.17 5.70,111.84 5.74,113.52 5.69,115.95 5.63,118.39 5.58,120.87 5.54,123.34 5.51,126.11 5.48,128.89 5.45,131.51 5.43,134.13 5.41,136.39 5.40,138.65 5.39,140.76 5.38,142.87 5.93,145.35 6.48,147.83 7.01,150.99 7.54,154.15 7.77,157.56 8.00,160.96 8.09,164.71 8.19,168.46 8.79,171.96 9.39,175.46 9.66,179.06 9.93,182.66 10.32,185.57 10.71,188.47 10.89,190.62 11.06,192.76 11.69,195.28 12.32,197.80 13.17,201.81 14.03,205.82 14.68,209.55 15.33,213.29 15.90,216.89 16.46,220.49 16.98,223.14 17.51,225.79 17.74,228.43 17.97,231.08 18.07,233.64 18.17,236.20 18.21,238.44 18.25,240.68 18.27,243.65 18.28,246.61 18.29,249.60 18.30,252.58 18.30,255.86 18.30,259.15 18.31,263.13 18.31,267.11 18.31,270.81 18.31,274.52 18.31,278.39 18.31,282.27 18.31,285.93 18.31,289.59 18.31,293.73 18.31,297.87 18.31,303.08 18.31,308.29 18.31,313.96 18.31,319.62 18.31,325.19 18.31,330.76 18.31,336.29 18.31,341.82 18.31,349.92 18.31,358.02 18.31,366.35 18.31,374.68 17.44,383.75 16.58,392.81 15.34,401.27 14.11,409.73 13.30,416.18 12.49,422.63 11.22,425.57 9.95,428.52 8.45,429.95 6.95,431.39 4.80,432.46 2.66,433.54 2.39,433.61 2.13,433.67 1.86,433.65 1.58,433.63 1.33,433.52 1.09,433.41 0.88,433.23 0.68,433.05 0.55,432.81 0.41,432.57 0.36,432.30 0.31,432.04 0.35,431.77 0.39,431.50 0.51,431.25 0.63,431.01 0.82,430.82 1.02,430.63 1.26,430.50 1.50,430.38 1.77,430.35 2.04,430.31 2.31,430.36 2.58,430.42 2.82,430.55 3.05,430.69 3.23,430.89 3.42,431.09 3.52,431.34 3.63,431.59 3.65,431.86 3.67,432.14 3.61,432.40 3.54,432.66 3.39,432.89 3.25,433.12 3.03,433.29 2.82,433.46 2.56,433.56 2.31,433.65 2.04,433.66 1.76,433.66 1.50,433.58 1.24,433.50 1.02,433.34 0.80,433.18 0.64,432.96 0.48,432.74 0.41,432.48 0.33,432.22 0.33,431.95 0.34,431.67 0.44,431.42 0.53,431.16 0.70,430.95 0.87,430.74 1.10,430.59 1.33,430.45 1.33,430.45 1.33,430.45 3.22,429.80 5.11,429.16 6.36,428.26 7.61,427.36 8.75,424.82 9.89,422.27 10.70,415.81 11.51,409.35 12.74,400.96 13.96,392.56 14.82,383.62 15.68,374.68 15.68,366.35 15.68,358.02 15.68,349.92 15.68,341.82 15.68,336.29 15.68,330.76 15.68,325.19 15.68,319.62 15.68,313.96 15.68,308.29 15.68,303.08 15.68,297.87 15.68,293.73 15.68,289.59 15.68,285.93 15.68,282.27 15.68,278.39 15.68,274.52 15.68,270.81 15.68,267.11 15.68,263.13 15.68,259.15 15.67,255.87 15.67,252.59 15.66,249.61 15.66,246.63 15.64,243.68 15.62,240.73 15.58,238.52 15.54,236.30 15.45,233.80 15.35,231.30 15.14,228.80 14.93,226.29 14.39,223.59 13.86,220.89 13.30,217.32 12.74,213.74 12.09,210.06 11.45,206.37 10.60,202.40 9.76,198.43 9.09,195.71 8.43,192.98 8.26,190.90 8.10,188.82 7.69,185.84 7.29,182.86 7.03,179.38 6.78,175.91 6.15,172.22 5.52,168.53 5.42,164.84 5.32,161.15 5.10,157.87 4.88,154.60 4.34,151.50 3.81,148.41 3.21,145.65 2.61,142.88 2.60,140.77 2.59,138.65 2.58,136.39 2.56,134.13 2.54,131.51 2.51,128.89 2.48,126.11 2.45,123.34 2.41,120.87 2.36,118.39 2.30,115.95 2.25,113.52 2.29,111.84 2.34,110.17 2.35,108.25 2.35,106.34 2.39,104.54 2.43,102.74 2.53,101.22 2.63,99.70 2.62,97.47 2.61,95.24 2.59,92.70 2.58,90.16 2.56,87.56 2.54,84.96 2.51,81.56 2.48,78.16 2.51,76.24 2.54,74.32 2.60,72.51 2.67,70.71 2.66,68.48 2.66,66.25 2.65,62.37 2.64,58.48 2.63,53.40 2.61,48.32 2.59,41.78 2.56,35.24 2.50,31.35 2.44,27.45 2.31,23.03 2.18,18.61 1.90,14.34 1.62,10.07 0.98,7.34 0.35,4.60 -0.54,2.61 -1.43,0.61 -1.48,0.43 -1.54,0.25 -1.54,0.06 -1.55,-0.12 -1.52,-0.30 -1.48,-0.49 -1.40,-0.66 -1.32,-0.83 -1.20,-0.97 -1.08,-1.12 -0.93,-1.23 -0.78,-1.35 -0.61,-1.42 -0.43,-1.49 -0.25,-1.53 -0.06,-1.56 0.12,-1.54 0.30,-1.53 0.48,-1.47 0.66,-1.41 0.82,-1.31 0.98,-1.21 1.11,-1.07 1.24,-0.94 1.34,-0.77 1.43,-0.61 1.43,-0.61 L 1.43,-0.61 Z"></path></g><g transform="translate(319 253) rotate(0 108.65833282470703 12.5)"><text x="0" y="17.52" font-family="Virgil, Segoe UI Emoji" font-size="20px" fill="#fefefe" text-anchor="start" style="white-space: pre;" direction="ltr" dominant-baseline="alphabetic">Vector of shape data</text></g><g stroke-linecap="round" transform="translate(235 200) rotate(0 503 274)"><path d="M32 0 C355.36 -1.27, 678.67 -1.4, 974 0 M32 0 C339.06 -1.31, 645.25 -1.85, 974 0 M974 0 C994.65 0.31, 1007.18 10.29, 1006 32 M974 0 C995.25 -0.4, 1005.07 12.59, 1006 32 M1006 32 C1004.1 166.81, 1005.02 300.96, 1006 516 M1006 32 C1005.49 158.53, 1005.33 284.6, 1006 516 M1006 516 C1004.29 537.35, 996.3 546.94, 974 548 M1006 516 C1006.37 538.92, 997.3 550.05, 974 548 M974 548 C685.52 547.93, 395.02 548.19, 32 548 M974 548 C730.48 545.18, 486.21 544.59, 32 548 M32 548 C9.59 547, 0.65 536.03, 0 516 M32 548 C12.59 546.69, -1.56 535.66, 0 516 M0 516 C0.69 357.33, 1.31 199.34, 0 32 M0 516 C0.82 324.33, 1.04 132.35, 0 32 M0 32 C-0.93 9.83, 11.77 -0.56, 32 0 M0 32 C-1.07 9.61, 11.21 -0.92, 32 0" stroke="#fefefe" stroke-width="1" fill="none"></path></g><g transform="translate(383 783) rotate(0 384.0249938964844 50)"><text x="0" y="17.52" font-family="Virgil, Segoe UI Emoji" font-size="20px" fill="#fefefe" text-anchor="start" style="white-space: pre;" direction="ltr" dominant-baseline="alphabetic">When we need to render multiple shape instance, we issue a vkCmdDraw() with</text><text x="0" y="42.519999999999996" font-family="Virgil, Segoe UI Emoji" font-size="20px" fill="#fefefe" text-anchor="start" style="white-space: pre;" direction="ltr" dominant-baseline="alphabetic">multiple instance count as parameter. This means we have a separate draw</text><text x="0" y="67.52" font-family="Virgil, Segoe UI Emoji" font-size="20px" fill="#fefefe" text-anchor="start" style="white-space: pre;" direction="ltr" dominant-baseline="alphabetic">call for each shape. So if vkCmdDraw() is treated as a basis operation</text><text x="0" y="92.52" font-family="Virgil, Segoe UI Emoji" font-size="20px" fill="#fefefe" text-anchor="start" style="white-space: pre;" direction="ltr" dominant-baseline="alphabetic">then complexity is directly proportional to number of shapes</text></g><g transform="translate(108 943) rotate(0 401.5916748046875 35)"><text x="0" y="24.528" font-family="Virgil, Segoe UI Emoji" font-size="28px" fill="#1971c2" text-anchor="start" style="white-space: pre;" direction="ltr" dominant-baseline="alphabetic">IT IS NOT POSSIBLE TO RENDER DIFFERENT SHAPES</text><text x="0" y="59.528" font-family="Virgil, Segoe UI Emoji" font-size="28px" fill="#1971c2" text-anchor="start" style="white-space: pre;" direction="ltr" dominant-baseline="alphabetic">IN A SINGLE DRAW CALL!</text></g><g transform="translate(496 975) rotate(0 321.7749938964844 25)"><text x="0" y="17.52" font-family="Virgil, Segoe UI Emoji" font-size="20px" fill="#fefefe" text-anchor="start" style="white-space: pre;" direction="ltr" dominant-baseline="alphabetic">but at the least, we're able to reduce the number of drqw calls</text><text x="0" y="42.519999999999996" font-family="Virgil, Segoe UI Emoji" font-size="20px" fill="#fefefe" text-anchor="start" style="white-space: pre;" direction="ltr" dominant-baseline="alphabetic">significantly! by draw call batching.</text></g><g transform="translate(117 626) rotate(0 69 -37.5)" stroke="none"><path fill="#e03131" d="M -1.54,-0.54 Q -1.54,-0.54 0.22,-5.41 1.99,-10.29 5.09,-16.19 8.20,-22.09 14.47,-29.84 20.75,-37.60 27.21,-43.22 33.67,-48.85 39.92,-52.70 46.17,-56.56 50.57,-58.77 54.97,-60.98 57.96,-62.47 60.96,-63.97 63.39,-65.19 65.81,-66.40 67.39,-67.26 68.97,-68.12 70.54,-68.84 72.11,-69.56 74.92,-70.11 77.74,-70.67 82.31,-71.74 86.88,-72.80 90.87,-73.54 94.87,-74.28 98.59,-74.88 102.31,-75.47 104.78,-75.73 107.25,-75.98 109.18,-76.13 111.11,-76.29 114.24,-76.32 117.38,-76.34 120.43,-76.35 123.48,-76.35 127.66,-76.35 131.83,-76.35 134.91,-76.35 137.99,-76.35 138.21,-76.31 138.42,-76.28 138.62,-76.18 138.81,-76.07 138.96,-75.92 139.11,-75.76 139.21,-75.56 139.30,-75.36 139.32,-75.14 139.35,-74.92 139.30,-74.71 139.25,-74.50 139.14,-74.31 139.03,-74.12 138.86,-73.98 138.69,-73.84 138.49,-73.76 138.29,-73.67 138.07,-73.66 137.85,-73.65 137.64,-73.71 137.43,-73.77 137.25,-73.89 137.07,-74.01 136.93,-74.18 136.80,-74.36 136.73,-74.57 136.66,-74.77 136.66,-74.99 136.66,-75.21 136.73,-75.42 136.80,-75.63 136.93,-75.80 137.06,-75.98 137.24,-76.10 137.42,-76.22 137.64,-76.28 137.85,-76.34 138.06,-76.33 138.28,-76.32 138.49,-76.24 138.69,-76.16 138.86,-76.01 139.02,-75.87 139.14,-75.69 139.25,-75.50 139.30,-75.28 139.35,-75.07 139.32,-74.85 139.30,-74.64 139.21,-74.44 139.12,-74.24 138.97,-74.08 138.82,-73.92 138.62,-73.82 138.43,-73.71 138.21,-73.68 138.00,-73.64 138.00,-73.64 138.00,-73.64 134.92,-73.63 131.83,-73.61 127.67,-73.60 123.50,-73.58 120.46,-73.54 117.42,-73.51 114.35,-73.44 111.28,-73.38 109.41,-73.31 107.54,-73.25 105.15,-72.98 102.76,-72.72 99.08,-72.10 95.41,-71.48 91.48,-70.71 87.56,-69.94 82.96,-68.81 78.36,-67.68 75.84,-67.13 73.31,-66.57 71.80,-66.03 70.28,-65.49 68.65,-64.75 67.01,-64.00 64.59,-62.78 62.17,-61.57 59.18,-60.06 56.19,-58.55 51.91,-56.38 47.62,-54.21 41.57,-50.47 35.51,-46.73 29.24,-41.26 22.98,-35.79 16.90,-28.25 10.82,-20.71 7.86,-14.98 4.90,-9.25 3.22,-4.35 1.54,0.54 1.45,0.72 1.36,0.89 1.23,1.04 1.11,1.19 0.95,1.31 0.79,1.42 0.61,1.50 0.42,1.57 0.23,1.60 0.03,1.63 -0.15,1.61 -0.35,1.59 -0.54,1.53 -0.72,1.46 -0.89,1.35 -1.05,1.24 -1.18,1.10 -1.32,0.95 -1.41,0.78 -1.51,0.61 -1.56,0.42 -1.61,0.23 -1.62,0.03 -1.62,-0.15 -1.58,-0.35 -1.54,-0.54 -1.54,-0.54 L -1.54,-0.54 Z"></path></g><g transform="translate(249 542) rotate(0 6.5 14.5)" stroke="none"><path fill="#e03131" d="M 0.88,-2.20 Q 0.88,-2.20 2.31,-1.62 3.75,-1.04 5.18,-0.51 6.61,0.00 8.05,0.19 9.48,0.37 10.86,1.16 12.24,1.95 13.27,3.52 14.29,5.10 14.15,6.44 14.01,7.79 13.13,9.05 12.25,10.32 11.04,12.18 9.83,14.03 9.03,15.47 8.22,16.91 6.65,20.01 5.07,23.11 4.41,24.92 3.75,26.72 3.33,28.17 2.90,29.61 2.76,29.90 2.61,30.19 2.37,30.42 2.14,30.64 1.85,30.78 1.55,30.92 1.23,30.96 0.91,31.00 0.59,30.93 0.27,30.87 -0.00,30.70 -0.28,30.54 -0.49,30.29 -0.70,30.05 -0.83,29.75 -0.95,29.45 -0.97,29.12 -0.99,28.80 -0.91,28.49 -0.83,28.17 -0.65,27.90 -0.47,27.63 -0.21,27.43 0.04,27.23 0.34,27.12 0.65,27.02 0.97,27.01 1.30,27.01 1.61,27.11 1.92,27.21 2.18,27.40 2.44,27.60 2.62,27.87 2.81,28.13 2.90,28.44 2.99,28.76 2.97,29.08 2.96,29.40 2.84,29.71 2.73,30.01 2.52,30.26 2.31,30.51 2.03,30.68 1.76,30.85 1.44,30.92 1.13,31.00 0.80,30.97 0.48,30.93 0.18,30.80 -0.10,30.67 -0.34,30.45 -0.58,30.23 -0.73,29.94 -0.89,29.66 -0.95,29.34 -1.00,29.02 -0.95,28.70 -0.90,28.37 -0.90,28.38 -0.90,28.38 -0.40,26.95 0.10,25.53 0.70,23.45 1.30,21.38 2.69,18.05 4.07,14.72 4.83,13.21 5.59,11.71 7.40,8.96 9.20,6.22 8.13,5.63 7.06,5.04 6.04,4.73 5.02,4.41 3.51,3.88 1.99,3.34 0.55,2.77 -0.88,2.20 -1.13,2.07 -1.38,1.93 -1.59,1.73 -1.80,1.54 -1.96,1.30 -2.12,1.06 -2.22,0.79 -2.32,0.52 -2.35,0.24 -2.37,-0.04 -2.33,-0.32 -2.30,-0.61 -2.19,-0.87 -2.08,-1.14 -1.91,-1.37 -1.75,-1.61 -1.53,-1.79 -1.31,-1.98 -1.05,-2.11 -0.80,-2.24 -0.52,-2.30 -0.24,-2.36 0.04,-2.36 0.32,-2.35 0.60,-2.28 0.88,-2.20 0.88,-2.20 L 0.88,-2.20 Z"></path></g><g transform="translate(10 643) rotate(0 103.86666870117188 37.5)"><text x="0" y="17.52" font-family="Virgil, Segoe UI Emoji" font-size="20px" fill="#fefefe" text-anchor="start" style="white-space: pre;" direction="ltr" dominant-baseline="alphabetic">All shape data will</text><text x="0" y="42.519999999999996" font-family="Virgil, Segoe UI Emoji" font-size="20px" fill="#fefefe" text-anchor="start" style="white-space: pre;" direction="ltr" dominant-baseline="alphabetic">be sent as a single</text><text x="0" y="67.52" font-family="Virgil, Segoe UI Emoji" font-size="20px" fill="#fefefe" text-anchor="start" style="white-space: pre;" direction="ltr" dominant-baseline="alphabetic">uniform buffer object</text></g><g transform="translate(1456 221) rotate(0 -165 58)" stroke="none"><path fill="#e03131" d="M 1.51,0.37 Q 1.51,0.37 0.90,2.67 0.29,4.96 -1.44,8.92 -3.18,12.88 -7.94,23.99 -12.69,35.10 -18.19,45.90 -23.68,56.71 -27.75,63.89 -31.83,71.08 -35.90,76.49 -39.97,81.91 -43.46,85.67 -46.94,89.42 -50.21,91.94 -53.48,94.45 -58.66,97.26 -63.84,100.08 -68.89,102.70 -73.94,105.31 -79.91,107.32 -85.88,109.33 -92.16,111.04 -98.43,112.75 -104.57,114.06 -110.70,115.37 -116.53,115.93 -122.36,116.49 -128.58,116.73 -134.80,116.96 -142.05,117.06 -149.29,117.16 -157.54,117.20 -165.80,117.25 -174.19,117.26 -182.59,117.28 -193.34,117.29 -204.10,117.30 -212.40,117.30 -220.71,117.30 -228.56,117.31 -236.40,117.31 -243.18,117.31 -249.97,117.31 -255.44,117.31 -260.91,117.31 -264.96,117.31 -269.01,117.31 -272.45,117.31 -275.90,117.31 -279.09,117.31 -282.28,117.31 -285.07,117.31 -287.87,117.31 -290.49,117.31 -293.12,117.31 -296.24,117.31 -299.37,117.31 -303.00,117.31 -306.63,117.31 -310.76,117.31 -314.89,117.31 -317.80,117.31 -320.70,117.31 -323.09,117.31 -325.47,117.31 -327.73,117.44 -329.99,117.56 -330.25,117.52 -330.50,117.48 -330.72,117.36 -330.95,117.24 -331.12,117.06 -331.29,116.88 -331.40,116.65 -331.51,116.41 -331.54,116.16 -331.56,115.91 -331.51,115.66 -331.45,115.41 -331.32,115.20 -331.19,114.98 -331.00,114.81 -330.80,114.65 -330.57,114.56 -330.33,114.46 -330.08,114.45 -329.83,114.43 -329.58,114.50 -329.34,114.57 -329.13,114.71 -328.92,114.86 -328.76,115.06 -328.61,115.26 -328.53,115.50 -328.45,115.74 -328.45,116.00 -328.45,116.25 -328.53,116.49 -328.61,116.73 -328.76,116.93 -328.92,117.13 -329.13,117.28 -329.34,117.42 -329.58,117.49 -329.83,117.56 -330.08,117.54 -330.33,117.53 -330.57,117.43 -330.80,117.34 -331.00,117.18 -331.19,117.01 -331.32,116.79 -331.45,116.58 -331.51,116.33 -331.56,116.08 -331.54,115.83 -331.51,115.57 -331.40,115.34 -331.29,115.11 -331.12,114.93 -330.94,114.74 -330.72,114.63 -330.50,114.51 -330.25,114.47 -329.99,114.43 -329.99,114.43 -330.00,114.43 -327.73,114.55 -325.47,114.68 -323.09,114.68 -320.70,114.68 -317.80,114.68 -314.89,114.68 -310.76,114.68 -306.63,114.68 -303.00,114.68 -299.37,114.68 -296.24,114.68 -293.12,114.68 -290.49,114.68 -287.87,114.68 -285.07,114.68 -282.28,114.68 -279.09,114.68 -275.90,114.68 -272.45,114.68 -269.01,114.68 -264.96,114.68 -260.91,114.68 -255.44,114.68 -249.97,114.68 -243.18,114.68 -236.40,114.68 -228.56,114.68 -220.71,114.68 -212.41,114.67 -204.10,114.67 -193.34,114.66 -182.59,114.65 -174.20,114.64 -165.81,114.62 -157.57,114.58 -149.33,114.53 -142.12,114.43 -134.90,114.33 -128.76,114.10 -122.61,113.87 -116.93,113.33 -111.25,112.79 -105.19,111.50 -99.12,110.21 -92.92,108.52 -86.72,106.83 -80.94,104.89 -75.15,102.96 -70.13,100.35 -65.10,97.75 -60.10,95.04 -55.10,92.33 -52.00,89.97 -48.90,87.60 -45.52,83.94 -42.13,80.28 -38.16,75.01 -34.20,69.73 -30.17,62.59 -26.15,55.45 -20.72,44.73 -15.28,34.00 -10.56,22.86 -5.83,11.72 -4.21,7.98 -2.59,4.23 -2.05,1.92 -1.51,-0.37 -1.44,-0.55 -1.38,-0.73 -1.27,-0.88 -1.16,-1.03 -1.02,-1.16 -0.88,-1.28 -0.71,-1.37 -0.54,-1.46 -0.36,-1.50 -0.18,-1.55 0.00,-1.55 0.19,-1.55 0.37,-1.50 0.55,-1.45 0.72,-1.37 0.89,-1.28 1.03,-1.15 1.17,-1.03 1.27,-0.87 1.38,-0.72 1.45,-0.54 1.51,-0.36 1.54,-0.18 1.56,0.00 1.53,0.19 1.51,0.37 1.51,0.37 L 1.51,0.37 Z"></path></g><g transform="translate(1140 324) rotate(0 11.5 15)" stroke="none"><path fill="#e03131" d="M 1.28,1.06 Q 1.28,1.06 -1.63,4.48 -4.54,7.90 -6.89,9.60 -9.25,11.29 -8.51,12.21 -7.77,13.12 -4.65,14.29 -1.53,15.45 2.99,16.62 7.51,17.80 15.86,20.64 24.20,23.48 28.03,24.98 31.87,26.49 34.68,27.60 37.50,28.70 37.69,28.81 37.88,28.93 38.03,29.10 38.18,29.27 38.26,29.48 38.35,29.68 38.36,29.91 38.38,30.13 38.32,30.35 38.26,30.57 38.14,30.75 38.01,30.94 37.83,31.08 37.66,31.22 37.44,31.29 37.23,31.36 37.01,31.37 36.78,31.37 36.57,31.30 36.36,31.23 36.18,31.09 36.00,30.96 35.87,30.77 35.74,30.59 35.68,30.37 35.62,30.16 35.63,29.93 35.64,29.71 35.72,29.50 35.80,29.29 35.94,29.12 36.09,28.95 36.28,28.83 36.47,28.71 36.69,28.66 36.91,28.61 37.13,28.63 37.35,28.65 37.56,28.75 37.76,28.84 37.93,28.99 38.09,29.14 38.20,29.34 38.31,29.54 38.35,29.76 38.38,29.98 38.35,30.20 38.32,30.43 38.21,30.63 38.11,30.82 37.95,30.98 37.79,31.14 37.58,31.23 37.38,31.33 37.16,31.36 36.93,31.38 36.71,31.34 36.49,31.29 36.49,31.29 36.49,31.29 33.67,30.21 30.85,29.13 27.06,27.69 23.27,26.24 15.02,23.48 6.77,20.73 2.02,19.56 -2.71,18.39 -6.53,16.74 -10.34,15.09 -11.04,13.45 -11.73,11.81 -9.34,8.85 -6.95,5.89 -4.11,2.41 -1.28,-1.06 -1.13,-1.20 -0.98,-1.34 -0.81,-1.44 -0.63,-1.54 -0.44,-1.59 -0.25,-1.64 -0.05,-1.65 0.15,-1.66 0.34,-1.61 0.54,-1.57 0.72,-1.48 0.90,-1.40 1.05,-1.27 1.21,-1.14 1.33,-0.98 1.45,-0.81 1.52,-0.63 1.60,-0.44 1.63,-0.24 1.66,-0.05 1.64,0.14 1.63,0.35 1.56,0.53 1.49,0.72 1.38,0.89 1.28,1.06 1.28,1.06 L 1.28,1.06 Z"></path></g><g transform="translate(1358 332) rotate(0 -87 42)" stroke="none"><path fill="#e03131" d="M 0.25,1.54 Q 0.25,1.54 -8.37,2.94 -17.00,4.34 -21.81,5.22 -26.61,6.09 -31.28,6.74 -35.94,7.40 -40.22,7.96 -44.50,8.52 -47.98,9.32 -51.46,10.11 -55.30,10.75 -59.15,11.39 -62.19,11.94 -65.24,12.49 -69.06,13.57 -72.89,14.65 -75.08,15.39 -77.28,16.14 -80.51,17.31 -83.74,18.49 -86.24,19.55 -88.74,20.62 -90.27,21.63 -91.81,22.65 -92.69,23.44 -93.56,24.24 -95.04,25.84 -96.52,27.45 -97.37,28.74 -98.22,30.04 -99.54,31.72 -100.85,33.41 -101.94,34.99 -103.04,36.56 -103.70,37.81 -104.36,39.06 -104.89,40.59 -105.41,42.12 -105.93,43.29 -106.46,44.46 -106.88,45.66 -107.30,46.87 -107.79,48.47 -108.29,50.07 -108.45,51.50 -108.62,52.94 -109.00,54.58 -109.38,56.23 -110.25,58.39 -111.12,60.54 -111.71,61.86 -112.30,63.18 -112.76,64.47 -113.23,65.76 -113.72,66.98 -114.21,68.20 -114.68,69.31 -115.16,70.42 -115.70,71.34 -116.24,72.27 -117.02,73.44 -117.80,74.62 -118.74,75.97 -119.68,77.32 -121.14,78.66 -122.61,80.00 -124.60,80.92 -126.59,81.83 -128.59,82.43 -130.60,83.02 -131.74,83.37 -132.88,83.73 -135.15,84.03 -137.41,84.33 -138.80,84.79 -140.19,85.25 -141.53,85.54 -142.86,85.82 -144.34,85.96 -145.82,86.09 -147.02,86.18 -148.21,86.26 -149.30,86.33 -150.38,86.40 -152.73,86.46 -155.07,86.53 -156.20,86.56 -157.33,86.59 -158.96,86.55 -160.59,86.50 -161.85,86.52 -163.12,86.54 -164.52,86.54 -165.92,86.53 -167.09,86.56 -168.26,86.58 -171.67,86.06 -175.08,85.53 -175.45,85.29 -175.83,85.05 -176.11,84.70 -176.39,84.36 -176.54,83.94 -176.70,83.52 -176.71,83.08 -176.72,82.63 -176.59,82.21 -176.46,81.78 -176.21,81.42 -175.95,81.05 -175.59,80.79 -175.22,80.53 -174.80,80.40 -174.37,80.27 -173.93,80.28 -173.48,80.29 -173.07,80.44 -172.65,80.60 -172.30,80.87 -171.95,81.15 -171.71,81.53 -171.47,81.90 -171.36,82.33 -171.25,82.76 -171.29,83.21 -171.32,83.65 -171.50,84.06 -171.67,84.47 -171.97,84.80 -172.26,85.14 -172.65,85.36 -173.04,85.58 -173.48,85.66 -173.91,85.75 -174.35,85.69 -174.80,85.63 -175.20,85.43 -175.59,85.23 -175.91,84.92 -176.23,84.61 -176.43,84.21 -176.62,83.81 -176.69,83.37 -176.75,82.93 -176.66,82.49 -176.58,82.05 -176.36,81.66 -176.14,81.28 -175.81,80.98 -175.48,80.68 -175.07,80.50 -174.67,80.33 -174.22,80.29 -173.78,80.25 -173.35,80.36 -172.91,80.46 -172.91,80.46 -172.91,80.46 -170.59,80.93 -168.26,81.41 -167.09,81.43 -165.92,81.46 -164.52,81.45 -163.12,81.45 -161.85,81.47 -160.59,81.49 -158.96,81.44 -157.33,81.40 -156.20,81.42 -155.08,81.45 -153.78,81.46 -152.49,81.47 -150.42,81.55 -148.35,81.62 -147.22,81.64 -146.09,81.66 -144.81,81.62 -143.54,81.59 -142.45,81.49 -141.36,81.39 -139.74,80.94 -138.12,80.48 -135.00,79.81 -131.88,79.14 -130.15,78.50 -128.43,77.86 -127.06,77.21 -125.69,76.57 -124.65,75.61 -123.62,74.65 -122.74,73.27 -121.86,71.89 -120.60,70.16 -119.33,68.42 -118.79,67.40 -118.25,66.38 -117.70,65.29 -117.15,64.20 -116.54,62.77 -115.92,61.33 -115.31,60.30 -114.70,59.27 -114.09,57.24 -113.48,55.22 -113.11,53.79 -112.73,52.37 -112.47,50.64 -112.20,48.90 -111.68,47.11 -111.15,45.31 -109.96,43.10 -108.78,40.89 -108.08,39.07 -107.38,37.24 -106.52,35.98 -105.66,34.73 -104.52,33.13 -103.39,31.52 -102.17,29.79 -100.95,28.06 -99.89,26.72 -98.83,25.38 -97.17,23.49 -95.51,21.61 -94.40,20.94 -93.30,20.28 -91.54,19.24 -89.78,18.19 -87.21,17.10 -84.65,16.00 -81.39,14.81 -78.13,13.62 -75.87,12.85 -73.61,12.09 -69.67,10.97 -65.72,9.85 -62.66,9.29 -59.59,8.72 -55.83,8.09 -52.07,7.46 -48.47,6.62 -44.87,5.78 -40.61,5.20 -36.35,4.61 -31.74,3.93 -27.14,3.25 -22.32,2.32 -17.49,1.40 -8.87,-0.06 -0.25,-1.54 -0.06,-1.54 0.11,-1.55 0.30,-1.52 0.48,-1.48 0.65,-1.40 0.82,-1.32 0.97,-1.20 1.12,-1.08 1.23,-0.93 1.34,-0.78 1.42,-0.61 1.49,-0.44 1.52,-0.25 1.56,-0.06 1.54,0.11 1.53,0.30 1.47,0.48 1.41,0.66 1.31,0.82 1.21,0.98 1.07,1.11 0.94,1.24 0.78,1.33 0.61,1.43 0.43,1.48 0.25,1.54 0.25,1.54 L 0.25,1.54 Z"></path></g><g transform="translate(1190 405) rotate(0 -5 8)" stroke="none"><path fill="#e03131" d="M 0.95,1.52 Q 0.95,1.52 -1.37,2.91 -3.71,4.29 -7.01,6.29 -10.32,8.30 -11.78,8.96 -13.25,9.62 -12.09,10.00 -10.93,10.37 -6.88,11.51 -2.83,12.64 0.02,13.16 2.88,13.68 5.06,14.07 7.24,14.47 7.48,14.55 7.72,14.63 7.92,14.78 8.11,14.93 8.26,15.14 8.40,15.34 8.46,15.58 8.53,15.82 8.52,16.07 8.51,16.32 8.41,16.56 8.32,16.79 8.16,16.98 8.00,17.17 7.78,17.30 7.57,17.43 7.33,17.48 7.08,17.54 6.83,17.51 6.58,17.49 6.36,17.38 6.13,17.28 5.95,17.10 5.77,16.93 5.65,16.71 5.53,16.49 5.49,16.24 5.45,16.00 5.49,15.75 5.53,15.50 5.65,15.28 5.76,15.06 5.94,14.89 6.13,14.72 6.35,14.61 6.58,14.51 6.83,14.48 7.08,14.45 7.32,14.50 7.56,14.56 7.78,14.69 7.99,14.82 8.16,15.01 8.32,15.20 8.41,15.43 8.50,15.66 8.52,15.91 8.53,16.16 8.47,16.40 8.40,16.64 8.26,16.85 8.12,17.06 7.92,17.21 7.72,17.36 7.48,17.44 7.25,17.52 7.00,17.52 6.75,17.52 6.75,17.52 6.75,17.52 4.56,17.21 2.36,16.90 -0.68,16.46 -3.73,16.02 -8.19,14.91 -12.65,13.79 -14.12,12.72 -15.58,11.65 -15.68,10.30 -15.77,8.94 -13.88,7.29 -11.98,5.63 -8.73,3.54 -5.48,1.45 -3.22,-0.03 -0.95,-1.52 -0.75,-1.62 -0.56,-1.71 -0.34,-1.75 -0.13,-1.79 0.08,-1.78 0.29,-1.77 0.50,-1.71 0.71,-1.65 0.90,-1.54 1.09,-1.43 1.24,-1.28 1.40,-1.13 1.51,-0.94 1.63,-0.76 1.70,-0.55 1.76,-0.35 1.78,-0.13 1.80,0.08 1.76,0.29 1.72,0.51 1.64,0.71 1.55,0.91 1.42,1.08 1.29,1.25 1.12,1.39 0.95,1.52 0.95,1.52 L 0.95,1.52 Z"></path></g><g transform="translate(1360 327) rotate(0 -69.5 95)" stroke="none"><path fill="#e03131" d="M 0.86,1.29 Q 0.86,1.29 -1.73,2.99 -4.34,4.69 -6.86,6.53 -9.38,8.37 -11.90,10.30 -14.41,12.23 -17.46,15.02 -20.50,17.81 -24.63,22.69 -28.77,27.56 -31.65,31.90 -34.54,36.24 -37.52,40.69 -40.49,45.15 -43.19,49.33 -45.88,53.52 -48.16,57.56 -50.44,61.61 -52.54,66.45 -54.64,71.28 -56.11,75.06 -57.58,78.85 -58.77,82.44 -59.96,86.04 -61.04,89.86 -62.12,93.67 -62.86,97.27 -63.60,100.87 -64.20,104.97 -64.80,109.07 -65.64,112.89 -66.48,116.70 -66.82,119.68 -67.17,122.65 -67.31,125.34 -67.46,128.03 -67.81,131.52 -68.17,135.01 -68.61,137.68 -69.05,140.34 -69.83,143.24 -70.60,146.14 -71.52,148.56 -72.44,150.98 -73.10,153.09 -73.75,155.20 -74.61,157.85 -75.48,160.50 -76.74,163.14 -78.00,165.78 -79.72,168.39 -81.44,171.00 -83.40,172.77 -85.37,174.54 -87.34,176.13 -89.31,177.71 -91.98,179.03 -94.65,180.34 -98.95,182.04 -103.24,183.74 -106.58,184.48 -109.92,185.22 -113.04,185.82 -116.16,186.41 -118.61,186.95 -121.07,187.48 -122.40,187.83 -123.74,188.18 -124.95,188.86 -126.16,189.54 -129.66,190.32 -133.16,191.11 -136.00,191.50 -138.83,191.90 -139.14,191.88 -139.45,191.86 -139.73,191.74 -140.02,191.61 -140.25,191.41 -140.48,191.20 -140.63,190.94 -140.79,190.67 -140.85,190.36 -140.91,190.06 -140.87,189.75 -140.83,189.44 -140.69,189.17 -140.56,188.89 -140.34,188.67 -140.12,188.45 -139.84,188.31 -139.57,188.17 -139.26,188.12 -138.95,188.08 -138.65,188.14 -138.35,188.19 -138.08,188.34 -137.80,188.50 -137.60,188.72 -137.39,188.95 -137.26,189.24 -137.14,189.52 -137.11,189.83 -137.09,190.14 -137.16,190.44 -137.23,190.74 -137.40,191.00 -137.56,191.26 -137.80,191.46 -138.04,191.66 -138.33,191.76 -138.62,191.87 -138.93,191.88 -139.24,191.89 -139.54,191.80 -139.84,191.72 -140.09,191.54 -140.34,191.36 -140.52,191.11 -140.71,190.86 -140.80,190.56 -140.89,190.26 -140.88,189.96 -140.88,189.65 -140.77,189.35 -140.67,189.06 -140.47,188.82 -140.28,188.58 -140.02,188.41 -139.76,188.24 -139.46,188.16 -139.16,188.09 -139.16,188.09 -139.16,188.09 -136.46,187.88 -133.75,187.67 -130.68,187.07 -127.60,186.46 -125.95,185.80 -124.30,185.13 -122.96,185.02 -121.63,184.92 -119.14,184.37 -116.65,183.83 -113.57,183.25 -110.48,182.66 -107.34,181.98 -104.20,181.29 -100.00,179.64 -95.80,177.98 -93.37,176.82 -90.94,175.66 -89.03,174.12 -87.12,172.58 -85.36,171.05 -83.61,169.53 -81.99,167.09 -80.36,164.64 -79.17,162.16 -77.97,159.69 -77.12,157.05 -76.26,154.42 -75.58,152.23 -74.89,150.04 -74.02,147.75 -73.14,145.46 -72.39,142.68 -71.64,139.90 -71.21,137.33 -70.78,134.75 -70.43,131.32 -70.08,127.89 -69.93,125.12 -69.78,122.35 -69.41,119.24 -69.05,116.14 -68.22,112.41 -67.40,108.69 -66.79,104.51 -66.18,100.34 -65.42,96.65 -64.66,92.96 -63.56,89.08 -62.47,85.21 -61.25,81.55 -60.04,77.89 -58.55,74.06 -57.07,70.23 -54.91,65.27 -52.76,60.31 -50.44,56.19 -48.12,52.07 -45.42,47.87 -42.72,43.66 -39.75,39.20 -36.79,34.74 -33.82,30.27 -30.85,25.80 -26.61,20.79 -22.38,15.78 -19.26,12.89 -16.14,10.00 -13.62,8.02 -11.11,6.05 -8.55,4.13 -6.00,2.20 -3.43,0.45 -0.86,-1.29 -0.69,-1.38 -0.53,-1.46 -0.34,-1.51 -0.16,-1.55 0.02,-1.55 0.21,-1.54 0.39,-1.49 0.57,-1.45 0.74,-1.36 0.90,-1.27 1.04,-1.14 1.18,-1.01 1.29,-0.86 1.39,-0.70 1.45,-0.52 1.52,-0.34 1.54,-0.16 1.56,0.02 1.53,0.21 1.51,0.39 1.44,0.57 1.37,0.74 1.26,0.90 1.15,1.05 1.00,1.17 0.86,1.29 0.86,1.29 L 0.86,1.29 Z"></path></g><g transform="translate(1226 505) rotate(0 1.5 8.5)" stroke="none"><path fill="#e03131" d="M 1.83,1.47 Q 1.83,1.47 0.64,2.86 -0.55,4.26 -1.24,5.37 -1.94,6.48 -2.60,7.96 -3.26,9.43 -2.09,9.64 -0.92,9.85 0.90,10.72 2.72,11.59 4.05,12.26 5.38,12.94 7.57,13.77 9.75,14.60 10.11,14.79 10.48,14.97 10.76,15.26 11.05,15.55 11.22,15.92 11.40,16.28 11.45,16.68 11.50,17.09 11.42,17.48 11.34,17.88 11.14,18.23 10.93,18.58 10.63,18.85 10.33,19.12 9.95,19.28 9.58,19.43 9.17,19.46 8.77,19.49 8.38,19.39 7.98,19.29 7.64,19.07 7.30,18.85 7.05,18.53 6.80,18.21 6.66,17.83 6.53,17.44 6.52,17.04 6.51,16.63 6.64,16.25 6.76,15.86 7.00,15.53 7.24,15.21 7.57,14.97 7.90,14.74 8.29,14.62 8.68,14.51 9.09,14.52 9.49,14.54 9.87,14.68 10.25,14.82 10.56,15.08 10.88,15.34 11.09,15.68 11.31,16.03 11.40,16.42 11.50,16.82 11.46,17.22 11.42,17.62 11.26,17.99 11.10,18.37 10.82,18.66 10.55,18.96 10.19,19.16 9.84,19.36 9.44,19.43 9.04,19.50 8.64,19.44 8.24,19.39 8.24,19.39 8.24,19.39 5.67,18.28 3.11,17.18 2.07,16.59 1.02,15.99 -1.36,15.24 -3.76,14.48 -4.80,13.79 -5.85,13.11 -6.82,11.85 -7.79,10.59 -7.62,8.66 -7.46,6.72 -6.61,5.36 -5.76,4.00 -4.90,2.74 -4.04,1.48 -2.94,0.00 -1.83,-1.47 -1.63,-1.67 -1.43,-1.86 -1.18,-2.01 -0.94,-2.15 -0.67,-2.23 -0.40,-2.32 -0.11,-2.33 0.16,-2.34 0.44,-2.29 0.72,-2.24 0.98,-2.12 1.23,-2.00 1.46,-1.82 1.68,-1.64 1.85,-1.42 2.02,-1.19 2.14,-0.93 2.25,-0.67 2.30,-0.39 2.35,-0.11 2.33,0.16 2.31,0.44 2.22,0.71 2.13,0.98 1.98,1.23 1.83,1.47 1.83,1.47 L 1.83,1.47 Z"></path></g><g transform="translate(1428 142) rotate(0 176.13333129882812 37.5)"><text x="0" y="17.52" font-family="Virgil, Segoe UI Emoji" font-size="20px" fill="#fefefe" text-anchor="start" style="white-space: pre;" direction="ltr" dominant-baseline="alphabetic">All instance data will be sent as</text><text x="0" y="42.519999999999996" font-family="Virgil, Segoe UI Emoji" font-size="20px" fill="#fefefe" text-anchor="start" style="white-space: pre;" direction="ltr" dominant-baseline="alphabetic">vertex buffer and will be recreated</text><text x="0" y="67.52" font-family="Virgil, Segoe UI Emoji" font-size="20px" fill="#fefefe" text-anchor="start" style="white-space: pre;" direction="ltr" dominant-baseline="alphabetic">after each clear call</text></g><g transform="translate(236 10) rotate(0 269.26666259765625 22.5)"><text x="0" y="31.536" font-family="Virgil, Segoe UI Emoji" font-size="36px" fill="#f08c00" text-anchor="start" style="white-space: pre;" direction="ltr" dominant-baseline="alphabetic">How Batches Will Be Created?</text></g></svg>
